<?xml version="1.0" encoding="UTF-8"?>
<svg version="1.1" width="576px" height="48px" viewBox="0 0 576 48" xmlns="http://www.w3.org/2000/svg">
<defs>
<filter id="hueRotate" color-interpolation-filters="sRGB">
<feColorMatrix type="hueRotate" values="315"></feColorMatrix>
</filter>
<linearGradient id="a" x1="4306.9" x2="4306.9" y1="-46.092" y2="776.85" gradientTransform="scale(.066597 .066759)" gradientUnits="userSpaceOnUse">
<stop stop-color="#e7523e" offset="0"/>
<stop stop-color="#ad110d" offset="1"/>
</linearGradient>
</defs>
<g filter="url(#hueRotate)">
<path d="m0 38.512v-37.727h37.633v3.9297h-32.93v12.574h31.359v3.9297h-31.359v13.363h32.93v3.9297zm41.551-14.098c0-1.9648 0.10156-3.7031 0.29688-5.207 0.19531-1.5078 0.53906-2.8164 1.0273-3.9297 0.50781-1.1133 1.1758-2.0391 2.0078-2.7773 0.85156-0.75391 1.9141-1.3594 3.1875-1.8164 1.2891-0.45703 2.8164-0.78516 4.582-0.98438 1.7617-0.19531 3.8203-0.29297 6.1719-0.29297 3.1367 0 5.7188 0.19531 7.7422 0.58984 2.0273 0.375 3.625 0.96484 4.8008 1.7695 1.1797 0.78516 1.9961 1.793 2.4531 3.0195 0.45703 1.2109 0.68359 2.6602 0.68359 4.3477h-4.7031c0-0.60547-0.015625-1.1719-0.046875-1.6953-0.035156-0.52344-0.15625-1-0.37109-1.4258-0.19531-0.42578-0.51172-0.80078-0.95312-1.1289-0.44141-0.34375-1.0703-0.62891-1.8867-0.85937-0.81641-0.23047-1.8555-0.40234-3.1133-0.51563-1.2383-0.11328-2.7734-0.17187-4.6055-0.17187-2.0898 0-3.8555 0.074218-5.293 0.22266-1.418 0.14453-2.5938 0.39062-3.5273 0.73438-0.92969 0.32812-1.6484 0.77734-2.1562 1.3516-0.50391 0.55859-0.87109 1.2461-1.1016 2.0625-0.22656 0.82031-0.36719 1.7852-0.41797 2.8984-0.03125 1.0977-0.046875 2.3672-0.046875 3.8086 0 1.4062 0.015625 2.6602 0.046875 3.7578 0.050781 1.0781 0.19141 2.0273 0.41797 2.8477 0.23047 0.80078 0.59766 1.4805 1.1016 2.0391 0.50781 0.55469 1.2266 1.0078 2.1562 1.3516 0.93359 0.34375 2.1094 0.58594 3.5273 0.73438 1.4375 0.14844 3.2031 0.22266 5.293 0.22266 1.832 0 3.3672-0.066407 4.6055-0.19922 1.2578-0.12891 2.2969-0.31641 3.1133-0.5625 0.81641-0.24609 1.4453-0.55078 1.8867-0.91016 0.44141-0.35937 0.75781-0.76953 0.95312-1.2266 0.21484-0.47656 0.33594-0.99219 0.37109-1.5469 0.03125-0.57422 0.046875-1.1875 0.046875-1.8438h4.7031c0 1.7188-0.22656 3.2109-0.68359 4.4688-0.45703 1.2617-1.2734 2.3008-2.4531 3.1211-1.1758 0.80078-2.7734 1.3984-4.8008 1.793-2.0234 0.39453-4.6055 0.58984-7.7422 0.58984-2.3516 0-4.4102-0.097656-6.1719-0.29688-1.7656-0.19531-3.293-0.51562-4.582-0.95703-1.2734-0.45703-2.3359-1.0547-3.1875-1.793-0.83203-0.73438-1.5-1.6445-2.0078-2.7266-0.48828-1.0781-0.83203-2.3477-1.0273-3.8047-0.19531-1.4727-0.29688-3.1602-0.29688-5.0586zm40.82-23.629h4.7031v37.727h-4.7031zm14.109 9.4336h4.707v28.293h-4.707zm4.707-4.7188h-4.707v-4.7148h4.707zm25.086 3.9297c3.1367 0 5.8008 0.23828 7.9883 0.71484 2.1875 0.47266 3.9688 1.2852 5.3398 2.4297 1.3711 1.1484 2.3711 2.6875 2.9883 4.6172 0.62109 1.918 0.93359 4.3242 0.93359 7.2227 0 2.8477-0.3125 5.2148-0.93359 7.0977-0.61719 1.8828-1.6172 3.3789-2.9883 4.4922-1.3711 1.1133-3.1523 1.8984-5.3398 2.3594-2.1875 0.45703-4.8516 0.6875-7.9883 0.6875-2.2383 0-4.1055-0.125-5.6094-0.36719-1.5039-0.24609-2.7344-0.55078-3.6992-0.91016-0.94922-0.37891-1.6758-0.77734-2.1797-1.2031-0.49219-0.42578-0.84375-0.82812-1.0547-1.2031v12.574h-4.7031v-37.723h4.7031v2.625c0.21094-0.32812 0.5625-0.6875 1.0547-1.0781 0.50391-0.41016 1.2305-0.78906 2.1797-1.1328 0.96484-0.34375 2.1953-0.62891 3.6992-0.85937 1.5039-0.22656 3.3711-0.34375 5.6094-0.34375zm0 3.9297c-1.5664 0-2.9648 0.042969-4.1875 0.125-1.2266 0.082031-2.3047 0.25391-3.2344 0.51562-0.93359 0.24609-1.7227 0.61328-2.3789 1.1055-0.63672 0.47266-1.1562 1.1211-1.5664 1.9375-0.41016 0.80469-0.71094 1.8008-0.90625 2.9961-0.17969 1.1953-0.26953 2.6289-0.26953 4.3008 0 1.6836 0.089843 3.1328 0.26953 4.3477 0.19531 1.2109 0.49609 2.2266 0.90625 3.043 0.41016 0.80469 0.92969 1.4492 1.5664 1.9414 0.65625 0.47266 1.4453 0.84375 2.3789 1.1055 0.92969 0.24609 2.0078 0.41016 3.2344 0.49219 1.2227 0.0625 2.6211 0.097657 4.1875 0.097657 1.8281 0 3.4062-0.058594 4.7305-0.17188 1.3398-0.11719 2.4727-0.32031 3.4023-0.61328 0.93359-0.29688 1.6836-0.70703 2.2578-1.2305 0.58594-0.52344 1.0352-1.1875 1.3438-1.9883 0.32813-0.82031 0.54297-1.793 0.64063-2.9219 0.11328-1.1484 0.16797-2.4883 0.16797-4.0273 0-1.5391-0.054687-2.8828-0.16797-4.0312-0.097657-1.1445-0.3125-2.125-0.64063-2.9453-0.30859-0.82031-0.75781-1.4883-1.3438-2.0156-0.57422-0.52344-1.3242-0.94141-2.2578-1.25-0.92969-0.3125-2.0625-0.52344-3.4023-0.64062-1.3242-0.11328-2.9023-0.17188-4.7305-0.17188zm39.199 12.258c-2.2188 0-4.1719-0.035157-5.8555-0.097657-1.6797-0.066406-3.1328-0.19922-4.3594-0.39453-1.207-0.21484-2.2227-0.50781-3.0391-0.88281-0.80078-0.37891-1.4375-0.87891-1.9102-1.5-0.47266-0.63672-0.80859-1.418-1.0039-2.332-0.19531-0.93359-0.29297-1.9414-0.29297-3.0234 0-1.4727 0.30859-2.707 0.92969-3.707 0.62109-1.0156 1.6172-1.832 2.9883-2.457 1.3711-0.63672 3.1523-1.0977 5.3398-1.375 2.1914-0.27734 4.8516-0.41797 7.9883-0.41797 3.1055 0 5.6602 0.16406 7.668 0.49219 2.0273 0.32812 3.6289 0.83594 4.8047 1.5234 1.1914 0.67188 2.0234 1.5234 2.4961 2.5547 0.47656 1.0312 0.71094 2.2578 0.71094 3.6836h-4.7031c0-0.88281-0.17188-1.6055-0.51562-2.1602-0.32422-0.55859-0.90625-0.99219-1.7383-1.3047-0.83203-0.32422-1.9609-0.54688-3.3828-0.66016-1.4023-0.13281-3.1836-0.19922-5.3398-0.19922-2.3516 0-4.3281 0.035156-5.9297 0.097656-1.5977 0.066407-2.8906 0.23047-3.8711 0.49219-0.97656 0.26172-1.6797 0.66406-2.1055 1.2031-0.42578 0.54297-0.63672 1.2852-0.63672 2.2344 0 0.55859 0.03125 1.1055 0.097656 1.6484 0.082031 0.52344 0.25391 0.95703 0.51562 1.3008s0.64453 0.60547 1.1523 0.78516c0.50391 0.17969 1.1914 0.32031 2.0547 0.41797 0.88281 0.082032 1.9688 0.13281 3.2617 0.14844h4.6758c2.2227 0 4.168 0.046875 5.832 0.14453 1.6836 0.10156 3.1367 0.27344 4.3633 0.51562 1.2227 0.24609 2.2344 0.625 3.0352 1.1328 0.80078 0.50781 1.4375 1.0625 1.9141 1.668 0.48828 0.58984 0.83203 1.293 1.0273 2.1133 0.19531 0.80078 0.29297 1.7344 0.29297 2.8008 0 1.0625-0.097656 2.0195-0.29297 2.8711-0.19531 0.83594-0.53906 1.582-1.0273 2.2344-0.49219 0.64062-1.1602 1.1953-2.0117 1.6719-0.83203 0.45703-1.8867 0.83594-3.1602 1.1289-1.2734 0.27734-2.8008 0.48438-4.582 0.61328-1.7617 0.14844-3.8203 0.22266-6.1719 0.22266-2.9414 0-5.4141-0.14844-7.4258-0.44141-1.9922-0.29688-3.6016-0.76172-4.8242-1.4023-1.2266-0.65234-2.1094-1.4961-2.6484-2.5273-0.51953-1.0312-0.78125-2.293-0.78125-3.7812h4.7031c0 0.98047 0.16406 1.7812 0.48828 2.4062 0.34375 0.60547 0.93359 1.0781 1.7656 1.4219s1.9531 0.58203 3.3555 0.71484c1.4219 0.11328 3.2109 0.17188 5.3672 0.17188 1.9609 0 3.625-0.042969 4.9961-0.125 1.3906-0.097657 2.5508-0.24609 3.4805-0.44141 0.92969-0.19531 1.6641-0.43359 2.2031-0.71094 0.53906-0.27734 0.94922-0.61328 1.2266-1.0078s0.44922-0.82812 0.51562-1.3008c0.082031-0.49219 0.12109-1.0312 0.12109-1.6211 0-0.53906-0.039063-1.0156-0.12109-1.4258-0.066406-0.42578-0.23047-0.84375-0.49219-1.25-0.26172-0.42578-0.64453-0.74609-1.1523-0.96094-0.50391-0.21094-1.1992-0.38281-2.082-0.51563-0.86328-0.14453-1.9414-0.24609-3.2344-0.29297-1.2891-0.066406-2.8477-0.097656-4.6797-0.097656zm39.203 13.434c-3.1367 0-5.8008-0.21484-7.9883-0.64062-2.1875-0.44141-3.9688-1.1953-5.3398-2.2578-1.3711-1.0664-2.3711-2.4883-2.9883-4.2734-0.62109-1.7852-0.93359-4.0273-0.93359-6.7305 0-3.0938 0.3125-5.6484 0.93359-7.6602 0.61719-2.0312 1.6172-3.6445 2.9883-4.8398 1.3711-1.1953 3.1523-2.0312 5.3398-2.5039 2.1875-0.47656 4.8516-0.71484 7.9883-0.71484 2.2383 0 4.1719 0.16406 5.8047 0.49219 1.6523 0.32812 3.0547 0.80078 4.2148 1.4258 1.1758 0.62109 2.125 1.375 2.8438 2.2578 0.73438 0.88672 1.3047 1.8164 1.7148 2.8008 0.42188 0.96484 0.70703 2.1055 0.85547 3.4141 0.16406 1.3086 0.24609 2.6914 0.24609 4.1484l-0.39453 1.5742h-27.832c0 2.1602 0.21484 3.9375 0.64062 5.3281 0.42188 1.375 1.125 2.3828 2.1055 3.0234 0.98047 0.63672 2.2695 1.0469 3.8711 1.2266 1.6016 0.16406 3.5781 0.24609 5.9297 0.24609 2.1562 0 3.9375-0.058594 5.3398-0.17188 1.4219-0.13281 2.5469-0.37109 3.3828-0.71484 0.83203-0.34375 1.4102-0.81641 1.7383-1.4219 0.34375-0.625 0.51562-1.4258 0.51562-2.4062h4.7031c0 1.5195-0.26953 2.8242-0.80859 3.9023-0.52344 1.0664-1.3984 1.9336-2.6211 2.6055-1.2266 0.65234-2.8438 1.1289-4.8516 1.4219-1.9922 0.3125-4.4609 0.46875-7.3984 0.46875zm0-25.691c-1.5703 0-2.9727 0.035156-4.2148 0.097656-1.2266 0.066407-2.3047 0.21484-3.2344 0.44531-0.91406 0.21094-1.6992 0.53125-2.3516 0.95703-0.65234 0.41016-1.1836 0.89844-1.5938 1.4727-0.39062 0.55859-0.68359 1.3516-0.88281 2.3828-0.17969 1.0156-0.26953 2.2422-0.26953 3.6836h23.523c0-1.9141-0.20703-3.4141-0.61328-4.4961-0.41016-1.0938-1.0547-1.9961-1.9375-2.6992-0.87891-0.70312-2.0156-1.1875-3.4023-1.4492-1.3906-0.26172-3.0664-0.39453-5.0234-0.39453zm34.496-12.574h28.273c2.3359 0 4.3047 0.10547 5.9023 0.32031 1.6172 0.19531 2.9492 0.5 3.9961 0.91016 1.043 0.40625 1.8438 0.91406 2.3984 1.5195 0.57422 0.60547 0.98828 1.3203 1.25 2.1367 0.26172 0.82031 0.41016 1.7383 0.44141 2.7539 0.050781 1.0117 0.074218 2.1367 0.074218 3.3633 0 1.2773-0.03125 2.457-0.097656 3.5352-0.050781 1.082-0.23828 2.0625-0.5625 2.9492-0.3125 0.86719-0.81641 1.6367-1.5195 2.3086-0.6875 0.65234-1.6758 1.2031-2.9648 1.6445-1.2734 0.44141-2.8984 0.77734-4.875 1.0078-1.9609 0.22656-4.3789 0.34375-7.2539 0.34375h-20.359v14.934h-4.7031zm4.7031 18.863h20.359c2.0898 0 3.8477-0.035157 5.2695-0.097657 1.4375-0.082031 2.6211-0.22266 3.5508-0.41797 0.92969-0.19531 1.6484-0.47656 2.1562-0.83594 0.50781-0.35938 0.875-0.83594 1.1016-1.4258 0.24609-0.58594 0.38281-1.293 0.41797-2.1094 0.046875-0.83594 0.074219-1.8281 0.074219-2.9727 0-1.0664-0.027344-1.9805-0.074219-2.75-0.035157-0.76953-0.17188-1.418-0.41797-1.9414-0.22656-0.52344-0.59375-0.94141-1.1016-1.2539-0.50781-0.30859-1.2266-0.54688-2.1562-0.71094-0.92969-0.17969-2.1133-0.29297-3.5508-0.34375-1.4219-0.050781-3.1797-0.074218-5.2695-0.074218h-20.359zm43.906-18.863h4.7031v37.727h-4.7031zm40.645 33.844c-0.050781 0.19531-0.41797 0.6875-1.1016 1.4727-0.49219 0.58984-1.1445 1.1133-1.9609 1.5742-0.81641 0.44141-1.9102 0.78516-3.2852 1.0312-1.3555 0.26172-3.1406 0.39062-5.3633 0.39062-2.957 0-5.4805-0.15234-7.5703-0.46484-2.0898-0.29297-3.7969-0.75391-5.1211-1.375-1.3242-0.64062-2.2969-1.4492-2.9141-2.4336-0.60547-0.98047-0.90625-2.1523-0.90625-3.5117 0-1.4219 0.16016-2.625 0.48828-3.6094 0.34375-1 0.83203-1.832 1.4688-2.5039 0.65625-0.67188 1.4375-1.1953 2.3516-1.5742 0.91797-0.375 1.9531-0.66016 3.1133-0.85938 1.1758-0.19531 2.457-0.31641 3.8477-0.36719 1.3867-0.050782 2.8672-0.074219 4.4336-0.074219 2.2383 0 4.1094 0.097656 5.6094 0.29688 1.5039 0.17969 2.7305 0.41797 3.6758 0.71094 0.96484 0.27734 1.6914 0.58203 2.1797 0.91016 0.49219 0.32422 0.84375 0.62891 1.0547 0.90625 0-1.832-0.082031-3.3984-0.24609-4.6914-0.14453-1.293-0.39844-2.3711-0.75781-3.2422-0.34375-0.86719-0.79297-1.5547-1.3477-2.0625-0.55469-0.52344-1.2422-0.91406-2.0586-1.1797-0.80078-0.26172-1.7383-0.42188-2.8164-0.48828-1.0781-0.082031-2.3125-0.125-3.6992-0.125-2.1562 0-3.9453 0.058594-5.3672 0.17188-1.4219 0.097656-2.5469 0.30469-3.3828 0.61328-0.83203 0.3125-1.418 0.74609-1.7617 1.3047-0.34375 0.53906-0.51562 1.25-0.51562 2.1367h-4.7031c0-1.4922 0.26172-2.75 0.78516-3.7852 0.53906-1.0312 1.418-1.8633 2.6445-2.5039 1.2422-0.65234 2.8672-1.1289 4.875-1.4258 2.0078-0.29297 4.4844-0.44141 7.4258-0.44141 2.8711 0 5.3086 0.23828 7.3008 0.71484 1.9922 0.47266 3.6016 1.3086 4.8242 2.5039 1.2422 1.1953 2.1328 2.8086 2.6719 4.8398 0.55469 2.0117 0.83203 4.5664 0.83203 7.6602v13.363h-4.7031zm-10.926 0.73828c2.0742 0 3.8047-0.097657 5.1914-0.29688 1.4062-0.19531 2.5312-0.48828 3.3828-0.88281 0.84766-0.39453 1.4531-0.88281 1.8125-1.4727s0.53906-1.2773 0.53906-2.0625c0-0.78906-0.21094-1.4492-0.63672-1.9922-0.41016-0.55469-1.1016-1.0039-2.082-1.3516-0.96484-0.34375-2.2461-0.58594-3.8477-0.73438-1.6016-0.16406-3.5781-0.24609-5.9297-0.24609-2.3516 0-4.2539 0.039063-5.707 0.12109-1.4375 0.082031-2.5508 0.27344-3.332 0.56641-0.78516 0.29297-1.3164 0.73047-1.5938 1.3008-0.26172 0.57422-0.39062 1.3516-0.39062 2.3359 0 0.98047 0.13672 1.7812 0.41406 2.4062 0.29688 0.60547 0.88281 1.0781 1.7656 1.4219 0.88281 0.34375 2.1484 0.58203 3.7969 0.71484 1.668 0.11328 3.8711 0.17188 6.6172 0.17188zm38.391-9.75c-2.2227 0-4.1719-0.035157-5.8555-0.097657-1.6836-0.066406-3.1367-0.19922-4.3594-0.39453-1.2109-0.21484-2.2227-0.50781-3.0391-0.88281-0.80078-0.37891-1.4375-0.87891-1.9141-1.5-0.47266-0.63672-0.80859-1.418-1.0039-2.332-0.19531-0.93359-0.29297-1.9414-0.29297-3.0234 0-1.4727 0.30859-2.707 0.92969-3.707 0.62109-1.0156 1.6172-1.832 2.9922-2.457 1.3711-0.63672 3.1523-1.0977 5.3398-1.375s4.8516-0.41797 7.9883-0.41797c3.1016 0 5.6562 0.16406 7.668 0.49219 2.0234 0.32812 3.625 0.83594 4.8008 1.5234 1.1914 0.67188 2.0273 1.5234 2.5 2.5547 0.47266 1.0312 0.71094 2.2578 0.71094 3.6836h-4.707c0-0.88281-0.16797-1.6055-0.51172-2.1602-0.32812-0.55859-0.90625-0.99219-1.7422-1.3047-0.83203-0.32422-1.957-0.54688-3.3789-0.66016-1.4062-0.13281-3.1836-0.19922-5.3398-0.19922-2.3555 0-4.332 0.035156-5.9297 0.097656-1.6016 0.066407-2.8906 0.23047-3.8711 0.49219s-1.6836 0.66406-2.1094 1.2031c-0.42188 0.54297-0.63672 1.2852-0.63672 2.2344 0 0.55859 0.035156 1.1055 0.097656 1.6484 0.082032 0.52344 0.25391 0.95703 0.51563 1.3008 0.26172 0.34375 0.64453 0.60547 1.1523 0.78516 0.50781 0.17969 1.1914 0.32031 2.0586 0.41797 0.87891 0.082032 1.9688 0.13281 3.2578 0.14844h4.6797c2.2227 0 4.1641 0.046875 5.832 0.14453 1.6797 0.10156 3.1328 0.27344 4.3594 0.51562 1.2266 0.24609 2.2383 0.625 3.0391 1.1328 0.80078 0.50781 1.4375 1.0625 1.9102 1.668 0.49219 0.58984 0.83203 1.293 1.0273 2.1133 0.19922 0.80078 0.29688 1.7344 0.29688 2.8008 0 1.0625-0.097657 2.0195-0.29688 2.8711-0.19531 0.83594-0.53516 1.582-1.0273 2.2344-0.48828 0.64062-1.1602 1.1953-2.0078 1.6719-0.83594 0.45703-1.8867 0.83594-3.1602 1.1289-1.2773 0.27734-2.8047 0.48438-4.582 0.61328-1.7656 0.14844-3.8242 0.22266-6.1758 0.22266-2.9375 0-5.4141-0.14844-7.4219-0.44141-1.9922-0.29688-3.6016-0.76172-4.8281-1.4023-1.2266-0.65234-2.1055-1.4961-2.6445-2.5273-0.52344-1.0312-0.78516-2.293-0.78516-3.7812h4.7031c0 0.98047 0.16406 1.7812 0.49219 2.4062 0.34375 0.60547 0.92969 1.0781 1.7617 1.4219 0.83594 0.34375 1.9531 0.58203 3.3594 0.71484 1.418 0.11328 3.207 0.17188 5.3633 0.17188 1.9609 0 3.625-0.042969 5-0.125 1.3867-0.097657 2.5469-0.24609 3.4766-0.44141 0.93359-0.19531 1.668-0.43359 2.207-0.71094 0.53906-0.27734 0.94531-0.61328 1.2227-1.0078 0.27734-0.39453 0.44922-0.82812 0.51562-1.3008 0.082031-0.49219 0.12109-1.0312 0.12109-1.6211 0-0.53906-0.039063-1.0156-0.12109-1.4258-0.066406-0.42578-0.22656-0.84375-0.48828-1.25-0.26172-0.42578-0.64453-0.74609-1.1523-0.96094-0.50781-0.21094-1.1992-0.38281-2.082-0.51563-0.86719-0.14453-1.9453-0.24609-3.2344-0.29297-1.2891-0.066406-2.8516-0.097656-4.6797-0.097656zm52.527 12.895h-4.7031v-15.965c0-1.7031-0.11328-3.1367-0.34375-4.3008-0.21094-1.1758-0.66016-2.125-1.3477-2.8477-0.66797-0.71875-1.625-1.2344-2.8672-1.5469-1.2227-0.32812-2.8398-0.49219-4.8516-0.49219-2.2031 0-4.0156 0.19141-5.4375 0.56641-1.4219 0.35938-2.5391 0.875-3.3555 1.5469-0.81641 0.65625-1.3906 1.4492-1.7148 2.3828-0.3125 0.93359-0.46484 1.9727-0.46484 3.1172v17.539h-4.707v-28.293h4.707v4.4688c0.015625-0.050781 0.089844-0.21484 0.21875-0.49219 0.13281-0.27734 0.35938-0.60547 0.6875-0.98047 0.33984-0.39453 0.80078-0.8125 1.3711-1.2539 0.58594-0.44141 1.3398-0.85156 2.2539-1.2266 0.92969-0.37891 2.0508-0.6875 3.3555-0.93359 1.3086-0.24609 2.8594-0.37109 4.6562-0.37109 1.7617 0 3.2891 0.11719 4.582 0.34375 1.3047 0.21484 2.418 0.54297 3.332 0.98437 0.92969 0.42578 1.6797 0.96484 2.2539 1.6211 0.58594 0.63672 1.0547 1.375 1.3945 2.2109 0.27734-0.44531 0.71094-0.96094 1.3008-1.5469 0.58594-0.58984 1.4023-1.1562 2.4492-1.6953 1.0625-0.54297 2.3828-0.99219 3.9688-1.3516 1.5859-0.375 3.5195-0.56641 5.8047-0.56641 1.8789 0 3.4883 0.13281 4.8281 0.39453 1.3555 0.24609 2.5 0.62109 3.4297 1.1289 0.93359 0.49219 1.6758 1.1055 2.2305 1.8438 0.57031 0.73438 1.0039 1.5938 1.2969 2.5781 0.3125 0.96484 0.51562 2.0547 0.61328 3.2656 0.097656 1.1953 0.14844 2.4961 0.14844 3.9062v15.965h-4.707v-15.965c0-1.7031-0.11328-3.1367-0.33984-4.3008-0.21484-1.1758-0.66406-2.125-1.3477-2.8477-0.67188-0.71875-1.625-1.2344-2.8672-1.5469-1.2266-0.32812-2.8438-0.49219-4.8516-0.49219-2.2031 0-4.0195 0.19141-5.4375 0.56641-1.4219 0.35938-2.5391 0.875-3.3594 1.5469-0.81641 0.65625-1.3867 1.4492-1.7148 2.3828-0.30859 0.93359-0.46484 1.9727-0.46484 3.1172zm59.461-3.8828c-0.046875 0.19531-0.41406 0.6875-1.1016 1.4727-0.48828 0.58984-1.1406 1.1133-1.957 1.5742-0.82031 0.44141-1.9141 0.78516-3.2852 1.0312-1.3555 0.26172-3.1445 0.39062-5.3672 0.39062-2.9531 0-5.4766-0.15234-7.5703-0.46484-2.0898-0.29297-3.7969-0.75391-5.1172-1.375-1.3242-0.64062-2.2969-1.4492-2.918-2.4336-0.60547-0.98047-0.90625-2.1523-0.90625-3.5117 0-1.4219 0.16406-2.625 0.49219-3.6094 0.33984-1 0.83203-1.832 1.4688-2.5039 0.65234-0.67188 1.4375-1.1953 2.3516-1.5742 0.91406-0.375 1.9531-0.66016 3.1133-0.85938 1.1758-0.19531 2.457-0.31641 3.8438-0.36719 1.3906-0.050782 2.8672-0.074219 4.4336-0.074219 2.2383 0 4.1094 0.097656 5.6133 0.29688 1.5 0.17969 2.7266 0.41797 3.6758 0.71094 0.96094 0.27734 1.6875 0.58203 2.1797 0.91016 0.48828 0.32422 0.83984 0.62891 1.0508 0.90625 0-1.832-0.078125-3.3984-0.24219-4.6914-0.14844-1.293-0.40234-2.3711-0.76172-3.2422-0.33984-0.86719-0.79297-1.5547-1.3477-2.0625-0.55469-0.52344-1.2383-0.91406-2.0586-1.1797-0.79688-0.26172-1.7383-0.42188-2.8164-0.48828-1.0781-0.082031-2.3086-0.125-3.6992-0.125-2.1562 0-3.9453 0.058594-5.3633 0.17188-1.4219 0.097656-2.5508 0.30469-3.3828 0.61328-0.83203 0.3125-1.4219 0.74609-1.7656 1.3047-0.33984 0.53906-0.51172 1.25-0.51172 2.1367h-4.707c0-1.4922 0.26172-2.75 0.78516-3.7852 0.53906-1.0312 1.4219-1.8633 2.6484-2.5039 1.2383-0.65234 2.8633-1.1289 4.875-1.4258 2.0078-0.29297 4.4844-0.44141 7.4219-0.44141 2.875 0 5.3086 0.23828 7.3008 0.71484 1.9922 0.47266 3.6016 1.3086 4.8281 2.5039 1.2422 1.1953 2.1289 2.8086 2.668 4.8398 0.55859 2.0117 0.83594 4.5664 0.83594 7.6602v13.363h-4.707zm-10.926 0.73828c2.0742 0 3.8047-0.097657 5.1953-0.29688 1.4023-0.19531 2.5312-0.48828 3.3789-0.88281 0.85156-0.39453 1.4531-0.88281 1.8164-1.4727 0.35547-0.58984 0.53516-1.2773 0.53516-2.0625 0-0.78906-0.21094-1.4492-0.63672-1.9922-0.40625-0.55469-1.1016-1.0039-2.082-1.3516-0.96094-0.34375-2.2461-0.58594-3.8438-0.73438-1.6016-0.16406-3.5781-0.24609-5.9297-0.24609-2.3516 0-4.2578 0.039063-5.7109 0.12109-1.4375 0.082031-2.5469 0.27344-3.332 0.56641-0.78125 0.29297-1.3125 0.73047-1.5898 1.3008-0.26172 0.57422-0.39453 1.3516-0.39453 2.3359 0 0.98047 0.14062 1.7812 0.41797 2.4062 0.29297 0.60547 0.88281 1.0781 1.7617 1.4219 0.88281 0.34375 2.1484 0.58203 3.8008 0.71484 1.6641 0.11328 3.8711 0.17188 6.6133 0.17188zm31.336-21.566v24.711h-4.7031v-24.711h-4.7031v-3.582h4.7031v-0.24609c0-1.918 0.21094-3.5117 0.63672-4.7891 0.42578-1.2773 1.1289-2.3008 2.1055-3.0703 0.98047-0.76953 2.2734-1.3125 3.8711-1.6211 1.6172-0.32813 3.6016-0.49219 5.9531-0.49219h5.4648v3.9297h-5.4883c-1.4844 0-2.7266 0.03125-3.7227 0.097656s-1.8047 0.28516-2.4258 0.66406c-0.60547 0.375-1.0391 0.97266-1.3008 1.793-0.26172 0.81641-0.39063 1.9805-0.39063 3.4883v0.24609h13.328v3.582zm15.68 10.367c0-2.8984 0.3125-5.2969 0.93359-7.1953 0.61719-1.9023 1.6172-3.4062 2.9883-4.5195s3.1523-1.8906 5.3398-2.3359c2.1875-0.45703 4.8516-0.6875 7.9883-0.6875s5.7969 0.23047 7.9844 0.6875c2.1914 0.44531 3.9727 1.2227 5.3438 2.3359s2.3672 2.6172 2.9883 4.5195c0.62109 1.8984 0.92969 4.2969 0.92969 7.1953 0 2.8984-0.30859 5.3047-0.92969 7.2188-0.62109 1.918-1.6172 3.4375-2.9883 4.5703-1.3711 1.1289-3.1523 1.9297-5.3438 2.4062-2.1875 0.45703-4.8477 0.6875-7.9844 0.6875s-5.8008-0.23047-7.9883-0.6875c-2.1875-0.47656-3.9688-1.2773-5.3398-2.4062-1.3711-1.1328-2.3711-2.6523-2.9883-4.5703-0.62109-1.9141-0.93359-4.3203-0.93359-7.2188zm4.7031 0c0 1.5703 0.058594 2.9375 0.17188 4.1016 0.11719 1.1602 0.32812 2.1602 0.63672 2.9961 0.32812 0.83594 0.77734 1.5117 1.3477 2.0391 0.57422 0.52344 1.3242 0.94141 2.2539 1.25 0.93359 0.3125 2.0586 0.52344 3.3828 0.64062 1.3398 0.11328 2.9219 0.17188 4.7539 0.17188 1.5664 0 2.9648-0.035157 4.1875-0.097657 1.2422-0.082031 2.3203-0.25391 3.2344-0.51562 0.93359-0.26172 1.7227-0.63281 2.3789-1.1055 0.65234-0.49219 1.1758-1.1562 1.5664-1.9922 0.40625-0.83203 0.70312-1.8555 0.88281-3.0703 0.19531-1.2266 0.29297-2.6992 0.29297-4.418 0-1.6875-0.097657-3.1211-0.29297-4.3008-0.17969-1.1953-0.47656-2.1914-0.88281-2.9961-0.39063-0.80078-0.91406-1.4297-1.5664-1.8906-0.65625-0.47266-1.4453-0.82422-2.3789-1.0547-0.91406-0.24609-1.9922-0.40234-3.2344-0.46875-1.2227-0.0625-2.6211-0.097656-4.1875-0.097656-1.5703 0-2.9727 0.035156-4.2148 0.097656-1.2266 0.066407-2.3047 0.22266-3.2344 0.46875-0.91406 0.23047-1.6992 0.58203-2.3516 1.0547-0.65234 0.46094-1.1836 1.0898-1.5938 1.8906-0.39062 0.80469-0.68359 1.8008-0.88281 2.9961-0.17969 1.1797-0.26953 2.6133-0.26953 4.3008zm61.059 14.344-11.32-11.84-11.32 11.84h-6.2734l14.457-14.395-13.77-13.898h6.2734l10.754 10.926 10.512-10.926h6.2695l-13.766 13.875 14.453 14.418z" fill="url(#a)"/>
</g>
</svg>
