<svg xmlns="http://www.w3.org/2000/svg" width="576" height="48"><defs><filter id="A" color-interpolation-filters="sRGB"><feColorMatrix type="hueRotate" values="315"/></filter><linearGradient id="B" x1="286.827" x2="286.827" y1="-3.077" y2="51.862" gradientUnits="userSpaceOnUse"><stop stop-color="#e7523e" offset="0"/><stop stop-color="#ad110d" offset="1"/></linearGradient></defs><g filter="url(#A)"><path d="M0 38.512V.785h37.633v3.93H4.703v12.574h31.359v3.93H4.703v13.363h32.93v3.93zm41.551-14.098c0-1.965.102-3.703.297-5.207s.539-2.816 1.027-3.93c.508-1.113 1.176-2.039 2.008-2.777.852-.754 1.914-1.359 3.188-1.816 1.289-.457 2.816-.785 4.582-.984s3.82-.293 6.172-.293c3.137 0 5.719.195 7.742.59 2.027.375 3.625.965 4.801 1.77 1.18.785 1.996 1.793 2.453 3.019.457 1.211.684 2.66.684 4.348h-4.703l-.047-1.695a3.68 3.68 0 0 0-.371-1.426c-.195-.426-.512-.801-.953-1.129-.441-.344-1.07-.629-1.887-.859s-1.856-.402-3.113-.516c-1.238-.113-2.773-.172-4.605-.172l-5.293.223c-1.418.145-2.594.391-3.527.734-.93.328-1.648.777-2.156 1.352-.504.559-.871 1.246-1.102 2.062s-.367 1.785-.418 2.898l-.047 3.809.047 3.758c.051 1.078.191 2.027.418 2.848.23.801.598 1.48 1.102 2.039s1.227 1.008 2.156 1.352 2.109.586 3.527.734c1.438.148 3.203.223 5.293.223l4.605-.199c1.258-.129 2.297-.316 3.113-.562s1.445-.551 1.887-.91.758-.77.953-1.227c.215-.477.336-.992.371-1.547l.047-1.844h4.703c0 1.719-.227 3.211-.684 4.469s-1.273 2.301-2.453 3.121c-1.176.801-2.773 1.398-4.801 1.793s-4.605.59-7.742.59c-2.352 0-4.41-.098-6.172-.297s-3.293-.516-4.582-.957c-1.273-.457-2.336-1.055-3.187-1.793-.832-.734-1.5-1.645-2.008-2.727-.488-1.078-.832-2.348-1.027-3.805-.195-1.473-.297-3.16-.297-5.059zM82.371.785h4.703v37.727h-4.703zm14.109 9.434h4.707v28.293H96.48zm4.707-4.719H96.48V.785h4.707zm25.086 3.93c3.137 0 5.801.238 7.988.715s3.969 1.285 5.34 2.43 2.371 2.688 2.988 4.617c.621 1.918.934 4.324.934 7.223 0 2.848-.312 5.215-.934 7.098s-1.617 3.379-2.988 4.492-3.152 1.898-5.34 2.359-4.852.688-7.988.688c-2.238 0-4.106-.125-5.609-.367s-2.734-.551-3.699-.91c-.949-.379-1.676-.777-2.18-1.203-.492-.426-.844-.828-1.055-1.203v12.574h-4.703V10.218h4.703v2.625c.211-.328.563-.687 1.055-1.078.504-.41 1.231-.789 2.18-1.133.965-.344 2.195-.629 3.699-.859s3.371-.344 5.609-.344zm0 3.93l-4.187.125c-1.227.082-2.305.254-3.234.516-.934.246-1.723.613-2.379 1.105-.637.473-1.156 1.121-1.566 1.937-.41.805-.711 1.801-.906 2.996-.18 1.195-.27 2.629-.27 4.301 0 1.684.09 3.133.27 4.348.195 1.211.496 2.227.906 3.043.41.805.93 1.449 1.566 1.941.656.473 1.445.844 2.379 1.105.93.246 2.008.41 3.234.492l4.188.098 4.731-.172c1.34-.117 2.473-.32 3.402-.613s1.684-.707 2.258-1.23c.586-.523 1.035-1.187 1.344-1.988.328-.82.543-1.793.641-2.922.113-1.148.168-2.488.168-4.027l-.168-4.031c-.098-1.145-.312-2.125-.641-2.945-.309-.82-.758-1.488-1.344-2.016-.574-.523-1.324-.941-2.258-1.25s-2.062-.523-3.402-.641l-4.731-.172zm39.199 12.258c-2.219 0-4.172-.035-5.856-.098s-3.133-.199-4.359-.395c-1.207-.215-2.223-.508-3.039-.883-.801-.379-1.437-.879-1.91-1.5-.473-.637-.809-1.418-1.004-2.332a14.76 14.76 0 0 1-.293-3.023c0-1.473.309-2.707.93-3.707.621-1.016 1.617-1.832 2.988-2.457 1.371-.637 3.152-1.098 5.34-1.375s4.852-.418 7.988-.418c3.106 0 5.66.164 7.668.492 2.027.328 3.629.836 4.805 1.523 1.191.672 2.023 1.523 2.496 2.555s.711 2.258.711 3.684h-4.703c0-.883-.172-1.605-.516-2.16-.324-.559-.906-.992-1.738-1.305-.832-.324-1.961-.547-3.383-.66-1.402-.133-3.184-.199-5.34-.199l-5.93.098c-1.598.066-2.891.23-3.871.492s-1.68.664-2.106 1.203-.637 1.285-.637 2.234c0 .559.031 1.105.098 1.648.082.523.254.957.516 1.301s.645.605 1.152.785 1.191.32 2.055.418l3.262.148h4.676l5.832.145c1.684.102 3.137.273 4.363.516s2.234.625 3.035 1.133 1.438 1.063 1.914 1.668c.488.59.832 1.293 1.027 2.113.195.801.293 1.734.293 2.801s-.098 2.019-.293 2.871c-.195.836-.539 1.582-1.027 2.234-.492.641-1.16 1.195-2.012 1.672-.832.457-1.887.836-3.16 1.129-1.273.277-2.801.484-4.582.613l-6.172.223c-2.941 0-5.414-.148-7.426-.441-1.992-.297-3.602-.762-4.824-1.402-1.227-.652-2.109-1.496-2.648-2.527-.52-1.031-.781-2.293-.781-3.781h4.703c0 .98.164 1.781.488 2.406.344.605.934 1.078 1.766 1.422s1.953.582 3.356.715l5.367.172 4.996-.125c1.391-.098 2.551-.246 3.481-.441s1.664-.434 2.203-.711.949-.613 1.227-1.008.449-.828.516-1.301c.082-.492.121-1.031.121-1.621 0-.539-.039-1.016-.121-1.426-.066-.426-.23-.844-.492-1.25-.262-.426-.645-.746-1.152-.961s-1.199-.383-2.082-.516c-.863-.145-1.941-.246-3.234-.293l-4.68-.098zm39.203 13.434c-3.137 0-5.801-.215-7.988-.641-2.187-.441-3.969-1.195-5.34-2.258s-2.371-2.488-2.988-4.273-.934-4.027-.934-6.73c0-3.094.313-5.648.934-7.66.617-2.031 1.617-3.645 2.988-4.84s3.152-2.031 5.34-2.504 4.852-.715 7.988-.715c2.238 0 4.172.164 5.805.492 1.652.328 3.055.801 4.215 1.426 1.176.621 2.125 1.375 2.844 2.258.734.887 1.305 1.816 1.715 2.801.422.965.707 2.105.855 3.414.164 1.309.246 2.691.246 4.148l-.395 1.574h-27.832c0 2.16.215 3.938.641 5.328.422 1.375 1.125 2.383 2.106 3.023s2.269 1.047 3.871 1.227c1.602.164 3.578.246 5.93.246l5.34-.172c1.422-.133 2.547-.371 3.383-.715s1.41-.816 1.738-1.422c.344-.625.516-1.426.516-2.406h4.703c0 1.52-.27 2.824-.809 3.902-.523 1.066-1.398 1.934-2.621 2.605-1.227.652-2.844 1.129-4.852 1.422-1.992.313-4.461.469-7.398.469zm0-25.691l-4.215.098c-1.227.066-2.305.215-3.234.445-.914.211-1.699.531-2.352.957-.652.41-1.184.898-1.594 1.473-.391.559-.684 1.352-.883 2.383-.18 1.016-.27 2.242-.27 3.684h23.523c0-1.914-.207-3.414-.613-4.496-.41-1.094-1.055-1.996-1.937-2.699s-2.016-1.187-3.402-1.449-3.066-.395-5.023-.395zM239.171.786h28.273c2.336 0 4.305.105 5.902.32 1.617.195 2.949.5 3.996.91s1.844.914 2.398 1.52a5.5 5.5 0 0 1 1.25 2.137c.262.82.41 1.738.441 2.754l.074 3.363-.098 3.535c-.051 1.082-.238 2.063-.562 2.949-.312.867-.816 1.637-1.519 2.309-.687.652-1.676 1.203-2.965 1.645-1.273.441-2.898.777-4.875 1.008-1.961.227-4.379.344-7.254.344h-20.359v14.934h-4.703zm4.703 18.863h20.359l5.269-.098c1.438-.082 2.621-.223 3.551-.418s1.648-.477 2.156-.836.875-.836 1.102-1.426c.246-.586.383-1.293.418-2.109l.074-2.973-.074-2.75c-.035-.77-.172-1.418-.418-1.941-.227-.523-.594-.941-1.102-1.254s-1.227-.547-2.156-.711c-.93-.18-2.113-.293-3.551-.344l-5.269-.074h-20.359zM287.78.786h4.703v37.727h-4.703zm40.645 33.844c-.051.195-.418.688-1.102 1.473-.492.59-1.144 1.113-1.961 1.574-.816.441-1.91.785-3.285 1.031-1.356.262-3.141.391-5.363.391-2.957 0-5.481-.152-7.57-.465-2.09-.293-3.797-.754-5.121-1.375-1.324-.641-2.297-1.449-2.914-2.434-.605-.98-.906-2.152-.906-3.512 0-1.422.16-2.625.488-3.609.344-1 .832-1.832 1.469-2.504a6.97 6.97 0 0 1 2.352-1.574c.918-.375 1.953-.66 3.113-.859 1.176-.195 2.457-.316 3.848-.367l4.434-.074c2.238 0 4.109.098 5.609.297 1.504.18 2.731.418 3.676.711.965.277 1.691.582 2.18.91s.844.629 1.055.906c0-1.832-.082-3.398-.246-4.691-.145-1.293-.398-2.371-.758-3.242-.344-.867-.793-1.555-1.348-2.062-.555-.523-1.242-.914-2.059-1.18-.801-.262-1.738-.422-2.816-.488l-3.699-.125-5.367.172c-1.422.098-2.547.305-3.383.613s-1.418.746-1.762 1.305c-.344.539-.516 1.25-.516 2.137h-4.703c0-1.492.262-2.75.785-3.785.539-1.031 1.418-1.863 2.644-2.504 1.242-.652 2.867-1.129 4.875-1.426s4.484-.441 7.426-.441c2.871 0 5.309.238 7.301.715s3.602 1.309 4.824 2.504c1.242 1.195 2.133 2.809 2.672 4.84.555 2.012.832 4.566.832 7.66v13.363h-4.703zm-10.926.738c2.074 0 3.805-.098 5.191-.297 1.406-.195 2.531-.488 3.383-.883s1.453-.883 1.813-1.473.539-1.277.539-2.062-.211-1.449-.637-1.992c-.41-.555-1.102-1.004-2.082-1.352-.965-.344-2.246-.586-3.848-.734-1.602-.164-3.578-.246-5.93-.246l-5.707.121c-1.437.082-2.551.273-3.332.566s-1.316.73-1.594 1.301c-.262.574-.391 1.352-.391 2.336s.137 1.781.414 2.406c.297.605.883 1.078 1.766 1.422s2.148.582 3.797.715l6.617.172zm38.391-9.75c-2.223 0-4.172-.035-5.856-.098s-3.137-.199-4.359-.395c-1.211-.215-2.223-.508-3.039-.883-.801-.379-1.437-.879-1.914-1.5-.473-.637-.809-1.418-1.004-2.332a14.76 14.76 0 0 1-.293-3.023c0-1.473.309-2.707.93-3.707.621-1.016 1.617-1.832 2.992-2.457 1.371-.637 3.152-1.098 5.34-1.375s4.852-.418 7.988-.418c3.102 0 5.656.164 7.668.492 2.023.328 3.625.836 4.801 1.523 1.191.672 2.027 1.523 2.5 2.555s.711 2.258.711 3.684h-4.707c0-.883-.168-1.605-.512-2.16-.328-.559-.906-.992-1.742-1.305-.832-.324-1.957-.547-3.379-.66-1.406-.133-3.184-.199-5.34-.199l-5.93.098c-1.602.066-2.891.23-3.871.492s-1.684.664-2.109 1.203-.637 1.285-.637 2.234c0 .559.035 1.105.098 1.648.082.523.254.957.516 1.301s.645.605 1.152.785 1.191.32 2.059.418l3.258.148h4.68l5.832.145c1.68.102 3.133.273 4.359.516s2.238.625 3.039 1.133 1.438 1.063 1.91 1.668c.492.59.832 1.293 1.027 2.113.199.801.297 1.734.297 2.801s-.098 2.02-.297 2.871c-.195.836-.535 1.582-1.027 2.234-.488.641-1.16 1.195-2.008 1.672-.836.457-1.887.836-3.16 1.129-1.277.277-2.805.484-4.582.613l-6.176.223c-2.937 0-5.414-.148-7.422-.441-1.992-.297-3.602-.762-4.828-1.402-1.227-.652-2.106-1.496-2.644-2.527-.523-1.031-.785-2.293-.785-3.781h4.703c0 .98.164 1.781.492 2.406.344.605.93 1.078 1.762 1.422s1.953.582 3.359.715l5.363.172 5-.125c1.387-.098 2.547-.246 3.477-.441s1.668-.434 2.207-.711.945-.613 1.223-1.008.449-.828.516-1.301c.082-.492.121-1.031.121-1.621 0-.539-.039-1.016-.121-1.426-.066-.426-.227-.844-.488-1.25-.262-.426-.645-.746-1.152-.961s-1.199-.383-2.082-.516c-.867-.145-1.945-.246-3.234-.293l-4.68-.098zm52.527 12.895h-4.703V22.548c0-1.703-.113-3.137-.344-4.301-.211-1.176-.66-2.125-1.348-2.848-.668-.719-1.625-1.234-2.867-1.547-1.223-.328-2.84-.492-4.852-.492-2.203 0-4.016.191-5.437.566-1.422.359-2.539.875-3.356 1.547-.816.656-1.391 1.449-1.715 2.383-.312.934-.465 1.973-.465 3.117v17.539h-4.707V10.22h4.707v4.469c.016-.051.09-.215.219-.492s.359-.605.688-.98c.34-.395.801-.812 1.371-1.254.586-.441 1.34-.852 2.254-1.227.93-.379 2.051-.687 3.356-.934s2.859-.371 4.656-.371c1.762 0 3.289.117 4.582.344 1.305.215 2.418.543 3.332.984.93.426 1.68.965 2.254 1.621a7.3 7.3 0 0 1 1.394 2.211c.277-.445.711-.961 1.301-1.547s1.402-1.156 2.449-1.695c1.063-.543 2.383-.992 3.969-1.352 1.586-.375 3.519-.566 5.805-.566 1.879 0 3.488.133 4.828.395 1.356.246 2.5.621 3.43 1.129.934.492 1.676 1.105 2.231 1.844.57.734 1.004 1.594 1.297 2.578.313.965.516 2.055.613 3.266l.148 3.906v15.965H428.8V22.548c0-1.703-.113-3.137-.34-4.301-.215-1.176-.664-2.125-1.348-2.848-.672-.719-1.625-1.234-2.867-1.547-1.227-.328-2.844-.492-4.852-.492-2.203 0-4.019.191-5.437.566-1.422.359-2.539.875-3.359 1.547-.816.656-1.387 1.449-1.715 2.383-.309.934-.465 1.973-.465 3.117zm59.461-3.883c-.047.195-.414.688-1.102 1.473-.488.59-1.141 1.113-1.957 1.574-.82.441-1.914.785-3.285 1.031-1.356.262-3.144.391-5.367.391-2.953 0-5.477-.152-7.57-.465-2.09-.293-3.797-.754-5.117-1.375-1.324-.641-2.297-1.449-2.918-2.434-.605-.98-.906-2.152-.906-3.512 0-1.422.164-2.625.492-3.609.34-1 .832-1.832 1.469-2.504.652-.672 1.438-1.195 2.352-1.574s1.953-.66 3.113-.859c1.176-.195 2.457-.316 3.844-.367l4.434-.074c2.238 0 4.109.098 5.613.297 1.5.18 2.727.418 3.676.711.961.277 1.688.582 2.18.91s.84.629 1.051.906c0-1.832-.078-3.398-.242-4.691-.148-1.293-.402-2.371-.762-3.242-.34-.867-.793-1.555-1.348-2.062-.555-.523-1.238-.914-2.059-1.18-.797-.262-1.738-.422-2.816-.488l-3.699-.125-5.363.172c-1.422.098-2.551.305-3.383.613s-1.422.746-1.766 1.305c-.34.539-.512 1.25-.512 2.137h-4.707c0-1.492.262-2.75.785-3.785.539-1.031 1.422-1.863 2.648-2.504 1.238-.652 2.863-1.129 4.875-1.426s4.484-.441 7.422-.441c2.875 0 5.309.238 7.301.715s3.602 1.309 4.828 2.504c1.242 1.195 2.129 2.809 2.668 4.84.559 2.012.836 4.566.836 7.66v13.363h-4.707zm-10.926.738c2.074 0 3.805-.098 5.195-.297 1.402-.195 2.531-.488 3.379-.883s1.453-.883 1.816-1.473c.355-.59.535-1.277.535-2.062s-.211-1.449-.637-1.992c-.406-.555-1.102-1.004-2.082-1.352-.961-.344-2.246-.586-3.844-.734-1.602-.164-3.578-.246-5.93-.246l-5.711.121c-1.437.082-2.547.273-3.332.566s-1.312.73-1.59 1.301c-.262.574-.395 1.352-.395 2.336s.141 1.781.418 2.406c.293.605.883 1.078 1.762 1.422s2.148.582 3.801.715l6.613.172zm31.336-21.566v24.711h-4.703V13.803h-4.703v-3.582h4.703v-.246c0-1.918.211-3.512.637-4.789s1.129-2.301 2.106-3.07 2.273-1.312 3.871-1.621c1.617-.328 3.602-.492 5.953-.492h5.465v3.93h-5.488l-3.723.098c-.996.066-1.805.285-2.426.664-.605.375-1.039.973-1.301 1.793s-.391 1.98-.391 3.488v.246h13.328v3.582zm15.68 10.367c0-2.898.313-5.297.934-7.195s1.617-3.406 2.988-4.52 3.152-1.891 5.34-2.336c2.188-.457 4.852-.687 7.988-.687s5.797.23 7.984.688c2.191.445 3.973 1.223 5.344 2.336s2.367 2.617 2.988 4.52.93 4.297.93 7.195-.309 5.305-.93 7.219-1.617 3.438-2.988 4.57-3.152 1.93-5.344 2.406c-2.187.457-4.848.688-7.984.688s-5.801-.23-7.988-.687c-2.187-.477-3.969-1.277-5.34-2.406s-2.371-2.652-2.988-4.57-.934-4.32-.934-7.219zm4.703 0l.172 4.102c.117 1.16.328 2.16.637 2.996.328.836.777 1.512 1.348 2.039s1.324.941 2.254 1.25 2.059.523 3.383.641l4.754.172 4.188-.098c1.242-.082 2.32-.254 3.234-.516.934-.262 1.723-.633 2.379-1.105.652-.492 1.176-1.156 1.566-1.992.406-.832.703-1.855.883-3.07.195-1.227.293-2.699.293-4.418 0-1.687-.098-3.121-.293-4.301-.18-1.195-.477-2.191-.883-2.996-.391-.801-.914-1.43-1.566-1.891-.656-.473-1.445-.824-2.379-1.055-.914-.246-1.992-.402-3.234-.469l-4.187-.098-4.215.098c-1.227.066-2.305.223-3.234.469-.914.23-1.699.582-2.352 1.055-.652.461-1.184 1.09-1.594 1.891-.391.805-.684 1.801-.883 2.996-.18 1.18-.27 2.613-.27 4.301zm61.059 14.344l-11.32-11.84-11.32 11.84h-6.273l14.457-14.395-13.77-13.898h6.273l10.754 10.926 10.512-10.926h6.269l-13.766 13.875L576 38.514z" fill="url(#B)"/></g></svg>