<svg xmlns="http://www.w3.org/2000/svg" width="364" height="42"><defs><filter id="A" color-interpolation-filters="sRGB"><feColorMatrix type="hueRotate" values="315"/></filter><linearGradient id="B" x1="180.733" x2="180.733" y1="-3.304" y2="55.678" gradientUnits="userSpaceOnUse"><stop stop-color="#e7523e" offset="0"/><stop stop-color="#ad110d" offset="1"/></linearGradient></defs><g filter="url(#A)"><path d="M0 .844h30.551c2.523 0 4.652.113 6.383.344 1.746.211 3.184.535 4.316.977s1.992.984 2.594 1.633c.617.652 1.066 1.414 1.348 2.293s.441 1.863.477 2.953l.082 3.613-.105 3.797c-.055 1.16-.258 2.215-.609 3.164a6.35 6.35 0 0 1-1.645 2.48c-.738.703-1.809 1.289-3.203 1.766-1.375.473-3.133.836-5.266 1.082-2.121.246-4.73.367-7.84.367h-22v16.031H0zm5.082 20.25h22l5.695-.105c1.551-.086 2.832-.238 3.836-.449s1.785-.508 2.332-.895a3.3 3.3 0 0 0 1.191-1.531c.266-.633.414-1.387.449-2.266l.078-3.191-.078-2.953c-.035-.824-.184-1.52-.449-2.082-.246-.562-.645-1.012-1.191-1.344s-1.324-.59-2.332-.766c-1.004-.195-2.285-.316-3.836-.371l-5.695-.078h-22zM52.527.844h5.082v40.5h-5.082zM96.449 37.18c-.055.211-.449.738-1.191 1.582-.531.633-1.234 1.195-2.117 1.688-.883.473-2.066.844-3.551 1.105-1.465.281-3.394.422-5.797.422-3.195 0-5.922-.168-8.18-.5-2.262-.316-4.106-.809-5.535-1.477-1.43-.687-2.481-1.555-3.148-2.609-.652-1.055-.98-2.312-.98-3.773 0-1.527.176-2.82.531-3.875.367-1.07.898-1.969 1.586-2.687.707-.723 1.555-1.285 2.543-1.687s2.109-.715 3.363-.926c1.269-.211 2.656-.34 4.156-.395l4.789-.078c2.418 0 4.441.105 6.066.316 1.621.191 2.945.449 3.969.766 1.043.297 1.828.621 2.356.973s.91.68 1.141.977c0-1.969-.09-3.648-.266-5.035-.16-1.391-.434-2.551-.82-3.48-.371-.934-.855-1.672-1.457-2.215-.602-.562-1.34-.984-2.223-1.266-.867-.281-1.879-.457-3.047-.527l-3.996-.133-5.797.184c-1.535.105-2.754.328-3.656.66s-1.535.801-1.906 1.398c-.367.578-.555 1.344-.555 2.293h-5.082c0-1.598.281-2.953.848-4.059.582-1.109 1.535-2.004 2.859-2.691 1.34-.703 3.098-1.211 5.266-1.527s4.848-.477 8.023-.477c3.106 0 5.734.254 7.891.766s3.891 1.406 5.215 2.688c1.34 1.285 2.305 3.016 2.887 5.195.598 2.164.898 4.906.898 8.227v14.344h-5.082zm-11.809.789c2.242 0 4.113-.105 5.613-.316 1.516-.211 2.734-.527 3.652-.949s1.57-.949 1.961-1.582.582-1.371.582-2.215-.23-1.555-.687-2.137c-.441-.598-1.191-1.078-2.254-1.449-1.039-.367-2.426-.633-4.156-.789-1.727-.176-3.863-.266-6.406-.266l-6.168.133c-1.555.086-2.754.289-3.602.605s-1.418.781-1.719 1.398c-.285.613-.426 1.449-.426 2.504s.152 1.918.453 2.586c.316.648.953 1.16 1.906 1.527s2.32.625 4.102.766l7.148.184zM126.124 27.5a165.9 165.9 0 0 1-6.324-.105c-1.82-.07-3.391-.211-4.715-.422-1.305-.227-2.398-.543-3.281-.949-.867-.402-1.555-.937-2.066-1.605-.512-.687-.871-1.523-1.086-2.508-.211-1-.316-2.082-.316-3.242 0-1.582.336-2.91 1.004-3.98.672-1.09 1.75-1.969 3.231-2.637 1.484-.687 3.406-1.18 5.773-1.477s5.242-.449 8.629-.449c3.356 0 6.117.176 8.289.527 2.188.352 3.918.898 5.188 1.637 1.289.719 2.188 1.633 2.699 2.742s.77 2.426.77 3.953h-5.082c0-.949-.187-1.723-.559-2.32-.352-.598-.977-1.062-1.879-1.398-.898-.352-2.117-.586-3.652-.711-1.519-.141-3.441-.211-5.773-.211l-6.406.105c-1.731.07-3.125.246-4.184.527s-1.816.711-2.277 1.293-.687 1.379-.687 2.398c0 .598.035 1.188.105 1.766.09.563.273 1.031.559 1.398s.695.652 1.242.844 1.289.344 2.223.449l3.523.156h5.055l6.305.16c1.816.105 3.387.289 4.711.555s2.418.668 3.281 1.211 1.555 1.145 2.066 1.793c.531.633.898 1.391 1.113 2.27.211.859.316 1.863.316 3.004s-.105 2.172-.316 3.086c-.215.895-.582 1.695-1.113 2.398-.527.688-1.254 1.285-2.172 1.793-.898.492-2.039.898-3.414 1.215-1.375.297-3.027.516-4.953.656l-6.668.238c-3.18 0-5.852-.156-8.023-.473-2.152-.316-3.891-.82-5.215-1.504-1.324-.703-2.277-1.609-2.859-2.715-.566-1.109-.848-2.461-.848-4.062h5.082c0 1.055.176 1.918.531 2.586.371.648 1.004 1.16 1.906 1.527s2.109.625 3.625.766l5.801.184 5.398-.133c1.5-.105 2.754-.262 3.762-.473s1.797-.465 2.383-.766 1.023-.66 1.324-1.082.484-.887.555-1.395c.086-.527.133-1.109.133-1.742 0-.578-.047-1.09-.133-1.527-.07-.457-.246-.906-.531-1.348-.281-.457-.695-.797-1.242-1.027s-1.297-.414-2.25-.555c-.937-.156-2.102-.262-3.496-.316l-5.059-.105zm56.766 13.844h-5.086V24.207c0-1.828-.121-3.367-.371-4.617-.227-1.266-.715-2.285-1.453-3.059-.727-.773-1.758-1.324-3.098-1.66-1.324-.352-3.074-.527-5.242-.527-2.383 0-4.344.203-5.879.605-1.535.387-2.742.941-3.625 1.664-.883.703-1.5 1.555-1.856 2.555-.336 1.004-.504 2.121-.504 3.352v18.824h-5.082V10.968h5.082v4.801c.02-.055.098-.23.238-.527s.391-.652.742-1.055c.371-.422.867-.871 1.484-1.348.633-.473 1.445-.914 2.434-1.316 1.008-.406 2.215-.738 3.629-1.004s3.086-.395 5.031-.395c1.906 0 3.555.125 4.949.371 1.414.227 2.613.578 3.602 1.055 1.004.457 1.816 1.035 2.434 1.738.637.688 1.141 1.477 1.512 2.375.297-.477.766-1.031 1.402-1.664s1.516-1.238 2.648-1.816c1.144-.582 2.574-1.066 4.289-1.453 1.711-.402 3.801-.605 6.273-.605 2.027 0 3.769.141 5.215.422 1.465.266 2.699.668 3.707 1.215 1.004.527 1.809 1.184 2.41 1.977.617.789 1.082 1.715 1.402 2.77.336 1.035.555 2.203.66 3.504l.16 4.195v17.137h-5.082V24.207c0-1.828-.125-3.367-.371-4.617-.23-1.266-.715-2.285-1.457-3.059-.723-.773-1.758-1.324-3.098-1.66-1.324-.352-3.07-.527-5.242-.527-2.383 0-4.34.203-5.879.605-1.535.387-2.742.941-3.625 1.664-.883.703-1.5 1.555-1.856 2.555-.332 1.004-.5 2.121-.5 3.352zm64.254-4.164c-.055.211-.449.738-1.191 1.582-.531.633-1.234 1.195-2.117 1.688-.883.473-2.066.844-3.547 1.105-1.465.281-3.398.422-5.801.422-3.195 0-5.922-.168-8.18-.5-2.258-.316-4.106-.809-5.535-1.477-1.43-.687-2.477-1.555-3.148-2.609-.652-1.055-.98-2.312-.98-3.773 0-1.527.176-2.82.531-3.875.371-1.07.898-1.969 1.586-2.687.707-.723 1.555-1.285 2.543-1.687s2.109-.715 3.363-.926c1.269-.211 2.656-.34 4.156-.395l4.793-.078c2.418 0 4.438.105 6.063.316 1.621.191 2.945.449 3.969.766 1.043.297 1.828.621 2.356.973s.91.68 1.141.977c0-1.969-.09-3.648-.266-5.035-.16-1.391-.434-2.551-.82-3.48-.371-.934-.855-1.672-1.457-2.215-.598-.562-1.34-.984-2.223-1.266-.863-.281-1.879-.457-3.047-.527l-3.996-.133-5.797.184c-1.535.105-2.754.328-3.656.66s-1.535.801-1.902 1.398c-.371.578-.559 1.344-.559 2.293h-5.082c0-1.598.281-2.953.848-4.059.582-1.109 1.535-2.004 2.859-2.691 1.34-.703 3.098-1.211 5.266-1.527s4.848-.477 8.023-.477c3.106 0 5.738.254 7.891.766s3.891 1.406 5.215 2.688c1.34 1.285 2.305 3.016 2.887 5.195.598 2.164.898 4.906.898 8.227v14.344h-5.082zm-11.809.789c2.242 0 4.113-.105 5.613-.316 1.516-.211 2.734-.527 3.652-.949s1.57-.949 1.961-1.582.582-1.371.582-2.215-.23-1.555-.687-2.137c-.441-.598-1.191-1.078-2.25-1.449-1.043-.367-2.43-.633-4.16-.789-1.727-.176-3.863-.266-6.406-.266l-6.168.133c-1.551.086-2.754.289-3.602.605s-1.418.781-1.719 1.398c-.281.613-.426 1.449-.426 2.504s.152 1.918.453 2.586c.316.648.953 1.16 1.906 1.527s2.32.625 4.102.766l7.148.184zm33.863-23.148v26.523h-5.086V14.821h-5.082v-3.852h5.082v-.262c0-2.059.23-3.773.691-5.144s1.215-2.469 2.277-3.293 2.453-1.406 4.18-1.742c1.75-.352 3.894-.527 6.434-.527h5.906v4.219h-5.934l-4.023.105c-1.074.07-1.949.309-2.621.711-.652.406-1.121 1.047-1.402 1.926s-.422 2.129-.422 3.746v.262H283.6v3.852zm16.941 11.125c0-3.109.336-5.687 1.008-7.727s1.746-3.656 3.231-4.852 3.406-2.027 5.769-2.504c2.367-.492 5.242-.738 8.633-.738s6.266.246 8.629.738c2.367.477 4.289 1.309 5.773 2.504s2.559 2.813 3.231 4.852 1.004 4.617 1.004 7.727-.336 5.695-1.004 7.754-1.75 3.691-3.231 4.902-3.406 2.074-5.773 2.586c-2.363.492-5.242.738-8.629.738s-6.266-.246-8.633-.738c-2.363-.512-4.289-1.371-5.769-2.586s-2.562-2.848-3.231-4.902-1.008-4.641-1.008-7.754zm5.086 0l.184 4.402c.125 1.25.352 2.32.688 3.219.355.895.84 1.625 1.457 2.188s1.43 1.012 2.438 1.344 2.223.563 3.652.688l5.137.184 4.527-.105c1.34-.086 2.504-.273 3.492-.555 1.008-.281 1.863-.676 2.57-1.184.707-.527 1.269-1.242 1.691-2.137.445-.898.762-1.996.957-3.297.211-1.316.316-2.898.316-4.746 0-1.809-.105-3.348-.316-4.613-.195-1.285-.512-2.355-.957-3.219-.422-.859-.984-1.535-1.691-2.027-.707-.512-1.562-.891-2.57-1.137-.988-.262-2.152-.43-3.492-.5l-4.527-.105-4.555.105c-1.324.07-2.488.238-3.496.5-.988.246-1.836.625-2.539 1.137-.707.492-1.281 1.168-1.723 2.027-.422.863-.742 1.934-.953 3.219-.191 1.266-.289 2.805-.289 4.613zm65.973 15.398l-12.23-12.707-12.23 12.707h-6.777l15.621-15.449-14.879-14.926h6.777l11.621 11.734 11.359-11.734h6.777l-14.879 14.898 15.617 15.477z" fill="url(#B)"/></g></svg>