<?xml version="1.0" encoding="UTF-8" standalone="no"?>
<svg
   width="16"
   height="16"
   viewBox="0 0 16 16"
   version="1.1"
   id="svg1"
   xml:space="preserve"
   xmlns="http://www.w3.org/2000/svg"
   xmlns:svg="http://www.w3.org/2000/svg"
   fill="context-fill"
   fill-opacity="context-fill-opacity"><defs
     id="defs1" /><g
     id="g27"
     transform="translate(-95.002767,-238.87424)"><path
       id="path26"
       d="m 96.625679,239.87424 a 0.625,0.625 0 0 0 -0.625,0.625 0.625,0.625 0 0 0 0.625,0.625 h 0.626953 c 0.422091,-7e-5 0.751953,0.32791 0.751953,0.75 v 11.37109 a 0.625,0.625 0 0 0 0.625,0.625 0.625,0.625 0 0 0 0.624997,-0.625 v -1.35547 h 8.749998 c 1.095,0 1.99494,-0.90304 1.99219,-1.99804 l -0.0117,-5.01953 c -0.003,-1.09501 -0.90499,-1.99414 -2,-1.99414 h -8.730468 v -1.00391 c 0,-1.09772 -0.904231,-2.00019 -2.00195,-2 z m 2.628903,4.25391 h 8.730468 c 0.42057,0 0.74894,0.32747 0.75,0.74804 l 0.0117,5.01953 c 10e-4,0.41835 -0.32385,0.74415 -0.74219,0.74414 h -8.749998 z m 3.246088,1.74609 a 1.4999924,1.4999924 0 0 0 -1.5,1.5 1.4999924,1.4999924 0 0 0 1.5,1.5 1.4999924,1.4999924 0 0 0 1.5,-1.5 1.4999924,1.4999924 0 0 0 -1.5,-1.5 z" /></g></svg>
