<?xml version="1.0" encoding="UTF-8" standalone="no"?>
<svg
   width="16"
   height="16"
   viewBox="0 0 16 16"
   version="1.1"
   id="svg1"
   xml:space="preserve"
   xmlns="http://www.w3.org/2000/svg"
   xmlns:svg="http://www.w3.org/2000/svg"
   fill="context-fill"
   fill-opacity="context-fill-opacity"><defs
     id="defs1" /><g
     id="g30"
     transform="translate(-95.002999,-238.87424)"><path
       id="path30"
       style="stroke-linecap:round;paint-order:stroke fill markers"
       d="m 95.604562,238.87619 c -0.463094,0.0319 -0.839908,0.6221 -0.419922,1.06446 l 1,1 1.820312,1.82031 v 10.48437 a 0.625,0.625 0 0 0 0.625,0.625 0.625,0.625 0 0 0 0.625,-0.625 v -1.35547 h 7.878908 l 2.80078,2.80079 c 0.24466,0.24372 0.6401,0.24372 0.88477,0 0.24415,-0.24409 0.24415,-0.64068 0,-0.88477 l -2.0625,-2.06445 -1.10157,-1.10157 h -0.002 l -3.72656,-3.72656 v -0.002 l -0.96289,-0.96289 h -0.002 l -1.82031,-1.82031 -1.249999,-1.25 -0.636719,-0.63672 -2.367187,-2.36719 -0.462891,-0.46289 -0.355469,-0.35547 c -0.147451,-0.13999 -0.31048,-0.19033 -0.464843,-0.17969 z m 6.056638,4.00196 1.25,1.25 h 5.07422 c 0.42057,0 0.74894,0.32747 0.75,0.74804 l 0.0117,5.01953 c 5e-5,0.0215 -0.004,0.0416 -0.006,0.0625 l 0.96289,0.96289 c 0.18374,-0.30216 0.29391,-0.65288 0.29297,-1.02929 l -0.0117,-5.01953 c -0.003,-1.09501 -0.90499,-1.99414 -2,-1.99414 z m -2.406248,1.25 h 0.117188 l 2.13867,2.14062 a 1.4999924,1.4999924 0 0 0 -0.50976,1.10547 1.4999924,1.4999924 0 0 0 1.5,1.5 1.4999924,1.4999924 0 0 0 1.11718,-0.5 l 2.26563,2.26562 h -6.628908 z" /></g></svg>
