<svg xmlns="http://www.w3.org/2000/svg" width="455" height="48"><defs><linearGradient id="A" gradientUnits="userSpaceOnUse" x1="226.366" y1="-3.067" x2="226.366" y2="51.872"><stop offset="0" stop-color="rgb(90.588235%,32.156863%,24.705882%)"/><stop offset="1" stop-color="rgb(67.843137%,6.666667%,5.490196%)"/></linearGradient></defs><path d="M.043 38.52V.797h37.652v3.93H4.75v12.574h31.379v3.93H4.75V34.59h32.945v3.93zm41.578-14.098c0-1.965.098-3.699.293-5.207s.539-2.816 1.031-3.93c.504-1.113 1.176-2.035 2.008-2.773.852-.754 1.914-1.359 3.188-1.816 1.293-.461 2.82-.789 4.586-.984s3.824-.293 6.176-.293c3.137 0 5.719.195 7.746.59 2.027.375 3.629.965 4.805 1.766 1.18.785 1.996 1.793 2.453 3.023.457 1.211.688 2.66.688 4.344h-4.707l-.051-1.691c-.031-.523-.156-1-.367-1.426-.195-.426-.516-.801-.957-1.129-.441-.344-1.07-.633-1.887-.859s-1.855-.402-3.113-.516c-1.242-.117-2.777-.172-4.609-.172l-5.293.219c-1.422.148-2.602.395-3.531.738-.934.328-1.652.777-2.156 1.352-.508.555-.875 1.242-1.105 2.063s-.367 1.785-.418 2.898l-.047 3.805.047 3.758c.051 1.082.191 2.031.418 2.852.23.801.598 1.48 1.105 2.035s1.223 1.008 2.156 1.352 2.109.59 3.531.738c1.438.148 3.203.219 5.293.219l4.609-.195c1.258-.129 2.297-.32 3.113-.566s1.445-.547 1.887-.906.762-.77.957-1.23c.211-.473.336-.988.367-1.547l.051-1.84h4.707c0 1.719-.23 3.207-.687 4.469s-1.273 2.301-2.453 3.121c-1.176.801-2.777 1.398-4.805 1.793s-4.609.586-7.746.586c-2.352 0-4.414-.098-6.176-.293s-3.293-.516-4.586-.957c-1.273-.461-2.336-1.059-3.187-1.793a8.25 8.25 0 0 1-2.008-2.727c-.492-1.082-.836-2.352-1.031-3.809-.195-1.473-.293-3.16-.293-5.059zM82.461.797h4.707V38.52h-4.707zm14.121 9.43h4.707V38.52h-4.707zm4.707-4.715h-4.707V.797h4.707zm25.102 3.93c3.141 0 5.805.238 7.992.711s3.973 1.285 5.348 2.434 2.367 2.684 2.988 4.617c.621 1.914.934 4.32.934 7.219 0 2.852-.312 5.215-.934 7.098s-1.617 3.383-2.988 4.496-3.156 1.898-5.348 2.355-4.852.688-7.992.688c-2.238 0-4.109-.121-5.613-.367s-2.738-.547-3.699-.906c-.949-.379-1.676-.781-2.184-1.207-.488-.426-.84-.824-1.055-1.203v12.574h-4.707V10.227h4.707v2.629c.215-.328.566-.687 1.055-1.082.508-.41 1.234-.785 2.184-1.129.961-.344 2.195-.629 3.699-.859s3.375-.344 5.613-.344zm0 3.93l-4.191.121c-1.223.082-2.305.254-3.234.516-.934.246-1.723.617-2.379 1.105-.637.477-1.16 1.121-1.57 1.941-.406.801-.711 1.801-.906 2.996-.18 1.195-.27 2.629-.27 4.297 0 1.688.09 3.137.27 4.348.195 1.211.5 2.227.906 3.047.41.801.934 1.449 1.57 1.941.656.473 1.445.84 2.379 1.102.93.246 2.012.41 3.234.492l4.191.098 4.734-.172c1.34-.113 2.477-.316 3.406-.613s1.684-.703 2.254-1.227c.59-.523 1.039-1.187 1.352-1.988.324-.82.539-1.793.637-2.926.113-1.145.172-2.488.172-4.027l-.172-4.027c-.098-1.145-.312-2.129-.637-2.945-.312-.82-.762-1.492-1.352-2.016-.57-.523-1.32-.941-2.254-1.254s-2.066-.523-3.406-.637l-4.734-.172zm39.227 12.254c-2.223 0-4.176-.031-5.859-.098l-4.363-.391c-1.211-.215-2.223-.508-3.039-.887-.805-.375-1.441-.875-1.914-1.496-.473-.641-.809-1.418-1.004-2.336-.195-.934-.297-1.937-.297-3.02 0-1.473.313-2.711.934-3.707.621-1.016 1.617-1.836 2.992-2.457 1.371-.641 3.152-1.098 5.344-1.375s4.852-.418 7.992-.418c3.105 0 5.66.164 7.672.492 2.027.328 3.629.832 4.805 1.523 1.191.668 2.027 1.52 2.5 2.551s.711 2.262.711 3.688h-4.707c0-.887-.172-1.605-.516-2.164-.324-.555-.906-.988-1.738-1.301-.836-.328-1.961-.547-3.383-.664-1.406-.129-3.187-.195-5.344-.195l-5.934.098c-1.602.066-2.895.23-3.875.492s-1.684.664-2.105 1.203-.641 1.285-.641 2.234c0 .559.035 1.105.098 1.645.082.523.254.961.516 1.305s.648.605 1.152.785 1.195.316 2.059.418l3.262.145h4.684l5.832.148c1.684.098 3.141.27 4.367.516s2.238.621 3.039 1.129 1.438 1.066 1.91 1.672c.492.59.836 1.293 1.031 2.113.195.801.293 1.734.293 2.797s-.098 2.023-.293 2.875c-.195.836-.539 1.578-1.031 2.234-.488.641-1.16 1.195-2.008 1.672-.836.457-1.891.832-3.164 1.129-1.273.277-2.801.48-4.586.613l-6.176.223c-2.941 0-5.418-.148-7.43-.445-1.992-.293-3.602-.758-4.828-1.398-1.227-.656-2.109-1.496-2.648-2.531-.523-1.031-.785-2.289-.785-3.781h4.707c0 .984.164 1.785.492 2.406.344.605.93 1.082 1.766 1.426s1.953.582 3.359.711c1.422.117 3.211.172 5.367.172l5-.121c1.391-.098 2.551-.246 3.48-.441s1.668-.434 2.207-.715.949-.613 1.227-1.004a2.94 2.94 0 0 0 .516-1.305c.082-.488.121-1.031.121-1.621 0-.539-.039-1.012-.121-1.422-.066-.426-.23-.844-.492-1.254-.262-.426-.645-.746-1.152-.957s-1.199-.387-2.082-.516c-.867-.148-1.945-.246-3.238-.297l-4.68-.098zm39.223 13.434c-3.137 0-5.801-.211-7.992-.637-2.187-.441-3.969-1.195-5.344-2.258s-2.371-2.492-2.992-4.273-.93-4.031-.93-6.73c0-3.094.309-5.648.93-7.664.621-2.031 1.621-3.641 2.992-4.836s3.156-2.031 5.344-2.508 4.855-.711 7.992-.711c2.238 0 4.176.164 5.809.492 1.652.328 3.059.801 4.219 1.422 1.176.625 2.125 1.375 2.844 2.262.734.883 1.309 1.816 1.715 2.801.426.965.711 2.102.859 3.414a33.37 33.37 0 0 1 .246 4.148l-.395 1.57h-27.848c0 2.164.211 3.941.637 5.332.426 1.375 1.129 2.383 2.109 3.02s2.27 1.047 3.871 1.23c1.602.16 3.582.242 5.934.242l5.344-.172c1.422-.129 2.551-.367 3.383-.711s1.414-.82 1.742-1.426c.344-.621.516-1.422.516-2.406h4.707c0 1.523-.27 2.824-.809 3.906-.523 1.063-1.398 1.934-2.625 2.602-1.227.656-2.844 1.133-4.855 1.426-1.992.313-4.461.465-7.402.465zm0-25.687l-4.215.098c-1.227.066-2.305.215-3.238.441-.914.215-1.699.531-2.352.957-.656.41-1.187.902-1.594 1.477-.395.555-.687 1.352-.883 2.383-.18 1.012-.27 2.242-.27 3.684h23.535c0-1.918-.207-3.414-.613-4.496a6.14 6.14 0 0 0-1.937-2.703c-.883-.703-2.02-1.184-3.406-1.445s-3.066-.395-5.027-.395zm57.27 6.066c0-1.18-.094-2.152-.273-2.922-.16-.785-.562-1.41-1.199-1.867-.637-.477-1.586-.805-2.844-.984-1.242-.195-2.941-.293-5.098-.293-2.109 0-3.824.188-5.148.566-1.324.359-2.363.875-3.113 1.547a5.13 5.13 0 0 0-1.547 2.406c-.262.934-.391 1.973-.391 3.117V38.52h-4.707V10.227h4.707v4.496c.164-.508.465-1.066.906-1.672.441-.621 1.113-1.195 2.012-1.719.898-.539 2.059-.988 3.48-1.352 1.438-.359 3.227-.539 5.367-.539 2.453 0 4.445.223 5.984.664 1.535.426 2.727 1.063 3.578 1.914.867.836 1.445 1.875 1.738 3.121.313 1.242.469 2.676.469 4.297zm40.008-2.137c.781 0 1.469-.066 2.059-.195s1.07-.387 1.445-.762c.391-.395.688-.949.883-1.672s.293-1.668.293-2.848c0-1.309-.098-2.414-.293-3.316s-.523-1.645-.98-2.234-1.078-1.039-1.863-1.352c-.77-.312-1.73-.539-2.895-.687s-2.531-.23-4.117-.246l-5.516-.047-7.281.121c-1.961.066-3.586.203-4.879.418-1.273.195-2.254.473-2.941.836s-1.191.832-1.52 1.422c-.309.574-.5 1.277-.562 2.113l-.074 2.949h-4.707c0-1.984.211-3.652.637-5.012.441-1.359 1.078-2.473 1.914-3.34.848-.883 1.895-1.555 3.137-2.016 1.242-.473 2.672-.809 4.289-1.004 1.633-.215 3.449-.336 5.441-.371l6.547-.047 6.398.121c1.93.066 3.645.23 5.148.492 1.52.262 2.836.645 3.945 1.152s2.027 1.203 2.746 2.09c.738.867 1.277 1.949 1.617 3.242.363 1.293.543 2.855.543 4.691 0 1.176-.082 2.176-.246 2.996-.148.816-.387 1.512-.711 2.086a4.48 4.48 0 0 1-1.203 1.398c-.488.363-1.078.688-1.766.984.688.293 1.277.672 1.766 1.129s.891 1.023 1.203 1.695c.324.656.563 1.434.711 2.332.164.887.246 1.918.246 3.094 0 1.836-.18 3.398-.543 4.691-.34 1.293-.879 2.383-1.617 3.27-.719.867-1.633 1.555-2.746 2.063s-2.426.891-3.945 1.152c-1.504.262-3.219.426-5.148.492l-6.398.121a423.56 423.56 0 0 1-6.547-.047c-1.992-.035-3.809-.164-5.441-.395-1.617-.227-3.047-.59-4.289-1.078-1.242-.508-2.289-1.23-3.137-2.164-.836-.934-1.473-2.121-1.914-3.559-.426-1.441-.637-3.219-.637-5.332h4.707l.098 3.242c.066.902.254 1.672.563 2.309s.809 1.164 1.496 1.574c.688.391 1.668.703 2.941.93 1.293.23 2.918.387 4.879.469l7.281.121 5.516-.023 4.117-.27c1.164-.148 2.125-.375 2.895-.687.785-.312 1.406-.762 1.863-1.352s.785-1.336.98-2.234.293-2.008.293-3.316c0-1.375-.098-2.473-.293-3.289-.195-.836-.492-1.477-.883-1.918-.375-.441-.859-.727-1.445-.859s-1.277-.195-2.059-.195h-17.258v-3.93zm32.16 21.758c-3.137 0-5.801-.227-7.988-.687s-3.973-1.242-5.348-2.355-2.367-2.613-2.988-4.496-.934-4.246-.934-7.098c0-2.945.313-5.387.934-7.316s1.617-3.465 2.988-4.594 3.156-1.926 5.348-2.383 4.852-.687 7.988-.687c2.227 0 4.09.113 5.59.344s2.73.516 3.68.859c.965.344 1.691.719 2.18 1.129.508.395.875.762 1.105 1.105V.797h4.707V38.52h-4.707V34.32l-1.18 1.398c-.684.672-1.445 1.215-2.277 1.621s-2.004.805-3.508 1.18c-1.5.359-3.363.539-5.59.539zm0-3.684l4.195-.098c1.227-.082 2.305-.246 3.234-.492s1.715-.605 2.355-1.078c.652-.492 1.184-1.137 1.59-1.941s.703-1.793.883-2.973c.199-1.195.297-2.625.297-4.297 0-1.734-.098-3.207-.297-4.422-.18-1.227-.473-2.25-.883-3.07-.406-.832-.937-1.488-1.59-1.965-.641-.473-1.422-.832-2.355-1.078-.93-.262-2.008-.426-3.234-.492l-4.195-.098-4.754.172c-1.324.113-2.453.32-3.383.613s-1.691.703-2.281 1.23c-.57.523-1.02 1.191-1.348 2.012-.309.82-.523 1.809-.637 2.973l-.148 4.051.148 4.027c.113 1.133.328 2.105.637 2.926.328.801.777 1.465 1.348 1.988.59.523 1.352.934 2.281 1.227s2.059.5 3.383.613c1.34.117 2.926.172 4.754.172zm32.949-21.562V38.52h-4.707V13.813h-4.707v-3.586h4.707V9.98c0-1.914.215-3.512.637-4.789s1.129-2.301 2.109-3.07S367.539.813 369.141.5c1.617-.324 3.602-.488 5.957-.488h5.465v3.93h-5.488l-3.727.098c-1 .066-1.809.285-2.43.664-.605.375-1.035.973-1.297 1.789s-.395 1.984-.395 3.488v.246h13.336v3.586zm15.691 10.363c0-2.898.309-5.297.93-7.195s1.617-3.406 2.992-4.52 3.152-1.891 5.344-2.332c2.191-.457 4.855-.687 7.992-.687s5.801.23 7.992.688c2.191.441 3.973 1.219 5.344 2.332s2.371 2.621 2.992 4.52.93 4.297.93 7.195-.309 5.305-.93 7.223-1.621 3.438-2.992 4.566-3.152 1.934-5.344 2.406c-2.191.461-4.855.688-7.992.688s-5.801-.227-7.992-.687c-2.191-.473-3.973-1.273-5.344-2.406s-2.371-2.652-2.992-4.566-.93-4.324-.93-7.223zm4.707 0l.172 4.102c.113 1.164.324 2.164.637 2.996.328.836.773 1.516 1.348 2.039s1.324.941 2.254 1.254 2.063.523 3.383.637c1.34.117 2.926.172 4.758.172l4.191-.098c1.242-.082 2.32-.254 3.234-.516.934-.262 1.727-.629 2.379-1.105.656-.488 1.18-1.152 1.57-1.988.406-.836.703-1.859.883-3.07.195-1.227.293-2.703.293-4.422 0-1.684-.098-3.117-.293-4.297-.18-1.195-.477-2.195-.883-2.996-.391-.801-.914-1.434-1.57-1.891-.652-.477-1.445-.828-2.379-1.055-.914-.246-1.992-.402-3.234-.469l-4.191-.098-4.215.098c-1.227.066-2.305.223-3.238.469-.914.227-1.699.578-2.352 1.055-.656.457-1.187 1.09-1.594 1.891-.395.801-.687 1.801-.883 2.996-.18 1.18-.27 2.613-.27 4.297zm61.09 14.344l-11.324-11.836-11.328 11.836h-6.273l14.461-14.391-13.777-13.902h6.277l10.762 10.93 10.516-10.93h6.277l-13.777 13.879 14.465 14.414zm0 0" fill="url(#A)"/></svg>