<svg xmlns="http://www.w3.org/2000/svg" width="232" height="42"><defs><filter id="A" color-interpolation-filters="sRGB"><feColorMatrix type="hueRotate" values="264"/></filter><linearGradient id="B" gradientUnits="userSpaceOnUse" x1="115.573" y1="-3.244" x2="115.573" y2="55.338"><stop offset="0" stop-color="rgb(90.588235%,32.156863%,24.705882%)"/><stop offset="1" stop-color="rgb(67.843137%,6.666667%,5.490196%)"/></linearGradient></defs><g filter="url(#A)"><path d="M25.977 20.754c0-1.258-.094-2.297-.289-3.117-.172-.84-.602-1.504-1.281-1.992-.68-.504-1.691-.855-3.035-1.047-1.328-.211-3.145-.312-5.449-.312-2.25 0-4.082.199-5.496.602-1.414.383-2.523.934-3.324 1.648s-1.355 1.57-1.648 2.566c-.281.996-.422 2.105-.422 3.328v18.672H.004V10.934h5.027v4.789c.176-.539.5-1.133.969-1.777.473-.664 1.188-1.277 2.148-1.836.961-.574 2.199-1.055 3.719-1.441 1.535-.383 3.445-.574 5.73-.574 2.621 0 4.75.234 6.391.707 1.641.453 2.914 1.137 3.82 2.043.926.891 1.547 2 1.859 3.324.332 1.328.496 2.855.496 4.586zm42.727-2.281c.84 0 1.57-.07 2.199-.207s1.145-.41 1.547-.812c.418-.418.73-1.012.941-1.781s.313-1.781.313-3.039c0-1.395-.102-2.574-.312-3.535s-.559-1.754-1.047-2.383-1.152-1.109-1.988-1.441c-.82-.332-1.852-.574-3.09-.73s-2.707-.246-4.398-.262l-5.891-.055-7.777.133c-2.094.07-3.832.219-5.211.445-1.359.207-2.406.504-3.141.891s-1.273.891-1.625 1.52c-.328.609-.531 1.359-.602 2.25l-.078 3.145h-5.027c0-2.113.227-3.895.684-5.344.469-1.449 1.152-2.637 2.039-3.562.91-.941 2.027-1.656 3.352-2.148 1.328-.504 2.855-.863 4.582-1.07 1.746-.23 3.684-.359 5.813-.395l6.992-.051 6.832.129c2.059.07 3.891.246 5.496.523 1.625.281 3.031.691 4.215 1.23s2.168 1.285 2.934 2.227c.785.926 1.363 2.078 1.73 3.457.383 1.379.574 3.047.574 5.004 0 1.254-.086 2.32-.262 3.195-.156.871-.41 1.613-.758 2.223-.332.594-.762 1.094-1.285 1.496-.523.383-1.152.73-1.883 1.047.73.313 1.359.715 1.883 1.203s.953 1.09 1.285 1.809c.348.695.602 1.527.758 2.488.176.941.262 2.043.262 3.297 0 1.957-.191 3.625-.574 5.004-.367 1.379-.945 2.539-1.73 3.484-.766.922-1.746 1.656-2.934 2.199s-2.59.949-4.215 1.23c-1.605.277-3.437.453-5.496.523l-6.832.129a430.25 430.25 0 0 1-6.992-.051c-2.129-.035-4.066-.176-5.812-.418-1.727-.246-3.254-.629-4.582-1.152-1.324-.543-2.441-1.312-3.352-2.305-.887-.996-1.57-2.262-2.039-3.797-.457-1.539-.684-3.434-.684-5.684h5.027l.105 3.457c.07.961.27 1.781.602 2.461s.863 1.238 1.598 1.676c.734.418 1.781.75 3.141.996 1.379.242 3.117.41 5.211.496l7.777.133 5.891-.027 4.398-.289c1.238-.156 2.27-.402 3.09-.73.836-.332 1.5-.812 1.988-1.441s.836-1.422 1.047-2.383.313-2.141.313-3.535c0-1.469-.102-2.637-.312-3.512-.211-.891-.523-1.57-.941-2.043-.402-.469-.918-.777-1.547-.914s-1.359-.211-2.199-.211h-18.43v-4.191zm34.352 23.203c-3.352 0-6.199-.242-8.535-.73s-4.242-1.328-5.707-2.516-2.531-2.785-3.195-4.793-.996-4.531-.996-7.566c0-3.145.332-5.746.996-7.805s1.727-3.695 3.195-4.898 3.367-2.051 5.707-2.539 5.184-.734 8.535-.734c2.371 0 4.363.121 5.969.367s2.914.551 3.926.914c1.031.367 1.809.77 2.332 1.207.539.418.934.813 1.176 1.18V.875h5.027v40.227h-5.027v-4.48l-1.254 1.496a9.45 9.45 0 0 1-2.437 1.727c-.891.438-2.137.855-3.742 1.258-1.605.383-3.598.574-5.969.574zm0-3.926l4.477-.105c1.309-.086 2.461-.262 3.457-.523s1.832-.648 2.512-1.152c.699-.523 1.266-1.215 1.703-2.07s.75-1.91.941-3.168c.211-1.273.313-2.801.313-4.582 0-1.852-.102-3.422-.312-4.715-.191-1.309-.508-2.402-.941-3.273-.437-.891-1.004-1.59-1.703-2.094-.68-.508-1.52-.891-2.512-1.152-.996-.281-2.148-.457-3.457-.527l-4.477-.102-5.082.184c-1.414.121-2.617.34-3.609.652s-1.809.75-2.437 1.309c-.609.559-1.09 1.277-1.437 2.148-.332.875-.559 1.93-.684 3.168l-.156 4.324.156 4.293c.125 1.203.352 2.242.684 3.117.348.855.828 1.563 1.438 2.121.629.559 1.441.996 2.438 1.309s2.195.531 3.609.656l5.082.184zm35.188-22.996v26.348h-5.027V14.754h-5.027v-3.82h5.027v-.266c0-2.039.227-3.742.68-5.105s1.203-2.453 2.25-3.273 2.43-1.395 4.137-1.727c1.73-.352 3.852-.523 6.363-.523h5.84v4.187h-5.867l-3.977.105c-1.066.07-1.93.305-2.594.707-.645.402-1.109 1.039-1.387 1.91s-.418 2.113-.418 3.719v.266h14.242v3.82zm16.754 11.055c0-3.094.332-5.648.996-7.676s1.727-3.629 3.191-4.816 3.371-2.02 5.711-2.488c2.336-.488 5.184-.734 8.535-.734s6.195.246 8.531.734c2.34.469 4.242 1.301 5.711 2.488s2.527 2.793 3.191 4.816.996 4.582.996 7.676-.332 5.656-.996 7.699-1.727 3.664-3.191 4.871-3.371 2.059-5.711 2.566c-2.336.488-5.184.73-8.531.73s-6.199-.242-8.535-.73c-2.34-.508-4.242-1.363-5.711-2.566s-2.531-2.828-3.191-4.871-.996-4.609-.996-7.699zm5.027 0l.184 4.371c.121 1.238.348 2.305.68 3.195.352.891.828 1.617 1.441 2.176s1.414 1.004 2.406 1.332 2.199.559 3.613.684l5.082.184 4.477-.105c1.324-.086 2.477-.27 3.453-.551.996-.277 1.844-.672 2.539-1.18.699-.523 1.258-1.23 1.676-2.121.438-.891.75-1.98.945-3.273.207-1.309.313-2.879.313-4.711 0-1.801-.105-3.328-.312-4.586-.195-1.273-.508-2.34-.945-3.195-.418-.855-.977-1.527-1.676-2.016-.695-.504-1.543-.883-2.539-1.125-.977-.262-2.129-.43-3.453-.5l-4.477-.102-4.504.102c-1.309.07-2.461.238-3.457.5-.977.242-1.816.621-2.512 1.125-.699.488-1.266 1.16-1.703 2.016-.418.855-.734 1.922-.941 3.195-.191 1.258-.289 2.785-.289 4.586zm65.242 15.293l-12.094-12.625-12.098 12.625h-6.703l15.449-15.348-14.715-14.82h6.703l11.492 11.652 11.23-11.652h6.703L216.52 25.727l15.449 15.375zm0 0" fill="url(#B)"/></g></svg>