<?xml version="1.0" encoding="UTF-8"?>
<svg xmlns="http://www.w3.org/2000/svg" xmlns:xlink="http://www.w3.org/1999/xlink" width="610px" height="48px" viewBox="0 0 610 48" version="1.1">
<defs>
<linearGradient id="linear0" gradientUnits="userSpaceOnUse" x1="119.382004" y1="-12.1545" x2="119.382004" y2="576.844971" gradientTransform="matrix(0.0666885,0,0,0.0667594,0,0)">
<stop offset="0" style="stop-color:rgb(95.294118%,52.549022%,17.647059%);stop-opacity:1;"/>
<stop offset="0.5" style="stop-color:rgb(87.058824%,38.039216%,7.450981%);stop-opacity:1;"/>
<stop offset="1" style="stop-color:rgb(78.431374%,30.980393%,7.450981%);stop-opacity:1;"/>
</linearGradient>
</defs>
<g id="surface1">
<path style=" stroke:none;fill-rule:nonzero;fill:url(#linear0);" d="M 0 38.511719 L 0 0.785156 L 37.683594 0.785156 L 37.683594 4.714844 L 4.710938 4.714844 L 4.710938 17.289062 L 36.113281 17.289062 L 36.113281 21.21875 L 4.710938 21.21875 L 4.710938 34.582031 L 37.683594 34.582031 L 37.683594 38.511719 Z M 41.609375 24.414062 C 41.609375 22.449219 41.707031 20.710938 41.902344 19.207031 C 42.101562 17.699219 42.445312 16.390625 42.933594 15.277344 C 43.441406 14.164062 44.113281 13.238281 44.945312 12.5 C 45.796875 11.746094 46.859375 11.140625 48.136719 10.683594 C 49.425781 10.226562 50.957031 9.898438 52.722656 9.699219 C 54.488281 9.503906 56.550781 9.40625 58.90625 9.40625 C 62.046875 9.40625 64.628906 9.601562 66.660156 9.996094 C 68.6875 10.371094 70.289062 10.960938 71.464844 11.765625 C 72.644531 12.550781 73.460938 13.558594 73.921875 14.785156 C 74.378906 15.996094 74.605469 17.445312 74.605469 19.132812 L 69.898438 19.132812 C 69.898438 18.527344 69.878906 17.960938 69.847656 17.4375 C 69.816406 16.914062 69.691406 16.4375 69.480469 16.011719 C 69.285156 15.585938 68.964844 15.210938 68.523438 14.882812 C 68.082031 14.539062 67.453125 14.253906 66.632812 14.023438 C 65.816406 13.792969 64.777344 13.621094 63.519531 13.507812 C 62.273438 13.394531 60.738281 13.335938 58.90625 13.335938 C 56.8125 13.335938 55.046875 13.410156 53.605469 13.558594 C 52.183594 13.703125 51.003906 13.949219 50.074219 14.292969 C 49.140625 14.621094 48.421875 15.070312 47.914062 15.644531 C 47.40625 16.203125 47.039062 16.890625 46.808594 17.707031 C 46.582031 18.527344 46.441406 19.492188 46.394531 20.605469 C 46.359375 21.703125 46.34375 22.972656 46.34375 24.414062 C 46.34375 25.820312 46.359375 27.074219 46.394531 28.171875 C 46.441406 29.25 46.582031 30.199219 46.808594 31.019531 C 47.039062 31.820312 47.40625 32.5 47.914062 33.058594 C 48.421875 33.613281 49.140625 34.066406 50.074219 34.410156 C 51.003906 34.753906 52.183594 34.996094 53.605469 35.144531 C 55.046875 35.292969 56.8125 35.367188 58.90625 35.367188 C 60.738281 35.367188 62.273438 35.300781 63.519531 35.167969 C 64.777344 35.039062 65.816406 34.851562 66.632812 34.605469 C 67.453125 34.359375 68.082031 34.054688 68.523438 33.695312 C 68.964844 33.335938 69.285156 32.925781 69.480469 32.46875 C 69.691406 31.992188 69.816406 31.476562 69.847656 30.921875 C 69.878906 30.347656 69.898438 29.734375 69.898438 29.078125 L 74.605469 29.078125 C 74.605469 30.796875 74.378906 32.289062 73.921875 33.546875 C 73.460938 34.808594 72.644531 35.847656 71.464844 36.667969 C 70.289062 37.46875 68.6875 38.066406 66.660156 38.460938 C 64.628906 38.855469 62.046875 39.050781 58.90625 39.050781 C 56.550781 39.050781 54.488281 38.953125 52.722656 38.753906 C 50.957031 38.558594 49.425781 38.238281 48.136719 37.796875 C 46.859375 37.339844 45.796875 36.742188 44.945312 36.003906 C 44.113281 35.269531 43.441406 34.359375 42.933594 33.277344 C 42.445312 32.199219 42.101562 30.929688 41.902344 29.472656 C 41.707031 28 41.609375 26.3125 41.609375 24.414062 Z M 82.480469 0.785156 L 87.191406 0.785156 L 87.191406 38.511719 L 82.480469 38.511719 Z M 96.613281 10.21875 L 101.324219 10.21875 L 101.324219 38.511719 L 96.613281 38.511719 Z M 101.324219 5.5 L 96.613281 5.5 L 96.613281 0.785156 L 101.324219 0.785156 Z M 126.449219 9.429688 C 129.585938 9.429688 132.253906 9.667969 134.445312 10.144531 C 136.636719 10.617188 138.417969 11.429688 139.792969 12.574219 C 141.167969 13.722656 142.164062 15.261719 142.785156 17.191406 C 143.410156 19.109375 143.71875 21.515625 143.71875 24.414062 C 143.71875 27.261719 143.410156 29.628906 142.785156 31.511719 C 142.164062 33.394531 141.167969 34.890625 139.792969 36.003906 C 138.417969 37.117188 136.636719 37.902344 134.445312 38.363281 C 132.253906 38.820312 129.585938 39.050781 126.449219 39.050781 C 124.207031 39.050781 122.332031 38.925781 120.828125 38.683594 C 119.324219 38.4375 118.089844 38.132812 117.125 37.773438 C 116.175781 37.394531 115.449219 36.996094 114.941406 36.570312 C 114.449219 36.144531 114.097656 35.742188 113.886719 35.367188 L 113.886719 47.941406 L 109.175781 47.941406 L 109.175781 10.21875 L 113.886719 10.21875 L 113.886719 12.84375 C 114.097656 12.515625 114.449219 12.15625 114.941406 11.765625 C 115.449219 11.355469 116.175781 10.976562 117.125 10.632812 C 118.089844 10.289062 119.324219 10.003906 120.828125 9.773438 C 122.332031 9.546875 124.207031 9.429688 126.449219 9.429688 Z M 126.449219 13.359375 C 124.875 13.359375 123.476562 13.402344 122.253906 13.484375 C 121.023438 13.566406 119.945312 13.738281 119.015625 14 C 118.082031 14.246094 117.289062 14.613281 116.632812 15.105469 C 115.996094 15.578125 115.472656 16.226562 115.0625 17.042969 C 114.65625 17.847656 114.351562 18.84375 114.15625 20.039062 C 113.976562 21.234375 113.886719 22.667969 113.886719 24.339844 C 113.886719 26.023438 113.976562 27.472656 114.15625 28.6875 C 114.351562 29.898438 114.65625 30.914062 115.0625 31.730469 C 115.472656 32.535156 115.996094 33.179688 116.632812 33.671875 C 117.289062 34.144531 118.082031 34.515625 119.015625 34.777344 C 119.945312 35.023438 121.023438 35.1875 122.253906 35.269531 C 123.476562 35.332031 124.875 35.367188 126.449219 35.367188 C 128.277344 35.367188 129.855469 35.308594 131.183594 35.195312 C 132.523438 35.078125 133.660156 34.875 134.59375 34.582031 C 135.523438 34.285156 136.277344 33.875 136.847656 33.351562 C 137.4375 32.828125 137.886719 32.164062 138.199219 31.363281 C 138.527344 30.542969 138.738281 29.570312 138.835938 28.441406 C 138.953125 27.292969 139.007812 25.953125 139.007812 24.414062 C 139.007812 22.875 138.953125 21.53125 138.835938 20.382812 C 138.738281 19.238281 138.527344 18.257812 138.199219 17.4375 C 137.886719 16.617188 137.4375 15.949219 136.847656 15.421875 C 136.277344 14.898438 135.523438 14.480469 134.59375 14.171875 C 133.660156 13.859375 132.523438 13.648438 131.183594 13.53125 C 129.855469 13.417969 128.277344 13.359375 126.449219 13.359375 Z M 165.699219 25.617188 C 163.476562 25.617188 161.523438 25.582031 159.835938 25.519531 C 158.152344 25.453125 156.699219 25.320312 155.472656 25.125 C 154.261719 24.910156 153.246094 24.617188 152.429688 24.242188 C 151.628906 23.863281 150.988281 23.363281 150.515625 22.742188 C 150.039062 22.105469 149.707031 21.324219 149.507812 20.410156 C 149.3125 19.476562 149.214844 18.46875 149.214844 17.386719 C 149.214844 15.914062 149.523438 14.679688 150.148438 13.679688 C 150.769531 12.664062 151.765625 11.847656 153.140625 11.222656 C 154.515625 10.585938 156.296875 10.125 158.488281 9.847656 C 160.679688 9.570312 163.347656 9.429688 166.488281 9.429688 C 169.59375 9.429688 172.152344 9.59375 174.164062 9.921875 C 176.195312 10.25 177.796875 10.757812 178.972656 11.445312 C 180.167969 12.117188 181.003906 12.96875 181.476562 14 C 181.949219 15.03125 182.1875 16.257812 182.1875 17.683594 L 177.476562 17.683594 C 177.476562 16.800781 177.304688 16.078125 176.960938 15.523438 C 176.636719 14.964844 176.054688 14.53125 175.21875 14.21875 C 174.386719 13.894531 173.257812 13.671875 171.835938 13.558594 C 170.429688 13.425781 168.644531 13.359375 166.488281 13.359375 C 164.132812 13.359375 162.152344 13.394531 160.550781 13.457031 C 158.945312 13.523438 157.65625 13.6875 156.671875 13.949219 C 155.691406 14.210938 154.988281 14.613281 154.5625 15.152344 C 154.136719 15.695312 153.925781 16.4375 153.925781 17.386719 C 153.925781 17.945312 153.957031 18.492188 154.023438 19.035156 C 154.105469 19.558594 154.277344 19.992188 154.539062 20.335938 C 154.800781 20.679688 155.183594 20.941406 155.691406 21.121094 C 156.199219 21.300781 156.886719 21.441406 157.753906 21.539062 C 158.636719 21.621094 159.722656 21.671875 161.015625 21.6875 C 162.308594 21.6875 163.867188 21.6875 165.699219 21.6875 C 167.925781 21.6875 169.871094 21.734375 171.539062 21.832031 C 173.226562 21.933594 174.679688 22.105469 175.90625 22.347656 C 177.132812 22.59375 178.148438 22.972656 178.949219 23.480469 C 179.75 23.988281 180.386719 24.542969 180.863281 25.148438 C 181.355469 25.738281 181.699219 26.441406 181.894531 27.261719 C 182.089844 28.0625 182.1875 28.996094 182.1875 30.0625 C 182.1875 31.125 182.089844 32.082031 181.894531 32.933594 C 181.699219 33.769531 181.355469 34.515625 180.863281 35.167969 C 180.371094 35.808594 179.703125 36.363281 178.851562 36.839844 C 178.015625 37.296875 176.960938 37.675781 175.6875 37.96875 C 174.410156 38.246094 172.882812 38.453125 171.097656 38.582031 C 169.332031 38.730469 167.273438 38.804688 164.917969 38.804688 C 161.972656 38.804688 159.496094 38.65625 157.480469 38.363281 C 155.488281 38.066406 153.875 37.601562 152.648438 36.960938 C 151.421875 36.308594 150.539062 35.464844 150 34.433594 C 149.476562 33.402344 149.214844 32.140625 149.214844 30.652344 L 153.925781 30.652344 C 153.925781 31.632812 154.089844 32.433594 154.414062 33.058594 C 154.757812 33.664062 155.347656 34.136719 156.183594 34.480469 C 157.015625 34.824219 158.136719 35.0625 159.542969 35.195312 C 160.964844 35.308594 162.757812 35.367188 164.917969 35.367188 C 166.878906 35.367188 168.546875 35.324219 169.921875 35.242188 C 171.3125 35.144531 172.472656 34.996094 173.40625 34.800781 C 174.335938 34.605469 175.074219 34.367188 175.613281 34.089844 C 176.152344 33.8125 176.5625 33.476562 176.839844 33.082031 C 177.117188 32.6875 177.289062 32.253906 177.355469 31.78125 C 177.4375 31.289062 177.476562 30.75 177.476562 30.160156 C 177.476562 29.621094 177.4375 29.144531 177.355469 28.734375 C 177.289062 28.308594 177.125 27.890625 176.863281 27.484375 C 176.601562 27.058594 176.21875 26.738281 175.710938 26.523438 C 175.203125 26.3125 174.507812 26.140625 173.625 26.007812 C 172.757812 25.863281 171.679688 25.761719 170.386719 25.714844 C 169.09375 25.648438 167.53125 25.617188 165.699219 25.617188 Z M 204.957031 39.050781 C 201.816406 39.050781 199.148438 38.835938 196.957031 38.410156 C 194.765625 37.96875 192.984375 37.214844 191.609375 36.152344 C 190.234375 35.085938 189.238281 33.664062 188.617188 31.878906 C 187.996094 30.09375 187.683594 27.851562 187.683594 25.148438 C 187.683594 22.054688 187.996094 19.5 188.617188 17.488281 C 189.238281 15.457031 190.234375 13.84375 191.609375 12.648438 C 192.984375 11.453125 194.765625 10.617188 196.957031 10.144531 C 199.148438 9.667969 201.816406 9.429688 204.957031 9.429688 C 207.195312 9.429688 209.132812 9.59375 210.769531 9.921875 C 212.421875 10.25 213.828125 10.722656 214.988281 11.347656 C 216.167969 11.96875 217.117188 12.722656 217.835938 13.605469 C 218.570312 14.492188 219.144531 15.421875 219.550781 16.40625 C 219.976562 17.371094 220.265625 18.511719 220.410156 19.820312 C 220.574219 21.128906 220.65625 22.511719 220.65625 23.96875 L 220.265625 25.542969 L 192.394531 25.542969 C 192.394531 27.703125 192.605469 29.480469 193.03125 30.871094 C 193.457031 32.246094 194.160156 33.253906 195.140625 33.894531 C 196.121094 34.53125 197.414062 34.941406 199.019531 35.121094 C 200.621094 35.285156 202.601562 35.367188 204.957031 35.367188 C 207.113281 35.367188 208.898438 35.308594 210.304688 35.195312 C 211.726562 35.0625 212.855469 34.824219 213.6875 34.480469 C 214.523438 34.136719 215.105469 33.664062 215.429688 33.058594 C 215.773438 32.433594 215.945312 31.632812 215.945312 30.652344 L 220.65625 30.652344 C 220.65625 32.171875 220.386719 33.476562 219.847656 34.554688 C 219.324219 35.621094 218.449219 36.488281 217.222656 37.160156 C 215.996094 37.8125 214.375 38.289062 212.363281 38.582031 C 210.367188 38.894531 207.898438 39.050781 204.957031 39.050781 Z M 204.957031 13.359375 C 203.386719 13.359375 201.976562 13.394531 200.734375 13.457031 C 199.507812 13.523438 198.429688 13.671875 197.496094 13.902344 C 196.582031 14.113281 195.796875 14.433594 195.140625 14.859375 C 194.488281 15.269531 193.957031 15.757812 193.546875 16.332031 C 193.15625 16.890625 192.859375 17.683594 192.664062 18.714844 C 192.484375 19.730469 192.394531 20.957031 192.394531 22.398438 L 215.945312 22.398438 C 215.945312 20.484375 215.742188 18.984375 215.332031 17.902344 C 214.925781 16.808594 214.277344 15.90625 213.394531 15.203125 C 212.511719 14.5 211.375 14.015625 209.984375 13.753906 C 208.59375 13.492188 206.917969 13.359375 204.957031 13.359375 Z M 262.265625 19.425781 C 262.265625 18.246094 262.175781 17.273438 261.996094 16.503906 C 261.832031 15.71875 261.433594 15.097656 260.792969 14.636719 C 260.15625 14.164062 259.207031 13.835938 257.949219 13.65625 C 256.707031 13.457031 255.003906 13.359375 252.84375 13.359375 C 250.734375 13.359375 249.019531 13.546875 247.691406 13.925781 C 246.367188 14.285156 245.328125 14.800781 244.578125 15.472656 C 243.824219 16.144531 243.308594 16.945312 243.03125 17.878906 C 242.769531 18.8125 242.640625 19.851562 242.640625 21 L 242.640625 38.511719 L 237.929688 38.511719 L 237.929688 10.21875 L 242.640625 10.21875 L 242.640625 14.710938 C 242.804688 14.203125 243.105469 13.648438 243.546875 13.042969 C 243.988281 12.417969 244.660156 11.847656 245.558594 11.320312 C 246.457031 10.78125 247.621094 10.332031 249.042969 9.972656 C 250.480469 9.609375 252.273438 9.429688 254.414062 9.429688 C 256.867188 9.429688 258.863281 9.652344 260.402344 10.09375 C 261.9375 10.519531 263.132812 11.160156 263.984375 12.007812 C 264.851562 12.84375 265.429688 13.882812 265.726562 15.128906 C 266.035156 16.375 266.191406 17.804688 266.191406 19.425781 Z M 302.304688 17.289062 C 303.089844 17.289062 303.777344 17.226562 304.367188 17.09375 C 304.957031 16.960938 305.4375 16.707031 305.8125 16.332031 C 306.207031 15.9375 306.5 15.382812 306.695312 14.664062 C 306.894531 13.941406 306.992188 12.992188 306.992188 11.8125 C 306.992188 10.503906 306.894531 9.398438 306.695312 8.496094 C 306.5 7.597656 306.171875 6.851562 305.714844 6.261719 C 305.257812 5.671875 304.636719 5.222656 303.851562 4.910156 C 303.082031 4.601562 302.117188 4.371094 300.957031 4.222656 C 299.796875 4.078125 298.421875 3.996094 296.835938 3.980469 C 295.25 3.945312 293.40625 3.929688 291.3125 3.929688 C 288.4375 3.929688 286.007812 3.96875 284.027344 4.050781 C 282.066406 4.117188 280.4375 4.257812 279.144531 4.46875 C 277.871094 4.667969 276.886719 4.945312 276.203125 5.304688 C 275.515625 5.664062 275.007812 6.140625 274.679688 6.730469 C 274.371094 7.300781 274.179688 8.007812 274.117188 8.839844 C 274.066406 9.675781 274.042969 10.660156 274.042969 11.789062 L 269.332031 11.789062 C 269.332031 9.808594 269.542969 8.136719 269.96875 6.777344 C 270.410156 5.417969 271.050781 4.304688 271.882812 3.4375 C 272.734375 2.554688 273.78125 1.882812 275.023438 1.425781 C 276.265625 0.949219 277.699219 0.613281 279.316406 0.417969 C 280.953125 0.203125 282.769531 0.0820312 284.765625 0.0507812 C 286.773438 0.015625 288.957031 0 291.3125 0 C 293.667969 0 295.804688 0.0390625 297.71875 0.121094 C 299.648438 0.1875 301.363281 0.351562 302.871094 0.613281 C 304.390625 0.875 305.707031 1.261719 306.820312 1.769531 C 307.929688 2.277344 308.847656 2.972656 309.566406 3.855469 C 310.304688 4.722656 310.84375 5.804688 311.1875 7.097656 C 311.546875 8.390625 311.726562 9.953125 311.726562 11.789062 C 311.726562 12.96875 311.644531 13.964844 311.480469 14.785156 C 311.335938 15.605469 311.097656 16.300781 310.769531 16.871094 C 310.457031 17.429688 310.058594 17.894531 309.566406 18.273438 C 309.078125 18.632812 308.488281 18.960938 307.800781 19.253906 C 308.488281 19.550781 309.078125 19.925781 309.566406 20.382812 C 310.058594 20.84375 310.457031 21.40625 310.769531 22.078125 C 311.097656 22.734375 311.335938 23.511719 311.480469 24.414062 C 311.644531 25.296875 311.726562 26.328125 311.726562 27.507812 C 311.726562 29.339844 311.546875 30.90625 311.1875 32.199219 C 310.84375 33.492188 310.304688 34.582031 309.566406 35.464844 C 308.847656 36.332031 307.929688 37.019531 306.820312 37.527344 C 305.707031 38.035156 304.390625 38.417969 302.871094 38.683594 C 301.363281 38.945312 299.648438 39.109375 297.71875 39.171875 C 295.804688 39.253906 293.667969 39.296875 291.3125 39.296875 C 288.957031 39.296875 286.773438 39.28125 284.765625 39.246094 C 282.769531 39.214844 280.953125 39.082031 279.316406 38.855469 C 277.699219 38.625 276.265625 38.265625 275.023438 37.773438 C 273.78125 37.265625 272.734375 36.546875 271.882812 35.613281 C 271.050781 34.679688 270.410156 33.492188 269.96875 32.050781 C 269.542969 30.609375 269.332031 28.832031 269.332031 26.722656 L 274.042969 26.722656 C 274.042969 27.964844 274.074219 29.046875 274.140625 29.964844 C 274.207031 30.863281 274.394531 31.632812 274.703125 32.273438 C 275.015625 32.910156 275.515625 33.433594 276.203125 33.84375 C 276.886719 34.238281 277.871094 34.546875 279.144531 34.777344 C 280.4375 35.007812 282.066406 35.160156 284.027344 35.242188 C 286.007812 35.324219 288.4375 35.367188 291.3125 35.367188 C 293.40625 35.367188 295.25 35.359375 296.835938 35.339844 C 298.421875 35.308594 299.796875 35.21875 300.957031 35.070312 C 302.117188 34.925781 303.082031 34.695312 303.851562 34.382812 C 304.636719 34.074219 305.257812 33.621094 305.714844 33.03125 C 306.171875 32.445312 306.5 31.699219 306.695312 30.796875 C 306.894531 29.898438 306.992188 28.792969 306.992188 27.484375 C 306.992188 26.105469 306.894531 25.011719 306.695312 24.191406 C 306.5 23.355469 306.207031 22.71875 305.8125 22.277344 C 305.4375 21.832031 304.957031 21.546875 304.367188 21.417969 C 303.777344 21.285156 303.089844 21.21875 302.304688 21.21875 L 285.035156 21.21875 L 285.035156 17.289062 Z M 334.492188 39.050781 C 331.351562 39.050781 328.6875 38.820312 326.496094 38.363281 C 324.304688 37.902344 322.519531 37.117188 321.148438 36.003906 C 319.773438 34.890625 318.777344 33.394531 318.15625 31.511719 C 317.53125 29.628906 317.222656 27.261719 317.222656 24.414062 C 317.222656 21.464844 317.53125 19.027344 318.15625 17.09375 C 318.777344 15.160156 319.773438 13.628906 321.148438 12.5 C 322.519531 11.371094 324.304688 10.578125 326.496094 10.117188 C 328.6875 9.660156 331.351562 9.429688 334.492188 9.429688 C 336.71875 9.429688 338.582031 9.546875 340.085938 9.773438 C 341.59375 10.003906 342.820312 10.289062 343.765625 10.632812 C 344.730469 10.976562 345.460938 11.355469 345.949219 11.765625 C 346.457031 12.15625 346.824219 12.527344 347.054688 12.871094 L 347.054688 0.785156 L 351.765625 0.785156 L 351.765625 38.511719 L 347.054688 38.511719 L 347.054688 34.308594 C 347.054688 34.308594 346.664062 34.777344 345.878906 35.710938 C 345.191406 36.382812 344.429688 36.921875 343.597656 37.332031 C 342.761719 37.742188 341.59375 38.132812 340.085938 38.511719 C 338.582031 38.871094 336.71875 39.050781 334.492188 39.050781 Z M 334.492188 35.367188 C 336.0625 35.367188 337.460938 35.332031 338.6875 35.269531 C 339.914062 35.1875 340.996094 35.023438 341.925781 34.777344 C 342.859375 34.53125 343.644531 34.171875 344.28125 33.695312 C 344.9375 33.203125 345.46875 32.558594 345.878906 31.757812 C 346.285156 30.953125 346.582031 29.964844 346.761719 28.785156 C 346.957031 27.589844 347.054688 26.15625 347.054688 24.484375 C 347.054688 22.75 346.957031 21.277344 346.761719 20.066406 C 346.582031 18.835938 346.285156 17.8125 345.878906 16.996094 C 345.46875 16.160156 344.9375 15.503906 344.28125 15.03125 C 343.644531 14.554688 342.859375 14.195312 341.925781 13.949219 C 340.996094 13.6875 339.914062 13.523438 338.6875 13.457031 C 337.460938 13.394531 336.0625 13.359375 334.492188 13.359375 C 332.660156 13.359375 331.074219 13.417969 329.734375 13.53125 C 328.410156 13.648438 327.28125 13.851562 326.347656 14.144531 C 325.417969 14.441406 324.65625 14.851562 324.066406 15.375 C 323.492188 15.898438 323.042969 16.570312 322.71875 17.386719 C 322.40625 18.207031 322.195312 19.199219 322.078125 20.359375 C 321.980469 21.507812 321.933594 22.855469 321.933594 24.414062 C 321.933594 25.953125 321.980469 27.292969 322.078125 28.441406 C 322.195312 29.570312 322.40625 30.542969 322.71875 31.363281 C 323.042969 32.164062 323.492188 32.828125 324.066406 33.351562 C 324.65625 33.875 325.417969 34.285156 326.347656 34.582031 C 327.28125 34.875 328.410156 35.078125 329.734375 35.195312 C 331.074219 35.308594 332.660156 35.367188 334.492188 35.367188 Z M 367.46875 13.800781 L 367.46875 38.511719 L 362.757812 38.511719 L 362.757812 13.800781 L 358.046875 13.800781 L 358.046875 10.21875 L 362.757812 10.21875 L 362.757812 9.972656 C 362.757812 8.054688 362.96875 6.460938 363.394531 5.183594 C 363.820312 3.90625 364.523438 2.882812 365.503906 2.113281 C 366.484375 1.34375 367.777344 0.800781 369.378906 0.492188 C 371 0.164062 372.988281 0 375.34375 0 L 380.8125 0 L 380.8125 3.929688 L 375.316406 3.929688 C 373.828125 3.929688 372.585938 3.960938 371.589844 4.027344 C 370.589844 4.09375 369.78125 4.3125 369.160156 4.691406 C 368.554688 5.066406 368.121094 5.664062 367.859375 6.484375 C 367.597656 7.300781 367.46875 8.464844 367.46875 9.972656 L 367.46875 10.21875 L 380.8125 10.21875 L 380.8125 13.800781 Z M 383.167969 24.167969 C 383.167969 21.269531 383.480469 18.871094 384.101562 16.972656 C 384.722656 15.070312 385.71875 13.566406 387.09375 12.453125 C 388.46875 11.339844 390.25 10.5625 392.441406 10.117188 C 394.632812 9.660156 397.300781 9.429688 400.441406 9.429688 C 403.582031 9.429688 406.246094 9.660156 408.4375 10.117188 C 410.628906 10.5625 412.414062 11.339844 413.785156 12.453125 C 415.160156 13.566406 416.160156 15.070312 416.78125 16.972656 C 417.402344 18.871094 417.710938 21.269531 417.710938 24.167969 C 417.710938 27.066406 417.402344 29.472656 416.78125 31.386719 C 416.160156 33.304688 415.160156 34.824219 413.785156 35.957031 C 412.414062 37.085938 410.628906 37.886719 408.4375 38.363281 C 406.246094 38.820312 403.582031 39.050781 400.441406 39.050781 C 397.300781 39.050781 394.632812 38.820312 392.441406 38.363281 C 390.25 37.886719 388.46875 37.085938 387.09375 35.957031 C 385.71875 34.824219 384.722656 33.304688 384.101562 31.386719 C 383.480469 29.472656 383.167969 27.066406 383.167969 24.167969 Z M 387.878906 24.167969 C 387.878906 25.738281 387.9375 27.105469 388.050781 28.269531 C 388.164062 29.429688 388.378906 30.429688 388.6875 31.265625 C 389.015625 32.101562 389.464844 32.777344 390.039062 33.304688 C 390.609375 33.828125 391.363281 34.246094 392.296875 34.554688 C 393.226562 34.867188 394.355469 35.078125 395.679688 35.195312 C 397.023438 35.308594 398.609375 35.367188 400.441406 35.367188 C 402.011719 35.367188 403.410156 35.332031 404.636719 35.269531 C 405.878906 35.1875 406.957031 35.015625 407.875 34.753906 C 408.808594 34.492188 409.601562 34.121094 410.253906 33.648438 C 410.90625 33.15625 411.429688 32.492188 411.824219 31.65625 C 412.234375 30.824219 412.527344 29.800781 412.707031 28.585938 C 412.902344 27.359375 413.003906 25.886719 413.003906 24.167969 C 413.003906 22.480469 412.902344 21.046875 412.707031 19.867188 C 412.527344 18.671875 412.234375 17.675781 411.824219 16.871094 C 411.429688 16.070312 410.90625 15.441406 410.253906 14.980469 C 409.601562 14.507812 408.808594 14.15625 407.875 13.925781 C 406.957031 13.679688 405.878906 13.523438 404.636719 13.457031 C 403.410156 13.394531 402.011719 13.359375 400.441406 13.359375 C 398.871094 13.359375 397.464844 13.394531 396.21875 13.457031 C 394.996094 13.523438 393.914062 13.679688 392.980469 13.925781 C 392.066406 14.15625 391.28125 14.507812 390.625 14.980469 C 389.972656 15.441406 389.441406 16.070312 389.03125 16.871094 C 388.640625 17.675781 388.34375 18.671875 388.148438 19.867188 C 387.96875 21.046875 387.878906 22.480469 387.878906 24.167969 Z M 449.015625 38.511719 L 437.683594 26.671875 L 426.347656 38.511719 L 420.066406 38.511719 L 434.542969 24.117188 L 420.753906 10.21875 L 427.035156 10.21875 L 437.804688 21.144531 L 448.332031 10.21875 L 454.609375 10.21875 L 440.824219 24.09375 L 455.296875 38.511719 Z M 473.355469 38.511719 L 473.355469 0.785156 L 511.039062 0.785156 L 511.039062 4.714844 L 478.066406 4.714844 L 478.066406 17.289062 L 509.46875 17.289062 L 509.46875 21.21875 L 478.066406 21.21875 L 478.066406 34.582031 L 511.039062 34.582031 L 511.039062 38.511719 Z M 541.066406 17.289062 C 543.652344 17.289062 545.867188 17.398438 547.71875 17.609375 C 549.566406 17.824219 551.117188 18.140625 552.378906 18.566406 C 553.652344 18.976562 554.667969 19.492188 555.421875 20.113281 C 556.171875 20.738281 556.753906 21.449219 557.164062 22.25 C 557.570312 23.039062 557.832031 23.921875 557.949219 24.902344 C 558.078125 25.886719 558.144531 26.949219 558.144531 28.097656 C 558.144531 29.242188 558.039062 30.324219 557.824219 31.339844 C 557.628906 32.335938 557.269531 33.253906 556.746094 34.089844 C 556.222656 34.925781 555.511719 35.667969 554.609375 36.324219 C 553.710938 36.980469 552.566406 37.535156 551.175781 37.992188 C 549.785156 38.453125 548.109375 38.796875 546.144531 39.027344 C 544.199219 39.269531 541.917969 39.394531 539.300781 39.394531 L 533.019531 39.394531 C 530.664062 39.394531 528.605469 39.304688 526.839844 39.125 C 525.070312 38.945312 523.550781 38.671875 522.273438 38.3125 C 521 37.9375 519.945312 37.46875 519.109375 36.914062 C 518.277344 36.339844 517.605469 35.675781 517.097656 34.925781 C 516.609375 34.15625 516.265625 33.285156 516.070312 32.320312 C 515.871094 31.339844 515.773438 30.257812 515.773438 29.078125 L 520.484375 29.078125 C 520.484375 30.550781 520.695312 31.707031 521.121094 32.542969 C 521.546875 33.375 522.25 34.007812 523.230469 34.433594 C 524.214844 34.84375 525.496094 35.105469 527.085938 35.21875 C 528.6875 35.316406 530.664062 35.367188 533.019531 35.367188 L 539.300781 35.367188 C 542.050781 35.367188 544.332031 35.234375 546.144531 34.972656 C 547.960938 34.710938 549.410156 34.292969 550.488281 33.71875 C 551.570312 33.148438 552.328125 32.402344 552.769531 31.484375 C 553.210938 30.550781 553.433594 29.421875 553.433594 28.097656 C 553.433594 26.769531 553.277344 25.664062 552.96875 24.78125 C 552.671875 23.898438 552.074219 23.191406 551.175781 22.667969 C 550.292969 22.144531 549.042969 21.777344 547.421875 21.5625 C 545.804688 21.335938 543.683594 21.21875 541.066406 21.21875 L 534.589844 21.21875 C 531.710938 21.21875 529.242188 21.113281 527.183594 20.902344 C 525.136719 20.6875 523.421875 20.382812 522.03125 19.992188 C 520.640625 19.582031 519.527344 19.082031 518.695312 18.492188 C 517.859375 17.886719 517.222656 17.199219 516.78125 16.429688 C 516.355469 15.660156 516.078125 14.808594 515.945312 13.875 C 515.8125 12.925781 515.75 11.902344 515.75 10.804688 C 515.75 9.660156 515.847656 8.597656 516.042969 7.613281 C 516.257812 6.632812 516.640625 5.746094 517.195312 4.960938 C 517.753906 4.160156 518.511719 3.445312 519.476562 2.824219 C 520.441406 2.203125 521.679688 1.6875 523.183594 1.277344 C 524.703125 0.851562 526.527344 0.53125 528.652344 0.320312 C 530.78125 0.105469 533.28125 0 536.160156 0 L 540.871094 0 C 543.226562 0 545.289062 0.0898438 547.054688 0.269531 C 548.820312 0.433594 550.339844 0.703125 551.617188 1.082031 C 552.894531 1.441406 553.949219 1.898438 554.78125 2.457031 C 555.632812 2.996094 556.304688 3.652344 556.792969 4.421875 C 557.300781 5.175781 557.652344 6.035156 557.847656 7 C 558.046875 7.964844 558.144531 9.039062 558.144531 10.21875 L 553.433594 10.21875 C 553.433594 8.742188 553.222656 7.589844 552.796875 6.753906 C 552.371094 5.917969 551.667969 5.296875 550.683594 4.886719 C 549.703125 4.460938 548.410156 4.199219 546.808594 4.101562 C 545.207031 3.988281 543.226562 3.929688 540.871094 3.929688 L 536.160156 3.929688 C 533.019531 3.929688 530.4375 4.042969 528.410156 4.273438 C 526.378906 4.484375 524.777344 4.855469 523.601562 5.378906 C 522.421875 5.902344 521.605469 6.605469 521.148438 7.492188 C 520.6875 8.375 520.460938 9.480469 520.460938 10.804688 C 520.460938 11.625 520.515625 12.355469 520.632812 12.992188 C 520.746094 13.628906 520.976562 14.195312 521.316406 14.6875 C 521.679688 15.160156 522.175781 15.5625 522.816406 15.890625 C 523.453125 16.21875 524.296875 16.488281 525.34375 16.699219 C 526.386719 16.914062 527.664062 17.070312 529.167969 17.167969 C 530.691406 17.25 532.496094 17.289062 534.589844 17.289062 Z M 609.171875 38.511719 L 604.464844 38.511719 L 604.464844 31.4375 C 604.464844 30.289062 604.4375 29.308594 604.390625 28.488281 C 604.359375 27.65625 604.21875 26.941406 603.972656 26.351562 C 603.742188 25.761719 603.375 25.289062 602.867188 24.929688 C 602.363281 24.566406 601.640625 24.289062 600.710938 24.09375 C 599.777344 23.898438 598.589844 23.765625 597.152344 23.699219 C 595.730469 23.617188 593.972656 23.578125 591.878906 23.578125 L 570.707031 23.578125 L 570.707031 38.511719 L 565.996094 38.511719 L 565.996094 0.785156 L 592.664062 0.785156 C 595.542969 0.785156 597.960938 0.890625 599.925781 1.105469 C 601.902344 1.300781 603.53125 1.605469 604.808594 2.015625 C 606.097656 2.421875 607.089844 2.929688 607.777344 3.535156 C 608.480469 4.140625 608.984375 4.855469 609.296875 5.671875 C 609.625 6.492188 609.8125 7.410156 609.859375 8.425781 C 609.925781 9.4375 609.960938 10.5625 609.960938 11.789062 C 609.960938 13.359375 609.84375 14.742188 609.617188 15.9375 C 609.402344 17.117188 609.035156 18.125 608.511719 18.960938 C 607.988281 19.796875 607.292969 20.464844 606.425781 20.972656 C 605.558594 21.464844 604.472656 21.808594 603.164062 22.003906 C 604.472656 22.203125 605.519531 22.546875 606.304688 23.039062 C 607.089844 23.527344 607.695312 24.167969 608.121094 24.953125 C 608.542969 25.738281 608.824219 26.671875 608.953125 27.753906 C 609.101562 28.832031 609.171875 30.0625 609.171875 31.4375 Z M 570.707031 19.648438 L 592.664062 19.648438 C 594.757812 19.648438 596.515625 19.613281 597.9375 19.550781 C 599.378906 19.46875 600.5625 19.328125 601.496094 19.132812 C 602.425781 18.9375 603.148438 18.65625 603.652344 18.296875 C 604.160156 17.9375 604.527344 17.460938 604.757812 16.871094 C 605.003906 16.28125 605.140625 15.578125 605.175781 14.761719 C 605.222656 13.925781 605.25 12.933594 605.25 11.789062 C 605.25 10.722656 605.222656 9.808594 605.175781 9.039062 C 605.140625 8.269531 605.003906 7.621094 604.757812 7.097656 C 604.527344 6.574219 604.160156 6.15625 603.652344 5.84375 C 603.148438 5.535156 602.425781 5.296875 601.496094 5.132812 C 600.5625 4.953125 599.378906 4.839844 597.9375 4.789062 C 596.515625 4.738281 594.757812 4.714844 592.664062 4.714844 L 570.707031 4.714844 Z M 570.707031 19.648438 "/>
</g>
</svg>
