<svg xmlns="http://www.w3.org/2000/svg" width="610" height="48"><defs><linearGradient id="A" x1="7.961" x2="7.961" y1="-.811" y2="38.509" gradientUnits="userSpaceOnUse"><stop stop-color="#f3862d" offset="0"/><stop stop-color="#de6113" offset=".5"/><stop stop-color="#c84f13" offset="1"/></linearGradient></defs><path d="M0 38.512V.785h37.684v3.93H4.711v12.574h31.402v3.93H4.711v13.363h32.973v3.93zm41.609-14.098c0-1.965.098-3.703.293-5.207s.543-2.816 1.031-3.93c.508-1.113 1.18-2.039 2.012-2.777.852-.754 1.914-1.359 3.191-1.816 1.289-.457 2.82-.785 4.586-.984s3.828-.293 6.184-.293c3.141 0 5.723.195 7.754.59 2.027.375 3.629.965 4.805 1.77 1.18.785 1.996 1.793 2.457 3.019.457 1.211.684 2.66.684 4.348h-4.707l-.051-1.695c-.031-.523-.156-1-.367-1.426-.195-.426-.516-.801-.957-1.129-.441-.344-1.07-.629-1.891-.859s-1.856-.402-3.113-.516c-1.246-.113-2.781-.172-4.613-.172l-5.301.223c-1.422.145-2.602.391-3.531.734-.934.328-1.652.777-2.16 1.352-.508.559-.875 1.246-1.105 2.062s-.367 1.785-.414 2.898l-.051 3.809.051 3.758c.047 1.078.188 2.027.414 2.848.23.801.598 1.48 1.105 2.039s1.227 1.008 2.16 1.352 2.109.586 3.531.734c1.441.148 3.207.223 5.301.223l4.613-.199c1.258-.129 2.297-.316 3.113-.562s1.449-.551 1.891-.91.762-.77.957-1.227c.211-.477.336-.992.367-1.547l.051-1.844h4.707c0 1.719-.227 3.211-.684 4.469s-1.277 2.301-2.457 3.121c-1.176.801-2.777 1.398-4.805 1.793s-4.613.59-7.754.59c-2.355 0-4.418-.098-6.184-.297s-3.297-.516-4.586-.957c-1.277-.457-2.34-1.055-3.191-1.793-.832-.734-1.504-1.645-2.012-2.727-.488-1.078-.832-2.348-1.031-3.805-.195-1.473-.293-3.16-.293-5.059zM82.48.785h4.711v37.727H82.48zm14.133 9.434h4.711v28.293h-4.711zm4.711-4.719h-4.711V.785h4.711zm25.125 3.93c3.137 0 5.805.238 7.996.715s3.973 1.285 5.348 2.43 2.371 2.688 2.992 4.617c.625 1.918.934 4.324.934 7.223 0 2.848-.309 5.215-.934 7.098s-1.617 3.379-2.992 4.492-3.156 1.898-5.348 2.359-4.859.688-7.996.688c-2.242 0-4.117-.125-5.621-.367s-2.738-.551-3.703-.91c-.949-.379-1.676-.777-2.184-1.203-.492-.426-.844-.828-1.055-1.203v12.574h-4.711V10.218h4.711v2.625c.211-.328.563-.687 1.055-1.078.508-.41 1.234-.789 2.184-1.133.965-.344 2.199-.629 3.703-.859s3.379-.344 5.621-.344zm0 3.93l-4.195.125c-1.231.082-2.309.254-3.238.516-.934.246-1.727.613-2.383 1.105-.637.473-1.16 1.121-1.57 1.937-.406.805-.711 1.801-.906 2.996-.18 1.195-.27 2.629-.27 4.301 0 1.684.09 3.133.27 4.348.195 1.211.5 2.227.906 3.043.41.805.934 1.449 1.57 1.941.656.473 1.449.844 2.383 1.105.93.246 2.008.41 3.238.492l4.195.098 4.734-.172c1.34-.117 2.477-.32 3.41-.613s1.684-.707 2.254-1.23c.59-.523 1.039-1.187 1.352-1.988.328-.82.539-1.793.637-2.922.117-1.148.172-2.488.172-4.027l-.172-4.031c-.098-1.145-.309-2.125-.637-2.945-.312-.82-.762-1.488-1.352-2.016-.57-.523-1.324-.941-2.254-1.25s-2.07-.523-3.41-.641l-4.734-.172zm39.25 12.258c-2.223 0-4.176-.035-5.863-.098s-3.137-.199-4.363-.395c-1.211-.215-2.227-.508-3.043-.883-.801-.379-1.441-.879-1.914-1.5-.477-.637-.809-1.418-1.008-2.332a14.76 14.76 0 0 1-.293-3.023c0-1.473.309-2.707.934-3.707.621-1.016 1.617-1.832 2.992-2.457 1.375-.637 3.156-1.098 5.348-1.375s4.859-.418 8-.418c3.106 0 5.664.164 7.676.492 2.031.328 3.633.836 4.809 1.523 1.195.672 2.031 1.523 2.504 2.555s.711 2.258.711 3.684h-4.711c0-.883-.172-1.605-.516-2.16-.324-.559-.906-.992-1.742-1.305-.832-.324-1.961-.547-3.383-.66-1.406-.133-3.191-.199-5.348-.199l-5.937.098c-1.606.066-2.894.23-3.879.492s-1.684.664-2.109 1.203-.637 1.285-.637 2.234c0 .559.031 1.105.098 1.648.082.523.254.957.516 1.301s.645.605 1.152.785 1.195.32 2.063.418l3.262.148h4.684l5.84.145c1.688.102 3.141.273 4.367.516s2.242.625 3.043 1.133 1.438 1.063 1.914 1.668c.492.59.836 1.293 1.031 2.113.195.801.293 1.734.293 2.801s-.098 2.019-.293 2.871a5.89 5.89 0 0 1-1.031 2.234c-.492.641-1.16 1.195-2.012 1.672-.836.457-1.891.836-3.164 1.129-1.277.277-2.805.484-4.59.613l-6.18.223c-2.945 0-5.422-.148-7.437-.441-1.992-.297-3.606-.762-4.832-1.402-1.227-.652-2.109-1.496-2.648-2.527-.523-1.031-.785-2.293-.785-3.781h4.711c0 .98.164 1.781.488 2.406.344.605.934 1.078 1.769 1.422s1.953.582 3.359.715l5.375.172 5.004-.125c1.391-.098 2.551-.246 3.484-.441s1.668-.434 2.207-.711.949-.613 1.227-1.008.449-.828.516-1.301c.082-.492.121-1.031.121-1.621 0-.539-.039-1.016-.121-1.426-.066-.426-.23-.844-.492-1.25-.262-.426-.645-.746-1.152-.961s-1.203-.383-2.086-.516c-.867-.145-1.945-.246-3.238-.293l-4.687-.098zm39.258 13.434c-3.141 0-5.809-.215-8-.641-2.191-.441-3.973-1.195-5.348-2.258s-2.371-2.488-2.992-4.273-.934-4.027-.934-6.73c0-3.094.313-5.648.934-7.66.621-2.031 1.617-3.645 2.992-4.84s3.156-2.031 5.348-2.504 4.859-.715 8-.715c2.238 0 4.176.164 5.813.492 1.652.328 3.059.801 4.219 1.426 1.18.621 2.129 1.375 2.848 2.258.734.887 1.309 1.816 1.715 2.801.426.965.715 2.105.859 3.414.164 1.309.246 2.691.246 4.148l-.391 1.574h-27.871c0 2.16.211 3.938.637 5.328.426 1.375 1.129 2.383 2.109 3.023s2.273 1.047 3.879 1.227c1.602.164 3.582.246 5.938.246l5.348-.172c1.422-.133 2.551-.371 3.383-.715s1.418-.816 1.742-1.422c.344-.625.516-1.426.516-2.406h4.711c0 1.52-.27 2.824-.809 3.902-.523 1.066-1.398 1.934-2.625 2.605-1.227.652-2.848 1.129-4.859 1.422-1.996.313-4.465.469-7.406.469zm0-25.691l-4.223.098c-1.227.066-2.305.215-3.238.445-.914.211-1.699.531-2.356.957-.652.41-1.184.898-1.594 1.473-.391.559-.687 1.352-.883 2.383-.18 1.016-.27 2.242-.27 3.684h23.551c0-1.914-.203-3.414-.613-4.496-.406-1.094-1.055-1.996-1.937-2.699s-2.019-1.187-3.41-1.449-3.066-.395-5.027-.395zm57.309 6.066c0-1.18-.09-2.152-.27-2.922a2.96 2.96 0 0 0-1.203-1.867c-.637-.473-1.586-.801-2.844-.98-1.242-.199-2.945-.297-5.106-.297-2.109 0-3.824.188-5.152.566-1.324.359-2.363.875-3.113 1.547a5.13 5.13 0 0 0-1.547 2.406c-.262.934-.391 1.973-.391 3.121v17.512h-4.711V10.22h4.711v4.492c.164-.508.465-1.062.906-1.668.441-.625 1.113-1.195 2.012-1.723.898-.539 2.063-.988 3.484-1.348 1.438-.363 3.231-.543 5.371-.543 2.453 0 4.449.223 5.988.664 1.535.426 2.731 1.066 3.582 1.914.867.836 1.445 1.875 1.742 3.121.309 1.246.465 2.676.465 4.297zm40.039-2.137c.785 0 1.473-.062 2.063-.195s1.07-.387 1.445-.762c.395-.395.688-.949.883-1.668s.297-1.672.297-2.852c0-1.309-.098-2.414-.297-3.316s-.523-1.644-.98-2.234-1.078-1.039-1.863-1.352c-.77-.309-1.734-.539-2.894-.687s-2.535-.227-4.121-.242l-5.523-.051-7.285.121c-1.961.066-3.59.207-4.883.418-1.273.199-2.258.477-2.941.836s-1.195.836-1.523 1.426c-.309.57-.5 1.277-.562 2.109l-.074 2.949h-4.711c0-1.98.211-3.652.637-5.012.441-1.359 1.082-2.473 1.914-3.34.852-.883 1.898-1.555 3.141-2.012C276.266.95 277.7.614 279.317.419c1.637-.215 3.453-.336 5.449-.367l6.547-.051 6.406.121c1.93.066 3.644.23 5.152.492 1.519.262 2.836.648 3.949 1.156s2.027 1.203 2.746 2.086c.738.867 1.277 1.949 1.621 3.242.359 1.293.539 2.856.539 4.691 0 1.18-.082 2.176-.246 2.996-.145.82-.383 1.516-.711 2.086a4.54 4.54 0 0 1-1.203 1.402c-.488.359-1.078.688-1.766.98.688.297 1.277.672 1.766 1.129s.891 1.023 1.203 1.695c.328.656.566 1.434.711 2.336.164.883.246 1.914.246 3.094 0 1.832-.18 3.398-.539 4.691-.344 1.293-.883 2.383-1.621 3.266-.719.867-1.637 1.555-2.746 2.063s-2.43.891-3.949 1.156c-1.508.262-3.223.426-5.152.488l-6.406.125c-2.355 0-4.539-.016-6.547-.051-1.996-.031-3.812-.164-5.449-.391-1.617-.23-3.051-.59-4.293-1.082-1.242-.508-2.289-1.227-3.141-2.16-.832-.934-1.473-2.121-1.914-3.562-.426-1.441-.637-3.219-.637-5.328h4.711l.098 3.242c.066.898.254 1.668.563 2.309s.813 1.16 1.5 1.57c.684.395 1.668.703 2.941.934 1.293.23 2.922.383 4.883.465l7.285.125 5.523-.027 4.121-.27c1.16-.145 2.125-.375 2.894-.687.785-.309 1.406-.762 1.863-1.352s.785-1.332.98-2.234.297-2.004.297-3.312c0-1.379-.098-2.473-.297-3.293-.195-.836-.488-1.473-.883-1.914a2.54 2.54 0 0 0-1.445-.859c-.59-.133-1.277-.199-2.062-.199h-17.27v-3.93zm32.188 21.762c-3.141 0-5.805-.23-7.996-.687s-3.977-1.246-5.348-2.359-2.371-2.609-2.992-4.492-.934-4.25-.934-7.098c0-2.949.309-5.387.934-7.32s1.617-3.465 2.992-4.594 3.156-1.922 5.348-2.383 4.856-.687 7.996-.687c2.227 0 4.09.117 5.594.344s2.734.516 3.68.859c.965.344 1.695.723 2.184 1.133.508.391.875.762 1.106 1.105V.786h4.711v37.727h-4.711V34.31l-1.176 1.402c-.687.672-1.449 1.211-2.281 1.621s-2.004.801-3.512 1.18c-1.504.359-3.367.539-5.594.539zm0-3.684l4.195-.098c1.227-.082 2.309-.246 3.238-.492s1.719-.605 2.356-1.082c.656-.492 1.188-1.137 1.598-1.937s.703-1.793.883-2.973c.195-1.195.293-2.629.293-4.301 0-1.734-.098-3.207-.293-4.418-.18-1.23-.477-2.254-.883-3.07-.41-.836-.941-1.492-1.598-1.965-.637-.477-1.422-.836-2.356-1.082-.93-.262-2.012-.426-3.238-.492l-4.195-.098-4.758.172c-1.324.117-2.453.32-3.387.613s-1.691.707-2.281 1.23c-.574.523-1.023 1.195-1.348 2.012-.312.82-.523 1.813-.641 2.973l-.145 4.055.145 4.027c.117 1.129.328 2.102.641 2.922.324.801.773 1.465 1.348 1.988.59.523 1.352.934 2.281 1.23s2.063.496 3.387.613l4.758.172zm32.977-21.566v24.711h-4.711V13.802h-4.711V10.22h4.711v-.246c0-1.918.211-3.512.637-4.789s1.129-2.301 2.109-3.07S367.779.802 369.38.494c1.621-.328 3.609-.492 5.965-.492h5.469v3.93h-5.496l-3.727.098c-1 .066-1.809.285-2.43.664-.605.375-1.039.973-1.301 1.793s-.391 1.98-.391 3.488v.246h13.344v3.582zm15.699 10.367c0-2.898.313-5.297.934-7.195s1.617-3.406 2.992-4.52 3.156-1.891 5.348-2.336c2.191-.457 4.859-.687 8-.687s5.805.23 7.996.688c2.191.445 3.977 1.223 5.348 2.336s2.375 2.617 2.996 4.52.93 4.297.93 7.195-.309 5.305-.93 7.219-1.621 3.438-2.996 4.57-3.156 1.93-5.348 2.406c-2.191.457-4.856.688-7.996.688s-5.809-.23-8-.687c-2.191-.477-3.973-1.277-5.348-2.406s-2.371-2.652-2.992-4.57-.934-4.32-.934-7.219zm4.711 0l.172 4.102c.113 1.16.328 2.16.637 2.996.328.836.777 1.512 1.352 2.039s1.324.941 2.258 1.25 2.059.523 3.383.641l4.762.172 4.195-.098c1.242-.082 2.32-.254 3.238-.516.934-.262 1.727-.633 2.379-1.105.652-.492 1.176-1.156 1.57-1.992.41-.832.703-1.855.883-3.07.195-1.227.297-2.699.297-4.418 0-1.687-.102-3.121-.297-4.301-.18-1.195-.473-2.191-.883-2.996-.395-.801-.918-1.43-1.57-1.891-.652-.473-1.445-.824-2.379-1.055-.918-.246-1.996-.402-3.238-.469l-4.195-.098-4.223.098c-1.223.066-2.305.223-3.238.469-.914.23-1.699.582-2.356 1.055-.652.461-1.184 1.09-1.594 1.891-.391.805-.687 1.801-.883 2.996-.18 1.18-.27 2.613-.27 4.301zm61.137 14.344l-11.332-11.84-11.336 11.84h-6.281l14.477-14.395-13.789-13.898h6.281l10.77 10.926 10.527-10.926h6.277l-13.785 13.875 14.473 14.418zm24.34 0V.786h37.684v3.93h-32.973V17.29h31.402v3.93h-31.402v13.363h32.973v3.93zm67.711-21.223l6.652.32c1.848.215 3.398.531 4.66.957 1.273.41 2.289.926 3.043 1.547s1.332 1.336 1.742 2.137c.406.789.668 1.672.785 2.652.129.984.195 2.047.195 3.195s-.105 2.227-.32 3.242a8.06 8.06 0 0 1-1.078 2.75c-.523.836-1.234 1.578-2.137 2.234s-2.043 1.211-3.434 1.668-3.066.805-5.031 1.035c-1.945.242-4.227.367-6.844.367h-6.281c-2.356 0-4.414-.09-6.18-.27s-3.289-.453-4.566-.812c-1.273-.375-2.328-.844-3.164-1.398-.832-.574-1.504-1.238-2.012-1.988-.488-.77-.832-1.641-1.027-2.605-.199-.98-.297-2.062-.297-3.242h4.711c0 1.473.211 2.629.637 3.465s1.129 1.465 2.109 1.891c.984.41 2.266.672 3.856.785l5.934.148h6.281c2.75 0 5.031-.133 6.844-.395s3.266-.68 4.344-1.254 1.84-1.316 2.281-2.234c.441-.934.664-2.062.664-3.387s-.156-2.434-.465-3.316c-.297-.883-.895-1.59-1.793-2.113-.883-.523-2.133-.891-3.754-1.105-1.617-.227-3.738-.344-6.356-.344h-6.477c-2.879 0-5.348-.105-7.406-.316-2.047-.215-3.762-.52-5.152-.91-1.391-.41-2.504-.91-3.336-1.5-.836-.605-1.473-1.293-1.914-2.062a7.37 7.37 0 0 1-.836-2.555c-.133-.949-.195-1.973-.195-3.07 0-1.145.098-2.207.293-3.191.215-.98.598-1.867 1.152-2.652.559-.801 1.316-1.516 2.281-2.137s2.203-1.137 3.707-1.547c1.519-.426 3.344-.746 5.469-.957s4.629-.32 7.508-.32h4.711l6.184.27c1.766.164 3.285.434 4.563.813 1.277.359 2.332.816 3.164 1.375.852.539 1.523 1.195 2.012 1.965.508.754.859 1.613 1.055 2.578s.297 2.039.297 3.219h-4.711c0-1.477-.211-2.629-.637-3.465s-1.129-1.457-2.113-1.867c-.98-.426-2.273-.687-3.875-.785l-5.937-.172h-4.711l-7.75.344c-2.031.211-3.633.582-4.809 1.106s-1.996 1.227-2.453 2.113-.687 1.988-.687 3.313c0 .82.055 1.551.172 2.188s.344 1.203.684 1.695c.363.473.859.875 1.5 1.203s1.481.598 2.527.809 2.32.371 3.824.469l5.422.121zm68.105 21.223h-4.707v-7.074l-.074-2.949c-.031-.832-.172-1.547-.418-2.137-.23-.59-.598-1.062-1.106-1.422s-1.227-.641-2.156-.836-2.121-.328-3.559-.395l-5.273-.121h-21.172v14.934h-4.711V.787h26.668l7.262.32c1.977.195 3.606.5 4.883.91 1.289.406 2.281.914 2.969 1.52.703.605 1.207 1.32 1.519 2.137.328.82.516 1.738.563 2.754l.102 3.363c0 1.57-.117 2.953-.344 4.148-.215 1.18-.582 2.188-1.106 3.023s-1.219 1.504-2.086 2.012c-.867.492-1.953.836-3.262 1.031 1.309.199 2.356.543 3.141 1.035s1.391 1.129 1.816 1.914.703 1.719.832 2.801c.148 1.078.219 2.309.219 3.684zM570.708 19.65h21.957l5.273-.098c1.441-.082 2.625-.223 3.559-.418s1.652-.477 2.156-.836.875-.836 1.106-1.426c.246-.59.383-1.293.418-2.109l.074-2.973-.074-2.75c-.035-.77-.172-1.418-.418-1.941-.23-.523-.598-.941-1.106-1.254s-1.227-.547-2.156-.711c-.934-.18-2.117-.293-3.559-.344l-5.273-.074h-21.957z" fill="url(#A)"/></svg>