<?xml version="1.0" encoding="UTF-8"?>
<svg version="1.1" width="610px" height="48px" viewBox="0 0 610 48" xmlns="http://www.w3.org/2000/svg">
<defs>
<linearGradient id="a" x1="119.38" x2="119.38" y1="-12.154" y2="576.84" gradientTransform="scale(.066688 .066759)" gradientUnits="userSpaceOnUse">
<stop stop-color="#f3862d" offset="0"/>
<stop stop-color="#de6113" offset=".5"/>
<stop stop-color="#c84f13" offset="1"/>
</linearGradient>
</defs>
<path d="m0 38.512v-37.727h37.684v3.9297h-32.973v12.574h31.402v3.9297h-31.402v13.363h32.973v3.9297zm41.609-14.098c0-1.9648 0.097656-3.7031 0.29297-5.207 0.19922-1.5078 0.54297-2.8164 1.0312-3.9297 0.50781-1.1133 1.1797-2.0391 2.0117-2.7773 0.85156-0.75391 1.9141-1.3594 3.1914-1.8164 1.2891-0.45703 2.8203-0.78516 4.5859-0.98438 1.7656-0.19531 3.8281-0.29297 6.1836-0.29297 3.1406 0 5.7227 0.19531 7.7539 0.58984 2.0273 0.375 3.6289 0.96484 4.8047 1.7695 1.1797 0.78516 1.9961 1.793 2.457 3.0195 0.45703 1.2109 0.68359 2.6602 0.68359 4.3477h-4.707c0-0.60547-0.019532-1.1719-0.050782-1.6953s-0.15625-1-0.36719-1.4258c-0.19531-0.42578-0.51562-0.80078-0.95703-1.1289-0.44141-0.34375-1.0703-0.62891-1.8906-0.85937-0.81641-0.23047-1.8555-0.40234-3.1133-0.51563-1.2461-0.11328-2.7812-0.17187-4.6133-0.17187-2.0938 0-3.8594 0.074218-5.3008 0.22266-1.4219 0.14453-2.6016 0.39062-3.5312 0.73438-0.93359 0.32812-1.6523 0.77734-2.1602 1.3516-0.50781 0.55859-0.875 1.2461-1.1055 2.0625-0.22656 0.82031-0.36719 1.7852-0.41406 2.8984-0.035156 1.0977-0.050781 2.3672-0.050781 3.8086 0 1.4062 0.015625 2.6602 0.050781 3.7578 0.046875 1.0781 0.1875 2.0273 0.41406 2.8477 0.23047 0.80078 0.59766 1.4805 1.1055 2.0391 0.50781 0.55469 1.2266 1.0078 2.1602 1.3516 0.92969 0.34375 2.1094 0.58594 3.5312 0.73438 1.4414 0.14844 3.207 0.22266 5.3008 0.22266 1.832 0 3.3672-0.066407 4.6133-0.19922 1.2578-0.12891 2.2969-0.31641 3.1133-0.5625 0.82031-0.24609 1.4492-0.55078 1.8906-0.91016 0.44141-0.35937 0.76172-0.76953 0.95703-1.2266 0.21094-0.47656 0.33594-0.99219 0.36719-1.5469 0.03125-0.57422 0.050782-1.1875 0.050782-1.8438h4.707c0 1.7188-0.22656 3.2109-0.68359 4.4688-0.46094 1.2617-1.2773 2.3008-2.457 3.1211-1.1758 0.80078-2.7773 1.3984-4.8047 1.793-2.0312 0.39453-4.6133 0.58984-7.7539 0.58984-2.3555 0-4.418-0.097656-6.1836-0.29688-1.7656-0.19531-3.2969-0.51562-4.5859-0.95703-1.2773-0.45703-2.3398-1.0547-3.1914-1.793-0.83203-0.73438-1.5039-1.6445-2.0117-2.7266-0.48828-1.0781-0.83203-2.3477-1.0312-3.8047-0.19531-1.4727-0.29297-3.1602-0.29297-5.0586zm40.871-23.629h4.7109v37.727h-4.7109zm14.133 9.4336h4.7109v28.293h-4.7109zm4.7109-4.7188h-4.7109v-4.7148h4.7109zm25.125 3.9297c3.1367 0 5.8047 0.23828 7.9961 0.71484 2.1914 0.47266 3.9727 1.2852 5.3477 2.4297 1.375 1.1484 2.3711 2.6875 2.9922 4.6172 0.625 1.918 0.93359 4.3242 0.93359 7.2227 0 2.8477-0.30859 5.2148-0.93359 7.0977-0.62109 1.8828-1.6172 3.3789-2.9922 4.4922-1.375 1.1133-3.1562 1.8984-5.3477 2.3594-2.1914 0.45703-4.8594 0.6875-7.9961 0.6875-2.2422 0-4.1172-0.125-5.6211-0.36719-1.5039-0.24609-2.7383-0.55078-3.7031-0.91016-0.94922-0.37891-1.6758-0.77734-2.1836-1.2031-0.49219-0.42578-0.84375-0.82812-1.0547-1.2031v12.574h-4.7109v-37.723h4.7109v2.625c0.21094-0.32812 0.5625-0.6875 1.0547-1.0781 0.50781-0.41016 1.2344-0.78906 2.1836-1.1328 0.96484-0.34375 2.1992-0.62891 3.7031-0.85937 1.5039-0.22656 3.3789-0.34375 5.6211-0.34375zm0 3.9297c-1.5742 0-2.9727 0.042969-4.1953 0.125-1.2305 0.082031-2.3086 0.25391-3.2383 0.51562-0.93359 0.24609-1.7266 0.61328-2.3828 1.1055-0.63672 0.47266-1.1602 1.1211-1.5703 1.9375-0.40625 0.80469-0.71094 1.8008-0.90625 2.9961-0.17969 1.1953-0.26953 2.6289-0.26953 4.3008 0 1.6836 0.089843 3.1328 0.26953 4.3477 0.19531 1.2109 0.5 2.2266 0.90625 3.043 0.41016 0.80469 0.93359 1.4492 1.5703 1.9414 0.65625 0.47266 1.4492 0.84375 2.3828 1.1055 0.92969 0.24609 2.0078 0.41016 3.2383 0.49219 1.2227 0.0625 2.6211 0.097657 4.1953 0.097657 1.8281 0 3.4062-0.058594 4.7344-0.17188 1.3398-0.11719 2.4766-0.32031 3.4102-0.61328 0.92969-0.29688 1.6836-0.70703 2.2539-1.2305 0.58984-0.52344 1.0391-1.1875 1.3516-1.9883 0.32812-0.82031 0.53906-1.793 0.63672-2.9219 0.11719-1.1484 0.17187-2.4883 0.17187-4.0273 0-1.5391-0.054687-2.8828-0.17187-4.0312-0.097657-1.1445-0.30859-2.125-0.63672-2.9453-0.3125-0.82031-0.76172-1.4883-1.3516-2.0156-0.57031-0.52344-1.3242-0.94141-2.2539-1.25-0.93359-0.3125-2.0703-0.52344-3.4102-0.64062-1.3281-0.11328-2.9062-0.17188-4.7344-0.17188zm39.25 12.258c-2.2227 0-4.1758-0.035157-5.8633-0.097657-1.6836-0.066406-3.1367-0.19922-4.3633-0.39453-1.2109-0.21484-2.2266-0.50781-3.043-0.88281-0.80078-0.37891-1.4414-0.87891-1.9141-1.5-0.47656-0.63672-0.80859-1.418-1.0078-2.332-0.19531-0.93359-0.29297-1.9414-0.29297-3.0234 0-1.4727 0.30859-2.707 0.93359-3.707 0.62109-1.0156 1.6172-1.832 2.9922-2.457 1.375-0.63672 3.1562-1.0977 5.3477-1.375 2.1914-0.27734 4.8594-0.41797 8-0.41797 3.1055 0 5.6641 0.16406 7.6758 0.49219 2.0312 0.32812 3.6328 0.83594 4.8086 1.5234 1.1953 0.67188 2.0312 1.5234 2.5039 2.5547 0.47266 1.0312 0.71094 2.2578 0.71094 3.6836h-4.7109c0-0.88281-0.17187-1.6055-0.51562-2.1602-0.32422-0.55859-0.90625-0.99219-1.7422-1.3047-0.83203-0.32422-1.9609-0.54688-3.3828-0.66016-1.4062-0.13281-3.1914-0.19922-5.3477-0.19922-2.3555 0-4.3359 0.035156-5.9375 0.097656-1.6055 0.066407-2.8945 0.23047-3.8789 0.49219-0.98047 0.26172-1.6836 0.66406-2.1094 1.2031-0.42578 0.54297-0.63672 1.2852-0.63672 2.2344 0 0.55859 0.03125 1.1055 0.097657 1.6484 0.082031 0.52344 0.25391 0.95703 0.51562 1.3008 0.26172 0.34375 0.64453 0.60547 1.1523 0.78516 0.50781 0.17969 1.1953 0.32031 2.0625 0.41797 0.88281 0.082032 1.9688 0.13281 3.2617 0.14844h4.6836c2.2266 0 4.1719 0.046875 5.8398 0.14453 1.6875 0.10156 3.1406 0.27344 4.3672 0.51562 1.2266 0.24609 2.2422 0.625 3.043 1.1328 0.80078 0.50781 1.4375 1.0625 1.9141 1.668 0.49219 0.58984 0.83594 1.293 1.0312 2.1133 0.19531 0.80078 0.29297 1.7344 0.29297 2.8008 0 1.0625-0.097656 2.0195-0.29297 2.8711-0.19531 0.83594-0.53906 1.582-1.0312 2.2344-0.49219 0.64062-1.1602 1.1953-2.0117 1.6719-0.83594 0.45703-1.8906 0.83594-3.1641 1.1289-1.2773 0.27734-2.8047 0.48438-4.5898 0.61328-1.7656 0.14844-3.8242 0.22266-6.1797 0.22266-2.9453 0-5.4219-0.14844-7.4375-0.44141-1.9922-0.29688-3.6055-0.76172-4.832-1.4023-1.2266-0.65234-2.1094-1.4961-2.6484-2.5273-0.52344-1.0312-0.78516-2.293-0.78516-3.7812h4.7109c0 0.98047 0.16406 1.7812 0.48828 2.4062 0.34375 0.60547 0.93359 1.0781 1.7695 1.4219 0.83203 0.34375 1.9531 0.58203 3.3594 0.71484 1.4219 0.11328 3.2148 0.17188 5.375 0.17188 1.9609 0 3.6289-0.042969 5.0039-0.125 1.3906-0.097657 2.5508-0.24609 3.4844-0.44141 0.92969-0.19531 1.668-0.43359 2.207-0.71094 0.53906-0.27734 0.94922-0.61328 1.2266-1.0078s0.44922-0.82812 0.51562-1.3008c0.082031-0.49219 0.12109-1.0312 0.12109-1.6211 0-0.53906-0.039062-1.0156-0.12109-1.4258-0.066407-0.42578-0.23047-0.84375-0.49219-1.25-0.26172-0.42578-0.64453-0.74609-1.1523-0.96094-0.50781-0.21094-1.2031-0.38281-2.0859-0.51563-0.86719-0.14453-1.9453-0.24609-3.2383-0.29297-1.293-0.066406-2.8555-0.097656-4.6875-0.097656zm39.258 13.434c-3.1406 0-5.8086-0.21484-8-0.64062-2.1914-0.44141-3.9727-1.1953-5.3477-2.2578-1.375-1.0664-2.3711-2.4883-2.9922-4.2734-0.62109-1.7852-0.93359-4.0273-0.93359-6.7305 0-3.0938 0.3125-5.6484 0.93359-7.6602 0.62109-2.0312 1.6172-3.6445 2.9922-4.8398 1.375-1.1953 3.1562-2.0312 5.3477-2.5039 2.1914-0.47656 4.8594-0.71484 8-0.71484 2.2383 0 4.1758 0.16406 5.8125 0.49219 1.6523 0.32812 3.0586 0.80078 4.2188 1.4258 1.1797 0.62109 2.1289 1.375 2.8477 2.2578 0.73437 0.88672 1.3086 1.8164 1.7148 2.8008 0.42578 0.96484 0.71484 2.1055 0.85938 3.4141 0.16406 1.3086 0.24609 2.6914 0.24609 4.1484l-0.39062 1.5742h-27.871c0 2.1602 0.21094 3.9375 0.63672 5.3281 0.42578 1.375 1.1289 2.3828 2.1094 3.0234 0.98047 0.63672 2.2734 1.0469 3.8789 1.2266 1.6016 0.16406 3.582 0.24609 5.9375 0.24609 2.1562 0 3.9414-0.058594 5.3477-0.17188 1.4219-0.13281 2.5508-0.37109 3.3828-0.71484 0.83594-0.34375 1.418-0.81641 1.7422-1.4219 0.34375-0.625 0.51562-1.4258 0.51562-2.4062h4.7109c0 1.5195-0.26953 2.8242-0.80859 3.9023-0.52344 1.0664-1.3984 1.9336-2.625 2.6055-1.2266 0.65234-2.8477 1.1289-4.8594 1.4219-1.9961 0.3125-4.4648 0.46875-7.4062 0.46875zm0-25.691c-1.5703 0-2.9805 0.035156-4.2227 0.097656-1.2266 0.066407-2.3047 0.21484-3.2383 0.44531-0.91406 0.21094-1.6992 0.53125-2.3555 0.95703-0.65234 0.41016-1.1836 0.89844-1.5938 1.4727-0.39062 0.55859-0.6875 1.3516-0.88281 2.3828-0.17969 1.0156-0.26953 2.2422-0.26953 3.6836h23.551c0-1.9141-0.20312-3.4141-0.61328-4.4961-0.40625-1.0938-1.0547-1.9961-1.9375-2.6992-0.88281-0.70312-2.0195-1.1875-3.4102-1.4492-1.3906-0.26172-3.0664-0.39453-5.0273-0.39453zm57.309 6.0664c0-1.1797-0.089844-2.1523-0.26953-2.9219-0.16406-0.78516-0.5625-1.4062-1.2031-1.8672-0.63672-0.47266-1.5859-0.80078-2.8438-0.98047-1.2422-0.19922-2.9453-0.29688-5.1055-0.29688-2.1094 0-3.8242 0.1875-5.1523 0.56641-1.3242 0.35938-2.3633 0.875-3.1133 1.5469-0.75391 0.67188-1.2695 1.4727-1.5469 2.4062-0.26172 0.93359-0.39062 1.9727-0.39062 3.1211v17.512h-4.7109v-28.293h4.7109v4.4922c0.16406-0.50781 0.46484-1.0625 0.90625-1.668 0.44141-0.625 1.1133-1.1953 2.0117-1.7227 0.89844-0.53906 2.0625-0.98828 3.4844-1.3477 1.4375-0.36328 3.2305-0.54297 5.3711-0.54297 2.4531 0 4.4492 0.22266 5.9883 0.66406 1.5352 0.42578 2.7305 1.0664 3.582 1.9141 0.86719 0.83594 1.4453 1.875 1.7422 3.1211 0.30859 1.2461 0.46484 2.6758 0.46484 4.2969zm40.039-2.1367c0.78516 0 1.4727-0.0625 2.0625-0.19531 0.58984-0.13281 1.0703-0.38672 1.4453-0.76172 0.39453-0.39453 0.6875-0.94922 0.88281-1.668 0.19922-0.72266 0.29688-1.6719 0.29688-2.8516 0-1.3086-0.097657-2.4141-0.29688-3.3164-0.19531-0.89844-0.52344-1.6445-0.98047-2.2344-0.45703-0.58984-1.0781-1.0391-1.8633-1.3516-0.76953-0.30859-1.7344-0.53906-2.8945-0.6875-1.1602-0.14453-2.5352-0.22656-4.1211-0.24219-1.5859-0.035157-3.4297-0.050781-5.5234-0.050781-2.875 0-5.3047 0.039062-7.2852 0.12109-1.9609 0.066407-3.5898 0.20703-4.8828 0.41797-1.2734 0.19922-2.2578 0.47656-2.9414 0.83594-0.6875 0.35937-1.1953 0.83594-1.5234 1.4258-0.30859 0.57031-0.5 1.2773-0.5625 2.1094-0.050782 0.83594-0.074219 1.8203-0.074219 2.9492h-4.7109c0-1.9805 0.21094-3.6523 0.63672-5.0117 0.44141-1.3594 1.082-2.4727 1.9141-3.3398 0.85156-0.88281 1.8984-1.5547 3.1406-2.0117 1.2422-0.47656 2.6758-0.8125 4.293-1.0078 1.6367-0.21484 3.4531-0.33594 5.4492-0.36719 2.0078-0.035156 4.1914-0.050781 6.5469-0.050781s4.4922 0.039062 6.4062 0.12109c1.9297 0.066406 3.6445 0.23047 5.1523 0.49219 1.5195 0.26172 2.8359 0.64844 3.9492 1.1562 1.1094 0.50781 2.0273 1.2031 2.7461 2.0859 0.73828 0.86719 1.2773 1.9492 1.6211 3.2422 0.35938 1.293 0.53906 2.8555 0.53906 4.6914 0 1.1797-0.082031 2.1758-0.24609 2.9961-0.14453 0.82031-0.38281 1.5156-0.71094 2.0859-0.3125 0.55859-0.71094 1.0234-1.2031 1.4023-0.48828 0.35937-1.0781 0.6875-1.7656 0.98047 0.6875 0.29688 1.2773 0.67188 1.7656 1.1289 0.49219 0.46094 0.89062 1.0234 1.2031 1.6953 0.32812 0.65625 0.56641 1.4336 0.71094 2.3359 0.16406 0.88281 0.24609 1.9141 0.24609 3.0938 0 1.832-0.17969 3.3984-0.53906 4.6914-0.34375 1.293-0.88281 2.3828-1.6211 3.2656-0.71875 0.86719-1.6367 1.5547-2.7461 2.0625-1.1133 0.50781-2.4297 0.89062-3.9492 1.1562-1.5078 0.26172-3.2227 0.42578-5.1523 0.48828-1.9141 0.082031-4.0508 0.125-6.4062 0.125s-4.5391-0.015625-6.5469-0.050781c-1.9961-0.03125-3.8125-0.16406-5.4492-0.39062-1.6172-0.23047-3.0508-0.58984-4.293-1.082-1.2422-0.50781-2.2891-1.2266-3.1406-2.1602-0.83203-0.93359-1.4727-2.1211-1.9141-3.5625-0.42578-1.4414-0.63672-3.2188-0.63672-5.3281h4.7109c0 1.2422 0.03125 2.3242 0.097656 3.2422 0.066406 0.89844 0.25391 1.668 0.5625 2.3086 0.3125 0.63672 0.8125 1.1602 1.5 1.5703 0.68359 0.39453 1.668 0.70312 2.9414 0.93359 1.293 0.23047 2.9219 0.38281 4.8828 0.46484 1.9805 0.082031 4.4102 0.125 7.2852 0.125 2.0938 0 3.9375-0.007813 5.5234-0.027344 1.5859-0.03125 2.9609-0.12109 4.1211-0.26953 1.1602-0.14453 2.125-0.375 2.8945-0.6875 0.78516-0.30859 1.4062-0.76172 1.8633-1.3516 0.45703-0.58594 0.78516-1.332 0.98047-2.2344 0.19922-0.89844 0.29688-2.0039 0.29688-3.3125 0-1.3789-0.097657-2.4727-0.29688-3.293-0.19531-0.83594-0.48828-1.4727-0.88281-1.9141-0.375-0.44531-0.85547-0.73047-1.4453-0.85938-0.58984-0.13281-1.2773-0.19922-2.0625-0.19922h-17.27v-3.9297zm32.188 21.762c-3.1406 0-5.8047-0.23047-7.9961-0.6875-2.1914-0.46094-3.9766-1.2461-5.3477-2.3594-1.375-1.1133-2.3711-2.6094-2.9922-4.4922-0.625-1.8828-0.93359-4.25-0.93359-7.0977 0-2.9492 0.30859-5.3867 0.93359-7.3203 0.62109-1.9336 1.6172-3.4648 2.9922-4.5938 1.3711-1.1289 3.1562-1.9219 5.3477-2.3828 2.1914-0.45703 4.8555-0.6875 7.9961-0.6875 2.2266 0 4.0898 0.11719 5.5938 0.34375 1.5078 0.23047 2.7344 0.51562 3.6797 0.85937 0.96484 0.34375 1.6953 0.72266 2.1836 1.1328 0.50781 0.39062 0.875 0.76172 1.1055 1.1055v-12.086h4.7109v37.727h-4.7109v-4.2031s-0.39063 0.46875-1.1758 1.4023c-0.6875 0.67187-1.4492 1.2109-2.2812 1.6211-0.83594 0.41016-2.0039 0.80078-3.5117 1.1797-1.5039 0.35938-3.3672 0.53906-5.5938 0.53906zm0-3.6836c1.5703 0 2.9688-0.035157 4.1953-0.097657 1.2266-0.082031 2.3086-0.24609 3.2383-0.49219 0.93359-0.24609 1.7188-0.60547 2.3555-1.082 0.65625-0.49219 1.1875-1.1367 1.5977-1.9375 0.40625-0.80469 0.70312-1.793 0.88281-2.9727 0.19531-1.1953 0.29297-2.6289 0.29297-4.3008 0-1.7344-0.097657-3.207-0.29297-4.418-0.17969-1.2305-0.47656-2.2539-0.88281-3.0703-0.41016-0.83594-0.94141-1.4922-1.5977-1.9648-0.63672-0.47656-1.4219-0.83594-2.3555-1.082-0.92969-0.26172-2.0117-0.42578-3.2383-0.49219-1.2266-0.0625-2.625-0.097656-4.1953-0.097656-1.832 0-3.418 0.058594-4.7578 0.17188-1.3242 0.11719-2.4531 0.32031-3.3867 0.61328-0.92969 0.29688-1.6914 0.70703-2.2812 1.2305-0.57422 0.52344-1.0234 1.1953-1.3477 2.0117-0.3125 0.82031-0.52344 1.8125-0.64062 2.9727-0.097656 1.1484-0.14453 2.4961-0.14453 4.0547 0 1.5391 0.046875 2.8789 0.14453 4.0273 0.11719 1.1289 0.32812 2.1016 0.64062 2.9219 0.32422 0.80078 0.77344 1.4648 1.3477 1.9883 0.58984 0.52344 1.3516 0.93359 2.2812 1.2305 0.93359 0.29297 2.0625 0.49609 3.3867 0.61328 1.3398 0.11328 2.9258 0.17188 4.7578 0.17188zm32.977-21.566v24.711h-4.7109v-24.711h-4.7109v-3.582h4.7109v-0.24609c0-1.918 0.21094-3.5117 0.63672-4.7891s1.1289-2.3008 2.1094-3.0703c0.98047-0.76953 2.2734-1.3125 3.875-1.6211 1.6211-0.32813 3.6094-0.49219 5.9648-0.49219h5.4688v3.9297h-5.4961c-1.4883 0-2.7305 0.03125-3.7266 0.097656-1 0.066406-1.8086 0.28516-2.4297 0.66406-0.60547 0.375-1.0391 0.97266-1.3008 1.793-0.26172 0.81641-0.39062 1.9805-0.39062 3.4883v0.24609h13.344v3.582zm15.699 10.367c0-2.8984 0.3125-5.2969 0.93359-7.1953 0.62109-1.9023 1.6172-3.4062 2.9922-4.5195s3.1562-1.8906 5.3477-2.3359c2.1914-0.45703 4.8594-0.6875 8-0.6875s5.8047 0.23047 7.9961 0.6875c2.1914 0.44531 3.9766 1.2227 5.3477 2.3359 1.375 1.1133 2.375 2.6172 2.9961 4.5195 0.62109 1.8984 0.92969 4.2969 0.92969 7.1953 0 2.8984-0.30859 5.3047-0.92969 7.2188-0.62109 1.918-1.6211 3.4375-2.9961 4.5703-1.3711 1.1289-3.1562 1.9297-5.3477 2.4062-2.1914 0.45703-4.8555 0.6875-7.9961 0.6875s-5.8086-0.23047-8-0.6875c-2.1914-0.47656-3.9727-1.2773-5.3477-2.4062-1.375-1.1328-2.3711-2.6523-2.9922-4.5703-0.62109-1.9141-0.93359-4.3203-0.93359-7.2188zm4.7109 0c0 1.5703 0.058594 2.9375 0.17188 4.1016 0.11328 1.1602 0.32812 2.1602 0.63672 2.9961 0.32812 0.83594 0.77734 1.5117 1.3516 2.0391 0.57031 0.52344 1.3242 0.94141 2.2578 1.25 0.92969 0.3125 2.0586 0.52344 3.3828 0.64062 1.3438 0.11328 2.9297 0.17188 4.7617 0.17188 1.5703 0 2.9688-0.035157 4.1953-0.097657 1.2422-0.082031 2.3203-0.25391 3.2383-0.51562 0.93359-0.26172 1.7266-0.63281 2.3789-1.1055 0.65234-0.49219 1.1758-1.1562 1.5703-1.9922 0.41016-0.83203 0.70312-1.8555 0.88281-3.0703 0.19531-1.2266 0.29688-2.6992 0.29688-4.418 0-1.6875-0.10156-3.1211-0.29688-4.3008-0.17969-1.1953-0.47266-2.1914-0.88281-2.9961-0.39453-0.80078-0.91797-1.4297-1.5703-1.8906-0.65234-0.47266-1.4453-0.82422-2.3789-1.0547-0.91797-0.24609-1.9961-0.40234-3.2383-0.46875-1.2266-0.0625-2.625-0.097656-4.1953-0.097656-1.5703 0-2.9766 0.035156-4.2227 0.097656-1.2227 0.066407-2.3047 0.22266-3.2383 0.46875-0.91406 0.23047-1.6992 0.58203-2.3555 1.0547-0.65234 0.46094-1.1836 1.0898-1.5938 1.8906-0.39062 0.80469-0.6875 1.8008-0.88281 2.9961-0.17969 1.1797-0.26953 2.6133-0.26953 4.3008zm61.137 14.344-11.332-11.84-11.336 11.84h-6.2812l14.477-14.395-13.789-13.898h6.2812l10.77 10.926 10.527-10.926h6.2773l-13.785 13.875 14.473 14.418zm24.34 0v-37.727h37.684v3.9297h-32.973v12.574h31.402v3.9297h-31.402v13.363h32.973v3.9297zm67.711-21.223c2.5859 0 4.8008 0.10938 6.6523 0.32031 1.8477 0.21484 3.3984 0.53125 4.6602 0.95703 1.2734 0.41016 2.2891 0.92578 3.043 1.5469 0.75 0.625 1.332 1.3359 1.7422 2.1367 0.40625 0.78906 0.66797 1.6719 0.78516 2.6523 0.12891 0.98438 0.19531 2.0469 0.19531 3.1953 0 1.1445-0.10547 2.2266-0.32031 3.2422-0.19531 0.99609-0.55469 1.9141-1.0781 2.75-0.52344 0.83594-1.2344 1.5781-2.1367 2.2344-0.89844 0.65625-2.043 1.2109-3.4336 1.668-1.3906 0.46094-3.0664 0.80469-5.0312 1.0352-1.9453 0.24219-4.2266 0.36719-6.8438 0.36719h-6.2812c-2.3555 0-4.4141-0.089843-6.1797-0.26953-1.7695-0.17969-3.2891-0.45312-4.5664-0.8125-1.2734-0.375-2.3281-0.84375-3.1641-1.3984-0.83203-0.57422-1.5039-1.2383-2.0117-1.9883-0.48828-0.76953-0.83203-1.6406-1.0273-2.6055-0.19922-0.98047-0.29687-2.0625-0.29687-3.2422h4.7109c0 1.4727 0.21094 2.6289 0.63672 3.4648 0.42578 0.83203 1.1289 1.4648 2.1094 1.8906 0.98438 0.41016 2.2656 0.67188 3.8555 0.78516 1.6016 0.097656 3.5781 0.14844 5.9336 0.14844h6.2812c2.75 0 5.0312-0.13281 6.8438-0.39453 1.8164-0.26172 3.2656-0.67969 4.3438-1.2539 1.082-0.57031 1.8398-1.3164 2.2812-2.2344 0.44141-0.93359 0.66406-2.0625 0.66406-3.3867 0-1.3281-0.15625-2.4336-0.46484-3.3164-0.29688-0.88281-0.89453-1.5898-1.793-2.1133-0.88281-0.52344-2.1328-0.89062-3.7539-1.1055-1.6172-0.22656-3.7383-0.34375-6.3555-0.34375h-6.4766c-2.8789 0-5.3477-0.10547-7.4062-0.31641-2.0469-0.21484-3.7617-0.51953-5.1523-0.91016-1.3906-0.41016-2.5039-0.91016-3.3359-1.5-0.83594-0.60547-1.4727-1.293-1.9141-2.0625-0.42578-0.76953-0.70312-1.6211-0.83594-2.5547-0.13281-0.94922-0.19531-1.9727-0.19531-3.0703 0-1.1445 0.097656-2.207 0.29297-3.1914 0.21484-0.98047 0.59766-1.8672 1.1523-2.6523 0.55859-0.80078 1.3164-1.5156 2.2812-2.1367 0.96484-0.62109 2.2031-1.1367 3.707-1.5469 1.5195-0.42578 3.3438-0.74609 5.4688-0.95703 2.1289-0.21484 4.6289-0.32031 7.5078-0.32031h4.7109c2.3555 0 4.418 0.089844 6.1836 0.26953 1.7656 0.16406 3.2852 0.43359 4.5625 0.8125 1.2773 0.35938 2.332 0.81641 3.1641 1.375 0.85156 0.53906 1.5234 1.1953 2.0117 1.9648 0.50781 0.75391 0.85938 1.6133 1.0547 2.5781 0.19922 0.96484 0.29688 2.0391 0.29688 3.2188h-4.7109c0-1.4766-0.21094-2.6289-0.63672-3.4648-0.42578-0.83594-1.1289-1.457-2.1133-1.8672-0.98047-0.42578-2.2734-0.6875-3.875-0.78516-1.6016-0.11328-3.582-0.17187-5.9375-0.17187h-4.7109c-3.1406 0-5.7227 0.11328-7.75 0.34375-2.0312 0.21094-3.6328 0.58203-4.8086 1.1055-1.1797 0.52344-1.9961 1.2266-2.4531 2.1133-0.46094 0.88281-0.6875 1.9883-0.6875 3.3125 0 0.82031 0.054687 1.5508 0.17187 2.1875 0.11328 0.63672 0.34375 1.2031 0.68359 1.6953 0.36328 0.47266 0.85938 0.875 1.5 1.2031 0.63672 0.32812 1.4805 0.59766 2.5273 0.80859 1.043 0.21484 2.3203 0.37109 3.8242 0.46875 1.5234 0.082031 3.3281 0.12109 5.4219 0.12109zm68.105 21.223h-4.707v-7.0742c0-1.1484-0.027344-2.1289-0.074219-2.9492-0.03125-0.83203-0.17188-1.5469-0.41797-2.1367-0.23047-0.58984-0.59766-1.0625-1.1055-1.4219-0.50391-0.36328-1.2266-0.64063-2.1562-0.83594-0.93359-0.19531-2.1211-0.32812-3.5586-0.39453-1.4219-0.082031-3.1797-0.12109-5.2734-0.12109h-21.172v14.934h-4.7109v-37.727h26.668c2.8789 0 5.2969 0.10547 7.2617 0.32031 1.9766 0.19531 3.6055 0.5 4.8828 0.91016 1.2891 0.40625 2.2812 0.91406 2.9688 1.5195 0.70312 0.60547 1.207 1.3203 1.5195 2.1367 0.32812 0.82031 0.51562 1.7383 0.5625 2.7539 0.066406 1.0117 0.10156 2.1367 0.10156 3.3633 0 1.5703-0.11719 2.9531-0.34375 4.1484-0.21484 1.1797-0.58203 2.1875-1.1055 3.0234-0.52344 0.83594-1.2188 1.5039-2.0859 2.0117-0.86719 0.49219-1.9531 0.83594-3.2617 1.0312 1.3086 0.19922 2.3555 0.54297 3.1406 1.0352 0.78516 0.48828 1.3906 1.1289 1.8164 1.9141 0.42188 0.78516 0.70312 1.7188 0.83203 2.8008 0.14844 1.0781 0.21875 2.3086 0.21875 3.6836zm-38.465-18.863h21.957c2.0938 0 3.8516-0.035157 5.2734-0.097657 1.4414-0.082031 2.625-0.22266 3.5586-0.41797 0.92969-0.19531 1.6523-0.47656 2.1562-0.83594 0.50781-0.35938 0.875-0.83594 1.1055-1.4258 0.24609-0.58984 0.38281-1.293 0.41797-2.1094 0.046875-0.83594 0.074219-1.8281 0.074219-2.9727 0-1.0664-0.027344-1.9805-0.074219-2.75-0.035156-0.76953-0.17188-1.418-0.41797-1.9414-0.23047-0.52344-0.59766-0.94141-1.1055-1.2539-0.50391-0.30859-1.2266-0.54688-2.1562-0.71094-0.93359-0.17969-2.1172-0.29297-3.5586-0.34375-1.4219-0.050781-3.1797-0.074218-5.2734-0.074218h-21.957z" fill="url(#a)"/>
</svg>
