<svg xmlns="http://www.w3.org/2000/svg" width="396" height="42"><defs><linearGradient id="A" x1="4.916" x2="4.916" y1="-.864" y2="40.994" gradientUnits="userSpaceOnUse"><stop stop-color="#f3862d" offset="0"/><stop stop-color="#de6113" offset=".5"/><stop stop-color="#c84f13" offset="1"/></linearGradient></defs><path d="M25.902 20.68c0-1.254-.094-2.293-.285-3.109a3.15 3.15 0 0 0-1.281-1.988c-.68-.504-1.687-.855-3.027-1.047-1.324-.207-3.133-.312-5.434-.312-2.246 0-4.07.199-5.481.602-1.41.383-2.516.934-3.316 1.648s-1.352 1.566-1.648 2.559c-.277.996-.418 2.102-.418 3.32v18.641H0V10.876h5.012v4.785c.176-.539.496-1.133.969-1.777.469-.664 1.184-1.273 2.141-1.832.957-.574 2.195-1.055 3.707-1.437 1.531-.383 3.438-.574 5.719-.574 2.613 0 4.734.234 6.371.707 1.637.453 2.91 1.133 3.813 2.039.926.887 1.543 1.996 1.855 3.32.332 1.324.496 2.848.496 4.574zm42.617-2.273c.836 0 1.566-.07 2.195-.211s1.141-.41 1.539-.809c.418-.418.73-1.012.941-1.777s.313-1.777.313-3.035c0-1.395-.105-2.57-.312-3.527s-.559-1.754-1.047-2.379S71 5.559 70.164 5.231c-.816-.332-1.844-.578-3.082-.734s-2.695-.242-4.387-.262l-5.875-.051-7.754.129c-2.09.07-3.82.219-5.195.445-1.359.211-2.402.508-3.137.891s-1.27.887-1.617 1.516c-.332.609-.531 1.359-.602 2.246l-.078 3.141h-5.012c0-2.109.227-3.887.676-5.336.473-1.445 1.152-2.633 2.039-3.555.906-.941 2.02-1.656 3.344-2.144 1.32-.504 2.844-.863 4.566-1.07 1.742-.227 3.676-.359 5.797-.395L56.82 0l6.816.129c2.055.07 3.883.246 5.484.523 1.617.281 3.019.691 4.203 1.231s2.16 1.281 2.926 2.223c.781.922 1.356 2.074 1.723 3.449.383 1.379.574 3.043.574 4.996 0 1.254-.086 2.316-.262 3.188-.156.871-.41 1.613-.758 2.223-.328.594-.758 1.09-1.277 1.492-.523.383-1.148.73-1.883 1.043.734.316 1.359.715 1.883 1.203s.949 1.09 1.277 1.805c.348.695.602 1.523.758 2.484.176.941.262 2.039.262 3.293 0 1.953-.191 3.617-.574 4.992-.367 1.379-.941 2.539-1.723 3.48-.766.922-1.742 1.652-2.926 2.195s-2.586.949-4.203 1.227c-1.602.281-3.43.453-5.484.523l-6.816.133a426.18 426.18 0 0 1-6.973-.055c-2.121-.035-4.055-.172-5.797-.418-1.723-.242-3.246-.625-4.566-1.148-1.324-.543-2.437-1.309-3.344-2.301-.887-.996-1.566-2.258-2.039-3.793-.449-1.531-.676-3.426-.676-5.672h5.012l.105 3.449c.07.961.27 1.777.602 2.457s.859 1.238 1.59 1.676c.734.418 1.777.75 3.137.992 1.375.246 3.105.41 5.195.496l7.754.133 5.875-.027 4.387-.289c1.238-.156 2.266-.398 3.082-.73.836-.332 1.496-.809 1.984-1.437s.836-1.422 1.047-2.379.313-2.137.313-3.531c0-1.461-.105-2.629-.312-3.5-.211-.891-.523-1.57-.941-2.043-.398-.469-.914-.773-1.539-.914s-1.359-.207-2.195-.207H50.136v-4.184zm34.262 23.164c-3.344 0-6.184-.246-8.516-.734s-4.231-1.324-5.691-2.508-2.523-2.781-3.184-4.785-.996-4.523-.996-7.555c0-3.137.332-5.734.996-7.793s1.723-3.684 3.184-4.887 3.359-2.051 5.691-2.539 5.172-.73 8.516-.73c2.367 0 4.352.121 5.953.367s2.906.547 3.914.914c1.027.367 1.805.766 2.324 1.203.543.418.934.809 1.176 1.176V.836h5.016v40.156h-5.016v-4.469l-1.254 1.488c-.73.715-1.539 1.293-2.426 1.727s-2.133.855-3.734 1.254c-1.602.387-3.586.578-5.953.578zm0-3.922l4.465-.105c1.305-.086 2.453-.262 3.445-.523s1.828-.645 2.508-1.148c.695-.523 1.262-1.211 1.695-2.066s.75-1.91.941-3.164c.211-1.273.313-2.797.313-4.574 0-1.848-.102-3.418-.312-4.707-.191-1.309-.504-2.395-.941-3.27-.434-.887-1-1.586-1.695-2.09-.68-.504-1.516-.887-2.508-1.148-.992-.281-2.141-.453-3.445-.523l-4.465-.105-5.066.184c-1.41.121-2.613.34-3.606.652s-1.801.75-2.426 1.309c-.613.559-1.09 1.27-1.437 2.145-.332.871-.559 1.926-.68 3.16-.105 1.223-.156 2.66-.156 4.316l.156 4.285c.121 1.203.348 2.242.68 3.113.348.852.824 1.559 1.438 2.117.625.559 1.434.992 2.426 1.309s2.195.531 3.606.652l5.066.184zm35.094-22.957v26.301h-5.016V14.692h-5.012v-3.816h5.012v-.262c0-2.039.227-3.738.68-5.098s1.203-2.449 2.246-3.266S138.207.856 139.91.524C141.637.176 143.75 0 146.258 0h5.824v4.184h-5.852l-3.969.105c-1.062.066-1.922.305-2.586.703-.645.402-1.106 1.039-1.383 1.91s-.418 2.109-.418 3.711v.262h14.207v3.816zm16.711 11.035c0-3.086.332-5.641.992-7.66s1.727-3.625 3.188-4.812 3.359-2.012 5.691-2.484c2.332-.484 5.172-.73 8.516-.73s6.18.246 8.512.73c2.332.473 4.231 1.301 5.691 2.484s2.523 2.789 3.188 4.813.992 4.574.992 7.66-.332 5.645-.992 7.687-1.727 3.66-3.187 4.859-3.359 2.059-5.691 2.563c-2.332.488-5.172.734-8.512.734s-6.184-.246-8.516-.734c-2.332-.504-4.231-1.359-5.691-2.562s-2.523-2.82-3.187-4.859-.992-4.602-.992-7.687zm5.016 0l.184 4.367c.121 1.234.348 2.301.676 3.188.352.891.828 1.613 1.438 2.172s1.41 1 2.402 1.332 2.195.559 3.606.68l5.066.184 4.465-.105c1.32-.086 2.469-.27 3.445-.551.992-.277 1.836-.668 2.531-1.176.699-.523 1.254-1.227 1.672-2.117.438-.887.75-1.977.941-3.266.207-1.309.313-2.879.313-4.707 0-1.797-.105-3.32-.312-4.574-.191-1.273-.504-2.336-.941-3.191-.418-.855-.973-1.523-1.672-2.012-.695-.508-1.539-.883-2.531-1.125-.977-.262-2.125-.426-3.445-.496l-4.465-.105-4.492.105c-1.305.07-2.457.234-3.449.496-.973.242-1.809.617-2.508 1.125-.695.488-1.262 1.156-1.695 2.012-.418.855-.73 1.918-.941 3.191-.191 1.254-.285 2.777-.285 4.574zm65.07 15.266L212.61 28.391l-12.062 12.602h-6.687l15.406-15.32-14.672-14.797h6.684l11.465 11.637 11.199-11.637h6.688l-14.676 14.773 15.406 15.344zm25.906 0V.837h40.109V5.02h-35.098v13.387h33.426v4.184h-33.426v14.223h35.098v4.18zm72.07-22.586l7.078.34c1.965.227 3.621.566 4.961 1.02 1.359.434 2.438.984 3.238 1.648s1.418 1.418 1.852 2.273c.438.836.715 1.777.836 2.824.141 1.043.211 2.176.211 3.398a16.77 16.77 0 0 1-.34 3.449c-.211 1.063-.594 2.039-1.148 2.93s-1.316 1.68-2.273 2.379-2.176 1.289-3.656 1.777-3.262.855-5.352 1.098c-2.07.262-4.5.391-7.285.391h-6.687c-2.504 0-4.699-.094-6.578-.285s-3.5-.48-4.856-.863c-1.359-.402-2.484-.898-3.371-1.492-.887-.609-1.602-1.312-2.141-2.117-.523-.816-.887-1.742-1.098-2.77-.207-1.047-.312-2.195-.312-3.453h5.012c0 1.57.227 2.801.68 3.688s1.203 1.559 2.246 2.012c1.047.438 2.414.715 4.102.84l6.316.156h6.688c2.926 0 5.352-.141 7.285-.418s3.473-.723 4.621-1.336 1.957-1.402 2.43-2.379c.469-.992.703-2.195.703-3.605s-.164-2.59-.496-3.531c-.312-.941-.949-1.691-1.906-2.246-.937-.559-2.269-.953-3.996-1.18-1.723-.242-3.977-.363-6.762-.363h-6.894c-3.062 0-5.691-.113-7.883-.34-2.18-.227-4.008-.551-5.484-.969-1.481-.437-2.664-.969-3.551-1.594-.891-.645-1.566-1.379-2.039-2.195-.453-.82-.746-1.727-.887-2.719-.141-1.012-.211-2.102-.211-3.269 0-1.219.105-2.352.316-3.398.227-1.047.633-1.988 1.227-2.824.59-.855 1.398-1.613 2.426-2.273s2.344-1.211 3.945-1.648c1.617-.453 3.559-.793 5.824-1.02s4.926-.34 7.988-.34h5.016l6.578.289c1.879.172 3.5.461 4.859.859 1.356.387 2.481.875 3.367 1.465.906.578 1.617 1.273 2.141 2.094.539.801.914 1.715 1.125 2.742s.313 2.172.313 3.426h-5.016c0-1.566-.227-2.797-.68-3.684s-1.199-1.555-2.242-1.988c-1.047-.453-2.422-.734-4.129-.836l-6.316-.184h-5.016l-8.25.367c-2.16.227-3.867.617-5.117 1.176s-2.125 1.305-2.613 2.246-.73 2.117-.73 3.531c0 .871.063 1.648.184 2.328s.363 1.281.73 1.801c.383.508.914.934 1.594 1.281s1.574.637 2.688.863 2.473.395 4.074.496l5.769.133zm72.488 22.586h-5.012v-7.527l-.078-3.137c-.035-.891-.184-1.648-.445-2.277-.242-.625-.637-1.133-1.176-1.516s-1.305-.68-2.297-.887-2.254-.348-3.785-.418l-5.617-.133H354.19v15.895h-5.012V.837h28.383l7.731.34c2.106.211 3.84.531 5.195.969 1.379.434 2.43.977 3.16 1.621.75.645 1.289 1.402 1.621 2.273.348.871.547 1.848.598 2.93l.105 3.582c0 1.672-.121 3.145-.363 4.418-.227 1.254-.621 2.324-1.176 3.215s-1.297 1.602-2.219 2.145c-.926.523-2.082.887-3.477 1.098 1.394.207 2.508.574 3.344 1.098s1.481 1.203 1.934 2.039.746 1.828.887 2.98c.156 1.148.234 2.457.234 3.922zm-40.945-20.078h23.371l5.617-.102c1.531-.09 2.793-.238 3.785-.445s1.758-.508 2.297-.891.934-.887 1.176-1.516c.262-.629.41-1.375.445-2.25l.078-3.16-.078-2.93c-.035-.82-.184-1.508-.445-2.066-.242-.559-.637-1-1.176-1.332s-1.305-.586-2.297-.758c-.992-.191-2.254-.312-3.785-.367l-5.617-.078h-23.371z" fill="url(#A)"/></svg>