<?xml version="1.0" encoding="UTF-8"?>
<svg xmlns="http://www.w3.org/2000/svg" xmlns:xlink="http://www.w3.org/1999/xlink" width="396px" height="42px" viewBox="0 0 396 42" version="1.1">
<defs>
<linearGradient id="linear0" gradientUnits="userSpaceOnUse" x1="69.257599" y1="-12.1545" x2="69.257599" y2="576.844971" gradientTransform="matrix(0.0709805,0,0,0.071066,0,0)">
<stop offset="0" style="stop-color:rgb(95.294118%,52.549022%,17.647059%);stop-opacity:1;"/>
<stop offset="0.5" style="stop-color:rgb(87.058824%,38.039216%,7.450981%);stop-opacity:1;"/>
<stop offset="1" style="stop-color:rgb(78.431374%,30.980393%,7.450981%);stop-opacity:1;"/>
</linearGradient>
</defs>
<g id="surface1">
<path style=" stroke:none;fill-rule:nonzero;fill:url(#linear0);" d="M 25.902344 20.679688 C 25.902344 19.425781 25.808594 18.386719 25.617188 17.570312 C 25.441406 16.730469 25.015625 16.070312 24.335938 15.582031 C 23.65625 15.078125 22.648438 14.726562 21.308594 14.535156 C 19.984375 14.328125 18.175781 14.222656 15.875 14.222656 C 13.628906 14.222656 11.804688 14.421875 10.394531 14.824219 C 8.984375 15.207031 7.878906 15.757812 7.078125 16.472656 C 6.277344 17.183594 5.726562 18.039062 5.429688 19.03125 C 5.152344 20.027344 5.011719 21.132812 5.011719 22.351562 L 5.011719 40.992188 L 0 40.992188 L 0 10.875 L 5.011719 10.875 L 5.011719 15.660156 C 5.1875 15.121094 5.507812 14.527344 5.980469 13.882812 C 6.449219 13.21875 7.164062 12.609375 8.121094 12.050781 C 9.078125 11.476562 10.316406 10.996094 11.828125 10.613281 C 13.359375 10.230469 15.265625 10.039062 17.546875 10.039062 C 20.160156 10.039062 22.28125 10.273438 23.917969 10.746094 C 25.554688 11.199219 26.828125 11.878906 27.730469 12.785156 C 28.65625 13.671875 29.273438 14.78125 29.585938 16.105469 C 29.917969 17.429688 30.082031 18.953125 30.082031 20.679688 Z M 68.519531 18.40625 C 69.355469 18.40625 70.085938 18.335938 70.714844 18.195312 C 71.339844 18.058594 71.855469 17.785156 72.253906 17.386719 C 72.671875 16.96875 72.984375 16.375 73.195312 15.609375 C 73.402344 14.839844 73.507812 13.832031 73.507812 12.574219 C 73.507812 11.179688 73.402344 10.003906 73.195312 9.046875 C 72.984375 8.085938 72.636719 7.292969 72.148438 6.667969 C 71.660156 6.039062 71 5.558594 70.164062 5.230469 C 69.347656 4.898438 68.320312 4.652344 67.082031 4.496094 C 65.847656 4.339844 64.386719 4.253906 62.695312 4.234375 C 61.007812 4.199219 59.050781 4.183594 56.820312 4.183594 C 53.757812 4.183594 51.171875 4.226562 49.066406 4.3125 C 46.976562 4.382812 45.246094 4.53125 43.871094 4.757812 C 42.511719 4.96875 41.46875 5.265625 40.734375 5.648438 C 40.003906 6.03125 39.464844 6.535156 39.117188 7.164062 C 38.785156 7.773438 38.585938 8.523438 38.515625 9.410156 C 38.464844 10.300781 38.4375 11.347656 38.4375 12.550781 L 33.425781 12.550781 C 33.425781 10.441406 33.652344 8.664062 34.101562 7.214844 C 34.574219 5.769531 35.253906 4.582031 36.140625 3.660156 C 37.046875 2.71875 38.160156 2.003906 39.484375 1.515625 C 40.804688 1.011719 42.328125 0.652344 44.050781 0.445312 C 45.792969 0.21875 47.726562 0.0859375 49.847656 0.0507812 C 51.992188 0.015625 54.316406 0 56.820312 0 C 59.328125 0 61.601562 0.0429688 63.636719 0.128906 C 65.691406 0.199219 67.519531 0.375 69.121094 0.652344 C 70.738281 0.933594 72.140625 1.34375 73.324219 1.882812 C 74.507812 2.421875 75.484375 3.164062 76.25 4.105469 C 77.03125 5.027344 77.605469 6.179688 77.972656 7.554688 C 78.355469 8.933594 78.546875 10.597656 78.546875 12.550781 C 78.546875 13.804688 78.460938 14.867188 78.285156 15.738281 C 78.128906 16.609375 77.875 17.351562 77.527344 17.960938 C 77.199219 18.554688 76.769531 19.050781 76.25 19.453125 C 75.726562 19.835938 75.101562 20.183594 74.367188 20.496094 C 75.101562 20.8125 75.726562 21.210938 76.25 21.699219 C 76.769531 22.1875 77.199219 22.789062 77.527344 23.503906 C 77.875 24.199219 78.128906 25.027344 78.285156 25.988281 C 78.460938 26.929688 78.546875 28.027344 78.546875 29.28125 C 78.546875 31.234375 78.355469 32.898438 77.972656 34.273438 C 77.605469 35.652344 77.03125 36.8125 76.25 37.753906 C 75.484375 38.675781 74.507812 39.40625 73.324219 39.949219 C 72.140625 40.488281 70.738281 40.898438 69.121094 41.175781 C 67.519531 41.457031 65.691406 41.628906 63.636719 41.699219 C 61.601562 41.789062 59.328125 41.832031 56.820312 41.832031 C 54.316406 41.832031 51.992188 41.8125 49.847656 41.777344 C 47.726562 41.742188 45.792969 41.605469 44.050781 41.359375 C 42.328125 41.117188 40.804688 40.734375 39.484375 40.210938 C 38.160156 39.667969 37.046875 38.902344 36.140625 37.910156 C 35.253906 36.914062 34.574219 35.652344 34.101562 34.117188 C 33.652344 32.585938 33.425781 30.691406 33.425781 28.445312 L 38.4375 28.445312 C 38.4375 29.769531 38.472656 30.917969 38.542969 31.894531 C 38.613281 32.855469 38.8125 33.671875 39.144531 34.351562 C 39.472656 35.03125 40.003906 35.589844 40.734375 36.027344 C 41.46875 36.445312 42.511719 36.777344 43.871094 37.019531 C 45.246094 37.265625 46.976562 37.429688 49.066406 37.515625 C 51.171875 37.605469 53.757812 37.648438 56.820312 37.648438 C 59.050781 37.648438 61.007812 37.640625 62.695312 37.621094 C 64.386719 37.585938 65.847656 37.492188 67.082031 37.332031 C 68.320312 37.175781 69.347656 36.933594 70.164062 36.601562 C 71 36.269531 71.660156 35.792969 72.148438 35.164062 C 72.636719 34.535156 72.984375 33.742188 73.195312 32.785156 C 73.402344 31.828125 73.507812 30.648438 73.507812 29.253906 C 73.507812 27.792969 73.402344 26.625 73.195312 25.753906 C 72.984375 24.863281 72.671875 24.183594 72.253906 23.710938 C 71.855469 23.242188 71.339844 22.9375 70.714844 22.796875 C 70.085938 22.660156 69.355469 22.589844 68.519531 22.589844 L 50.136719 22.589844 L 50.136719 18.40625 Z M 102.78125 41.570312 C 99.4375 41.570312 96.597656 41.324219 94.265625 40.835938 C 91.933594 40.347656 90.035156 39.511719 88.574219 38.328125 C 87.113281 37.140625 86.050781 35.546875 85.390625 33.542969 C 84.726562 31.539062 84.394531 29.019531 84.394531 25.988281 C 84.394531 22.851562 84.726562 20.253906 85.390625 18.195312 C 86.050781 16.140625 87.113281 14.511719 88.574219 13.308594 C 90.035156 12.105469 91.933594 11.257812 94.265625 10.769531 C 96.597656 10.285156 99.4375 10.039062 102.78125 10.039062 C 105.148438 10.039062 107.132812 10.160156 108.734375 10.40625 C 110.335938 10.648438 111.640625 10.953125 112.648438 11.320312 C 113.675781 11.6875 114.453125 12.085938 114.972656 12.523438 C 115.515625 12.941406 115.90625 13.332031 116.148438 13.699219 L 116.148438 0.835938 L 121.164062 0.835938 L 121.164062 40.992188 L 116.148438 40.992188 L 116.148438 36.523438 C 116.148438 36.523438 115.730469 37.019531 114.894531 38.011719 C 114.164062 38.726562 113.355469 39.304688 112.46875 39.738281 C 111.578125 40.175781 110.335938 40.59375 108.734375 40.992188 C 107.132812 41.378906 105.148438 41.570312 102.78125 41.570312 Z M 102.78125 37.648438 C 104.449219 37.648438 105.9375 37.613281 107.246094 37.542969 C 108.550781 37.457031 109.699219 37.28125 110.691406 37.019531 C 111.683594 36.757812 112.519531 36.375 113.199219 35.871094 C 113.894531 35.347656 114.460938 34.660156 114.894531 33.804688 C 115.332031 32.949219 115.644531 31.894531 115.835938 30.640625 C 116.046875 29.367188 116.148438 27.84375 116.148438 26.066406 C 116.148438 24.21875 116.046875 22.648438 115.835938 21.359375 C 115.644531 20.050781 115.332031 18.964844 114.894531 18.089844 C 114.460938 17.203125 113.894531 16.503906 113.199219 16 C 112.519531 15.496094 111.683594 15.113281 110.691406 14.851562 C 109.699219 14.570312 108.550781 14.398438 107.246094 14.328125 C 105.9375 14.257812 104.449219 14.222656 102.78125 14.222656 C 100.828125 14.222656 99.140625 14.285156 97.714844 14.40625 C 96.304688 14.527344 95.101562 14.746094 94.109375 15.058594 C 93.117188 15.371094 92.308594 15.808594 91.683594 16.367188 C 91.070312 16.925781 90.59375 17.636719 90.246094 18.511719 C 89.914062 19.382812 89.6875 20.4375 89.566406 21.671875 C 89.460938 22.894531 89.410156 24.332031 89.410156 25.988281 C 89.410156 27.625 89.460938 29.054688 89.566406 30.273438 C 89.6875 31.476562 89.914062 32.515625 90.246094 33.386719 C 90.59375 34.238281 91.070312 34.945312 91.683594 35.503906 C 92.308594 36.0625 93.117188 36.496094 94.109375 36.8125 C 95.101562 37.125 96.304688 37.34375 97.714844 37.464844 C 99.140625 37.585938 100.828125 37.648438 102.78125 37.648438 Z M 137.875 14.691406 L 137.875 40.992188 L 132.859375 40.992188 L 132.859375 14.691406 L 127.847656 14.691406 L 127.847656 10.875 L 132.859375 10.875 L 132.859375 10.613281 C 132.859375 8.574219 133.085938 6.875 133.539062 5.515625 C 133.992188 4.15625 134.742188 3.066406 135.785156 2.25 C 136.832031 1.429688 138.207031 0.855469 139.910156 0.523438 C 141.636719 0.175781 143.75 0 146.257812 0 L 152.082031 0 L 152.082031 4.183594 L 146.230469 4.183594 C 144.648438 4.183594 143.324219 4.21875 142.261719 4.289062 C 141.199219 4.355469 140.339844 4.59375 139.675781 4.992188 C 139.03125 5.394531 138.570312 6.03125 138.292969 6.902344 C 138.015625 7.773438 137.875 9.011719 137.875 10.613281 L 137.875 10.875 L 152.082031 10.875 L 152.082031 14.691406 Z M 154.585938 25.726562 C 154.585938 22.640625 154.917969 20.085938 155.578125 18.066406 C 156.242188 16.042969 157.304688 14.441406 158.765625 13.253906 C 160.226562 12.070312 162.125 11.242188 164.457031 10.769531 C 166.789062 10.285156 169.628906 10.039062 172.972656 10.039062 C 176.3125 10.039062 179.152344 10.285156 181.484375 10.769531 C 183.816406 11.242188 185.714844 12.070312 187.175781 13.253906 C 188.636719 14.441406 189.699219 16.042969 190.363281 18.066406 C 191.023438 20.085938 191.355469 22.640625 191.355469 25.726562 C 191.355469 28.8125 191.023438 31.371094 190.363281 33.414062 C 189.699219 35.453125 188.636719 37.074219 187.175781 38.273438 C 185.714844 39.476562 183.816406 40.332031 181.484375 40.835938 C 179.152344 41.324219 176.3125 41.570312 172.972656 41.570312 C 169.628906 41.570312 166.789062 41.324219 164.457031 40.835938 C 162.125 40.332031 160.226562 39.476562 158.765625 38.273438 C 157.304688 37.074219 156.242188 35.453125 155.578125 33.414062 C 154.917969 31.371094 154.585938 28.8125 154.585938 25.726562 Z M 159.601562 25.726562 C 159.601562 27.398438 159.660156 28.855469 159.785156 30.09375 C 159.90625 31.328125 160.132812 32.394531 160.460938 33.28125 C 160.8125 34.171875 161.289062 34.894531 161.898438 35.453125 C 162.507812 36.007812 163.308594 36.453125 164.300781 36.785156 C 165.292969 37.117188 166.496094 37.34375 167.90625 37.464844 C 169.332031 37.585938 171.019531 37.648438 172.972656 37.648438 C 174.640625 37.648438 176.128906 37.613281 177.4375 37.542969 C 178.757812 37.457031 179.90625 37.273438 180.882812 36.992188 C 181.875 36.714844 182.71875 36.324219 183.414062 35.816406 C 184.113281 35.292969 184.667969 34.589844 185.085938 33.699219 C 185.523438 32.8125 185.835938 31.722656 186.027344 30.433594 C 186.234375 29.125 186.339844 27.554688 186.339844 25.726562 C 186.339844 23.929688 186.234375 22.40625 186.027344 21.152344 C 185.835938 19.878906 185.523438 18.816406 185.085938 17.960938 C 184.667969 17.105469 184.113281 16.4375 183.414062 15.949219 C 182.71875 15.441406 181.875 15.066406 180.882812 14.824219 C 179.90625 14.5625 178.757812 14.398438 177.4375 14.328125 C 176.128906 14.257812 174.640625 14.222656 172.972656 14.222656 C 171.300781 14.222656 169.800781 14.257812 168.480469 14.328125 C 167.175781 14.398438 166.023438 14.5625 165.03125 14.824219 C 164.058594 15.066406 163.222656 15.441406 162.523438 15.949219 C 161.828125 16.4375 161.261719 17.105469 160.828125 17.960938 C 160.410156 18.816406 160.097656 19.878906 159.886719 21.152344 C 159.695312 22.40625 159.601562 23.929688 159.601562 25.726562 Z M 224.671875 40.992188 L 212.609375 28.390625 L 200.546875 40.992188 L 193.859375 40.992188 L 209.265625 25.671875 L 194.59375 10.875 L 201.277344 10.875 L 212.742188 22.511719 L 223.941406 10.875 L 230.628906 10.875 L 215.953125 25.648438 L 231.359375 40.992188 Z M 250.578125 40.992188 L 250.578125 0.835938 L 290.6875 0.835938 L 290.6875 5.019531 L 255.589844 5.019531 L 255.589844 18.40625 L 289.015625 18.40625 L 289.015625 22.589844 L 255.589844 22.589844 L 255.589844 36.8125 L 290.6875 36.8125 L 290.6875 40.992188 Z M 322.648438 18.40625 C 325.398438 18.40625 327.757812 18.519531 329.726562 18.746094 C 331.691406 18.972656 333.347656 19.3125 334.6875 19.765625 C 336.046875 20.199219 337.125 20.75 337.925781 21.414062 C 338.726562 22.074219 339.34375 22.832031 339.777344 23.6875 C 340.214844 24.523438 340.492188 25.464844 340.613281 26.511719 C 340.753906 27.554688 340.824219 28.6875 340.824219 29.910156 C 340.824219 31.128906 340.710938 32.28125 340.484375 33.359375 C 340.273438 34.421875 339.890625 35.398438 339.335938 36.289062 C 338.777344 37.175781 338.019531 37.96875 337.0625 38.667969 C 336.105469 39.363281 334.886719 39.957031 333.40625 40.445312 C 331.925781 40.933594 330.144531 41.300781 328.054688 41.542969 C 325.984375 41.804688 323.554688 41.933594 320.769531 41.933594 L 314.082031 41.933594 C 311.578125 41.933594 309.382812 41.839844 307.503906 41.648438 C 305.625 41.457031 304.003906 41.167969 302.648438 40.785156 C 301.289062 40.382812 300.164062 39.886719 299.277344 39.292969 C 298.390625 38.683594 297.675781 37.980469 297.136719 37.175781 C 296.613281 36.359375 296.25 35.433594 296.039062 34.40625 C 295.832031 33.359375 295.726562 32.210938 295.726562 30.953125 L 300.738281 30.953125 C 300.738281 32.523438 300.964844 33.753906 301.417969 34.640625 C 301.871094 35.53125 302.621094 36.199219 303.664062 36.652344 C 304.710938 37.089844 306.078125 37.367188 307.765625 37.492188 C 309.46875 37.59375 311.578125 37.648438 314.082031 37.648438 L 320.769531 37.648438 C 323.695312 37.648438 326.121094 37.507812 328.054688 37.230469 C 329.988281 36.949219 331.527344 36.507812 332.675781 35.894531 C 333.824219 35.285156 334.632812 34.492188 335.105469 33.515625 C 335.574219 32.523438 335.808594 31.320312 335.808594 29.910156 C 335.808594 28.496094 335.644531 27.320312 335.3125 26.378906 C 335 25.4375 334.363281 24.6875 333.40625 24.132812 C 332.46875 23.574219 331.136719 23.179688 329.410156 22.953125 C 327.6875 22.710938 325.433594 22.589844 322.648438 22.589844 L 315.753906 22.589844 C 312.691406 22.589844 310.0625 22.476562 307.871094 22.25 C 305.691406 22.023438 303.863281 21.699219 302.386719 21.28125 C 300.90625 20.84375 299.722656 20.3125 298.835938 19.6875 C 297.945312 19.042969 297.269531 18.308594 296.796875 17.492188 C 296.34375 16.671875 296.050781 15.765625 295.910156 14.773438 C 295.769531 13.761719 295.699219 12.671875 295.699219 11.503906 C 295.699219 10.285156 295.804688 9.152344 296.015625 8.105469 C 296.242188 7.058594 296.648438 6.117188 297.242188 5.28125 C 297.832031 4.425781 298.640625 3.667969 299.667969 3.007812 C 300.695312 2.34375 302.011719 1.796875 303.613281 1.359375 C 305.230469 0.90625 307.171875 0.566406 309.4375 0.339844 C 311.699219 0.113281 314.363281 0 317.425781 0 L 322.441406 0 C 324.945312 0 327.140625 0.0976562 329.019531 0.289062 C 330.898438 0.460938 332.519531 0.75 333.878906 1.148438 C 335.234375 1.535156 336.359375 2.023438 337.246094 2.613281 C 338.152344 3.191406 338.863281 3.886719 339.386719 4.707031 C 339.925781 5.507812 340.300781 6.421875 340.511719 7.449219 C 340.71875 8.480469 340.824219 9.621094 340.824219 10.875 L 335.808594 10.875 C 335.808594 9.308594 335.582031 8.078125 335.128906 7.191406 C 334.679688 6.300781 333.929688 5.636719 332.886719 5.203125 C 331.839844 4.75 330.464844 4.46875 328.757812 4.367188 C 327.054688 4.242188 324.945312 4.183594 322.441406 4.183594 L 317.425781 4.183594 C 314.082031 4.183594 311.332031 4.304688 309.175781 4.550781 C 307.015625 4.777344 305.308594 5.167969 304.058594 5.726562 C 302.804688 6.285156 301.933594 7.03125 301.445312 7.972656 C 300.957031 8.914062 300.714844 10.089844 300.714844 11.503906 C 300.714844 12.375 300.777344 13.152344 300.898438 13.832031 C 301.019531 14.511719 301.261719 15.113281 301.628906 15.632812 C 302.011719 16.140625 302.542969 16.566406 303.222656 16.914062 C 303.898438 17.265625 304.796875 17.550781 305.910156 17.777344 C 307.023438 18.003906 308.382812 18.171875 309.984375 18.273438 C 311.605469 18.363281 313.527344 18.40625 315.753906 18.40625 Z M 395.136719 40.992188 L 390.125 40.992188 L 390.125 33.464844 C 390.125 32.246094 390.097656 31.199219 390.046875 30.328125 C 390.011719 29.4375 389.863281 28.679688 389.601562 28.050781 C 389.359375 27.425781 388.964844 26.917969 388.425781 26.535156 C 387.886719 26.152344 387.121094 25.855469 386.128906 25.648438 C 385.136719 25.4375 383.875 25.300781 382.34375 25.230469 C 380.828125 25.140625 378.957031 25.097656 376.726562 25.097656 L 354.191406 25.097656 L 354.191406 40.992188 L 349.179688 40.992188 L 349.179688 0.835938 L 377.5625 0.835938 C 380.628906 0.835938 383.203125 0.949219 385.292969 1.175781 C 387.398438 1.386719 389.132812 1.707031 390.488281 2.144531 C 391.867188 2.578125 392.917969 3.121094 393.648438 3.765625 C 394.398438 4.410156 394.9375 5.167969 395.269531 6.039062 C 395.617188 6.910156 395.816406 7.886719 395.867188 8.96875 C 395.9375 10.046875 395.972656 11.242188 395.972656 12.550781 C 395.972656 14.222656 395.851562 15.695312 395.609375 16.96875 C 395.382812 18.222656 394.988281 19.292969 394.433594 20.183594 C 393.875 21.070312 393.136719 21.785156 392.214844 22.328125 C 391.289062 22.851562 390.132812 23.214844 388.738281 23.425781 C 390.132812 23.632812 391.246094 24 392.082031 24.523438 C 392.917969 25.046875 393.5625 25.726562 394.015625 26.5625 C 394.46875 27.398438 394.761719 28.390625 394.902344 29.542969 C 395.058594 30.691406 395.136719 32 395.136719 33.464844 Z M 354.191406 20.914062 L 377.5625 20.914062 C 379.792969 20.914062 381.664062 20.878906 383.179688 20.8125 C 384.710938 20.722656 385.972656 20.574219 386.964844 20.367188 C 387.957031 20.15625 388.722656 19.859375 389.261719 19.476562 C 389.800781 19.09375 390.195312 18.589844 390.4375 17.960938 C 390.699219 17.332031 390.847656 16.585938 390.882812 15.710938 C 390.933594 14.824219 390.960938 13.769531 390.960938 12.550781 C 390.960938 11.417969 390.933594 10.441406 390.882812 9.621094 C 390.847656 8.800781 390.699219 8.113281 390.4375 7.554688 C 390.195312 6.996094 389.800781 6.554688 389.261719 6.222656 C 388.722656 5.890625 387.957031 5.636719 386.964844 5.464844 C 385.972656 5.273438 384.710938 5.152344 383.179688 5.097656 C 381.664062 5.046875 379.792969 5.019531 377.5625 5.019531 L 354.191406 5.019531 Z M 354.191406 20.914062 "/>
</g>
</svg>
