<?xml version="1.0" encoding="UTF-8"?>
<svg version="1.1" width="396px" height="42px" viewBox="0 0 396 42" xmlns="http://www.w3.org/2000/svg">
<defs>
<linearGradient id="a" x1="69.258" x2="69.258" y1="-12.154" y2="576.84" gradientTransform="scale(.07098 .071066)" gradientUnits="userSpaceOnUse">
<stop stop-color="#f3862d" offset="0"/>
<stop stop-color="#de6113" offset=".5"/>
<stop stop-color="#c84f13" offset="1"/>
</linearGradient>
</defs>
<path d="m25.902 20.68c0-1.2539-0.09375-2.293-0.28516-3.1094-0.17578-0.83984-0.60156-1.5-1.2812-1.9883-0.67969-0.50391-1.6875-0.85547-3.0273-1.0469-1.3242-0.20703-3.1328-0.3125-5.4336-0.3125-2.2461 0-4.0703 0.19922-5.4805 0.60156-1.4102 0.38281-2.5156 0.93359-3.3164 1.6484-0.80078 0.71094-1.3516 1.5664-1.6484 2.5586-0.27734 0.99609-0.41797 2.1016-0.41797 3.3203v18.641h-5.0117v-30.117h5.0117v4.7852c0.17578-0.53906 0.49609-1.1328 0.96875-1.7773 0.46875-0.66406 1.1836-1.2734 2.1406-1.832 0.95703-0.57422 2.1953-1.0547 3.707-1.4375 1.5312-0.38281 3.4375-0.57422 5.7188-0.57422 2.6133 0 4.7344 0.23438 6.3711 0.70703 1.6367 0.45312 2.9102 1.1328 3.8125 2.0391 0.92578 0.88672 1.543 1.9961 1.8555 3.3203 0.33203 1.3242 0.49609 2.8477 0.49609 4.5742zm42.617-2.2734c0.83594 0 1.5664-0.070312 2.1953-0.21094 0.625-0.13672 1.1406-0.41016 1.5391-0.80859 0.41797-0.41797 0.73047-1.0117 0.94141-1.7773 0.20703-0.76953 0.3125-1.7773 0.3125-3.0352 0-1.3945-0.10547-2.5703-0.3125-3.5273-0.21094-0.96094-0.55859-1.7539-1.0469-2.3789-0.48828-0.62891-1.1484-1.1094-1.9844-1.4375-0.81641-0.33203-1.8438-0.57812-3.082-0.73438-1.2344-0.15625-2.6953-0.24219-4.3867-0.26172-1.6875-0.035156-3.6445-0.050781-5.875-0.050781-3.0625 0-5.6484 0.042968-7.7539 0.12891-2.0898 0.070312-3.8203 0.21875-5.1953 0.44531-1.3594 0.21094-2.4023 0.50781-3.1367 0.89063-0.73047 0.38281-1.2695 0.88672-1.6172 1.5156-0.33203 0.60938-0.53125 1.3594-0.60156 2.2461-0.050781 0.89062-0.078125 1.9375-0.078125 3.1406h-5.0117c0-2.1094 0.22656-3.8867 0.67578-5.3359 0.47266-1.4453 1.1523-2.6328 2.0391-3.5547 0.90625-0.94141 2.0195-1.6562 3.3438-2.1445 1.3203-0.50391 2.8438-0.86328 4.5664-1.0703 1.7422-0.22656 3.6758-0.35937 5.7969-0.39453 2.1445-0.035156 4.4688-0.050781 6.9727-0.050781 2.5078 0 4.7812 0.042969 6.8164 0.12891 2.0547 0.070313 3.8828 0.24609 5.4844 0.52344 1.6172 0.28125 3.0195 0.69141 4.2031 1.2305 1.1836 0.53906 2.1602 1.2812 2.9258 2.2227 0.78125 0.92188 1.3555 2.0742 1.7227 3.4492 0.38281 1.3789 0.57422 3.043 0.57422 4.9961 0 1.2539-0.085937 2.3164-0.26172 3.1875-0.15625 0.87109-0.41016 1.6133-0.75781 2.2227-0.32812 0.59375-0.75781 1.0898-1.2773 1.4922-0.52344 0.38281-1.1484 0.73047-1.8828 1.043 0.73437 0.31641 1.3594 0.71484 1.8828 1.2031 0.51953 0.48828 0.94922 1.0898 1.2773 1.8047 0.34766 0.69531 0.60156 1.5234 0.75781 2.4844 0.17578 0.94141 0.26172 2.0391 0.26172 3.293 0 1.9531-0.19141 3.6172-0.57422 4.9922-0.36719 1.3789-0.94141 2.5391-1.7227 3.4805-0.76562 0.92188-1.7422 1.6523-2.9258 2.1953-1.1836 0.53906-2.5859 0.94922-4.2031 1.2266-1.6016 0.28125-3.4297 0.45312-5.4844 0.52344-2.0352 0.089843-4.3086 0.13281-6.8164 0.13281-2.5039 0-4.8281-0.019531-6.9727-0.054687-2.1211-0.035156-4.0547-0.17188-5.7969-0.41797-1.7227-0.24219-3.2461-0.625-4.5664-1.1484-1.3242-0.54297-2.4375-1.3086-3.3438-2.3008-0.88672-0.99609-1.5664-2.2578-2.0391-3.793-0.44922-1.5312-0.67578-3.4258-0.67578-5.6719h5.0117c0 1.3242 0.035156 2.4727 0.10547 3.4492 0.070312 0.96094 0.26953 1.7773 0.60156 2.457 0.32812 0.67969 0.85938 1.2383 1.5898 1.6758 0.73438 0.41797 1.7773 0.75 3.1367 0.99219 1.375 0.24609 3.1055 0.41016 5.1953 0.49609 2.1055 0.089844 4.6914 0.13281 7.7539 0.13281 2.2305 0 4.1875-0.007813 5.875-0.027344 1.6914-0.035156 3.1523-0.12891 4.3867-0.28906 1.2383-0.15625 2.2656-0.39844 3.082-0.73047 0.83594-0.33203 1.4961-0.80859 1.9844-1.4375 0.48828-0.62891 0.83594-1.4219 1.0469-2.3789 0.20703-0.95703 0.3125-2.1367 0.3125-3.5312 0-1.4609-0.10547-2.6289-0.3125-3.5-0.21094-0.89062-0.52344-1.5703-0.94141-2.043-0.39844-0.46875-0.91406-0.77344-1.5391-0.91406-0.62891-0.13672-1.3594-0.20703-2.1953-0.20703h-18.383v-4.1836zm34.262 23.164c-3.3438 0-6.1836-0.24609-8.5156-0.73437-2.332-0.48828-4.2305-1.3242-5.6914-2.5078-1.4609-1.1875-2.5234-2.7812-3.1836-4.7852-0.66406-2.0039-0.99609-4.5234-0.99609-7.5547 0-3.1367 0.33203-5.7344 0.99609-7.793 0.66016-2.0547 1.7227-3.6836 3.1836-4.8867 1.4609-1.2031 3.3594-2.0508 5.6914-2.5391 2.332-0.48438 5.1719-0.73047 8.5156-0.73047 2.3672 0 4.3516 0.12109 5.9531 0.36719 1.6016 0.24219 2.9062 0.54688 3.9141 0.91406 1.0273 0.36719 1.8047 0.76563 2.3242 1.2031 0.54297 0.41797 0.93359 0.80859 1.1758 1.1758v-12.863h5.0156v40.156h-5.0156v-4.4688s-0.41797 0.49609-1.2539 1.4883c-0.73047 0.71484-1.5391 1.293-2.4258 1.7266-0.89062 0.4375-2.1328 0.85547-3.7344 1.2539-1.6016 0.38672-3.5859 0.57812-5.9531 0.57812zm0-3.9219c1.668 0 3.1562-0.035157 4.4648-0.10547 1.3047-0.085938 2.4531-0.26172 3.4453-0.52344 0.99219-0.26172 1.8281-0.64453 2.5078-1.1484 0.69531-0.52344 1.2617-1.2109 1.6953-2.0664 0.4375-0.85547 0.75-1.9102 0.94141-3.1641 0.21094-1.2734 0.3125-2.7969 0.3125-4.5742 0-1.8477-0.10156-3.418-0.3125-4.707-0.19141-1.3086-0.50391-2.3945-0.94141-3.2695-0.43359-0.88672-1-1.5859-1.6953-2.0898-0.67969-0.50391-1.5156-0.88672-2.5078-1.1484-0.99219-0.28125-2.1406-0.45312-3.4453-0.52344-1.3086-0.070313-2.7969-0.10547-4.4648-0.10547-1.9531 0-3.6406 0.0625-5.0664 0.18359-1.4102 0.12109-2.6133 0.33984-3.6055 0.65234s-1.8008 0.75-2.4258 1.3086c-0.61328 0.55859-1.0898 1.2695-1.4375 2.1445-0.33203 0.87109-0.55859 1.9258-0.67969 3.1602-0.10547 1.2227-0.15625 2.6602-0.15625 4.3164 0 1.6367 0.050782 3.0664 0.15625 4.2852 0.12109 1.2031 0.34766 2.2422 0.67969 3.1133 0.34766 0.85156 0.82422 1.5586 1.4375 2.1172 0.625 0.55859 1.4336 0.99219 2.4258 1.3086 0.99219 0.3125 2.1953 0.53125 3.6055 0.65234 1.4258 0.12109 3.1133 0.18359 5.0664 0.18359zm35.094-22.957v26.301h-5.0156v-26.301h-5.0117v-3.8164h5.0117v-0.26172c0-2.0391 0.22656-3.7383 0.67969-5.0977 0.45313-1.3594 1.2031-2.4492 2.2461-3.2656 1.0469-0.82031 2.4219-1.3945 4.125-1.7266 1.7266-0.34766 3.8398-0.52344 6.3477-0.52344h5.8242v4.1836h-5.8516c-1.582 0-2.9062 0.035156-3.9688 0.10547-1.0625 0.066407-1.9219 0.30469-2.5859 0.70313-0.64453 0.40234-1.1055 1.0391-1.3828 1.9102-0.27734 0.87109-0.41797 2.1094-0.41797 3.7109v0.26172h14.207v3.8164zm16.711 11.035c0-3.0859 0.33203-5.6406 0.99219-7.6602 0.66406-2.0234 1.7266-3.625 3.1875-4.8125 1.4609-1.1836 3.3594-2.0117 5.6914-2.4844 2.332-0.48438 5.1719-0.73047 8.5156-0.73047 3.3398 0 6.1797 0.24609 8.5117 0.73047 2.332 0.47266 4.2305 1.3008 5.6914 2.4844 1.4609 1.1875 2.5234 2.7891 3.1875 4.8125 0.66016 2.0195 0.99219 4.5742 0.99219 7.6602 0 3.0859-0.33203 5.6445-0.99219 7.6875-0.66406 2.0391-1.7266 3.6602-3.1875 4.8594-1.4609 1.2031-3.3594 2.0586-5.6914 2.5625-2.332 0.48828-5.1719 0.73437-8.5117 0.73437-3.3438 0-6.1836-0.24609-8.5156-0.73437-2.332-0.50391-4.2305-1.3594-5.6914-2.5625-1.4609-1.1992-2.5234-2.8203-3.1875-4.8594-0.66016-2.043-0.99219-4.6016-0.99219-7.6875zm5.0156 0c0 1.6719 0.058594 3.1289 0.18359 4.3672 0.12109 1.2344 0.34766 2.3008 0.67578 3.1875 0.35156 0.89062 0.82812 1.6133 1.4375 2.1719 0.60937 0.55469 1.4102 1 2.4023 1.332 0.99219 0.33203 2.1953 0.55859 3.6055 0.67969 1.4258 0.12109 3.1133 0.18359 5.0664 0.18359 1.668 0 3.1562-0.035157 4.4648-0.10547 1.3203-0.085938 2.4688-0.26953 3.4453-0.55078 0.99219-0.27734 1.8359-0.66797 2.5312-1.1758 0.69922-0.52344 1.2539-1.2266 1.6719-2.1172 0.4375-0.88672 0.75-1.9766 0.94141-3.2656 0.20703-1.3086 0.3125-2.8789 0.3125-4.707 0-1.7969-0.10547-3.3203-0.3125-4.5742-0.19141-1.2734-0.50391-2.3359-0.94141-3.1914-0.41797-0.85547-0.97266-1.5234-1.6719-2.0117-0.69531-0.50781-1.5391-0.88281-2.5312-1.125-0.97656-0.26172-2.125-0.42578-3.4453-0.49609-1.3086-0.070313-2.7969-0.10547-4.4648-0.10547-1.6719 0-3.1719 0.035156-4.4922 0.10547-1.3047 0.070313-2.457 0.23438-3.4492 0.49609-0.97266 0.24219-1.8086 0.61719-2.5078 1.125-0.69531 0.48828-1.2617 1.1562-1.6953 2.0117-0.41797 0.85547-0.73047 1.918-0.94141 3.1914-0.19141 1.2539-0.28516 2.7773-0.28516 4.5742zm65.07 15.266-12.062-12.602-12.062 12.602h-6.6875l15.406-15.32-14.672-14.797h6.6836l11.465 11.637 11.199-11.637h6.6875l-14.676 14.773 15.406 15.344zm25.906 0v-40.156h40.109v4.1836h-35.098v13.387h33.426v4.1836h-33.426v14.223h35.098v4.1797zm72.07-22.586c2.75 0 5.1094 0.11328 7.0781 0.33984 1.9648 0.22656 3.6211 0.56641 4.9609 1.0195 1.3594 0.43359 2.4375 0.98438 3.2383 1.6484 0.80078 0.66016 1.418 1.418 1.8516 2.2734 0.4375 0.83594 0.71484 1.7773 0.83594 2.8242 0.14062 1.043 0.21094 2.1758 0.21094 3.3984 0 1.2188-0.11328 2.3711-0.33984 3.4492-0.21094 1.0625-0.59375 2.0391-1.1484 2.9297-0.55859 0.88672-1.3164 1.6797-2.2734 2.3789-0.95703 0.69531-2.1758 1.2891-3.6562 1.7773-1.4805 0.48828-3.2617 0.85547-5.3516 1.0977-2.0703 0.26172-4.5 0.39062-7.2852 0.39062h-6.6875c-2.5039 0-4.6992-0.09375-6.5781-0.28516-1.8789-0.19141-3.5-0.48047-4.8555-0.86328-1.3594-0.40234-2.4844-0.89844-3.3711-1.4922-0.88672-0.60938-1.6016-1.3125-2.1406-2.1172-0.52344-0.81641-0.88672-1.7422-1.0977-2.7695-0.20703-1.0469-0.3125-2.1953-0.3125-3.4531h5.0117c0 1.5703 0.22656 2.8008 0.67969 3.6875 0.45312 0.89062 1.2031 1.5586 2.2461 2.0117 1.0469 0.4375 2.4141 0.71484 4.1016 0.83984 1.7031 0.10156 3.8125 0.15625 6.3164 0.15625h6.6875c2.9258 0 5.3516-0.14063 7.2852-0.41797 1.9336-0.28125 3.4727-0.72266 4.6211-1.3359 1.1484-0.60938 1.957-1.4023 2.4297-2.3789 0.46875-0.99219 0.70312-2.1953 0.70312-3.6055 0-1.4141-0.16406-2.5898-0.49609-3.5312-0.3125-0.94141-0.94922-1.6914-1.9062-2.2461-0.9375-0.55859-2.2695-0.95312-3.9961-1.1797-1.7227-0.24219-3.9766-0.36328-6.7617-0.36328h-6.8945c-3.0625 0-5.6914-0.11328-7.8828-0.33984-2.1797-0.22656-4.0078-0.55078-5.4844-0.96875-1.4805-0.4375-2.6641-0.96875-3.5508-1.5938-0.89063-0.64453-1.5664-1.3789-2.0391-2.1953-0.45312-0.82031-0.74609-1.7266-0.88672-2.7188-0.14062-1.0117-0.21094-2.1016-0.21094-3.2695 0-1.2188 0.10547-2.3516 0.31641-3.3984 0.22656-1.0469 0.63281-1.9883 1.2266-2.8242 0.58984-0.85547 1.3984-1.6133 2.4258-2.2734 1.0273-0.66406 2.3438-1.2109 3.9453-1.6484 1.6172-0.45312 3.5586-0.79297 5.8242-1.0195 2.2617-0.22656 4.9258-0.33984 7.9883-0.33984h5.0156c2.5039 0 4.6992 0.097656 6.5781 0.28906 1.8789 0.17188 3.5 0.46094 4.8594 0.85938 1.3555 0.38672 2.4805 0.875 3.3672 1.4648 0.90625 0.57812 1.6172 1.2734 2.1406 2.0938 0.53906 0.80078 0.91406 1.7148 1.125 2.7422 0.20703 1.0312 0.3125 2.1719 0.3125 3.4258h-5.0156c0-1.5664-0.22656-2.7969-0.67969-3.6836-0.44922-0.89062-1.1992-1.5547-2.2422-1.9883-1.0469-0.45312-2.4219-0.73438-4.1289-0.83594-1.7031-0.125-3.8125-0.18359-6.3164-0.18359h-5.0156c-3.3438 0-6.0938 0.12109-8.25 0.36719-2.1602 0.22656-3.8672 0.61719-5.1172 1.1758-1.2539 0.55859-2.125 1.3047-2.6133 2.2461-0.48828 0.94141-0.73047 2.1172-0.73047 3.5312 0 0.87109 0.0625 1.6484 0.18359 2.3281 0.12109 0.67969 0.36328 1.2812 0.73047 1.8008 0.38281 0.50781 0.91406 0.93359 1.5938 1.2812 0.67578 0.35156 1.5742 0.63672 2.6875 0.86328 1.1133 0.22656 2.4727 0.39453 4.0742 0.49609 1.6211 0.089843 3.543 0.13281 5.7695 0.13281zm72.488 22.586h-5.0117v-7.5273c0-1.2188-0.027344-2.2656-0.078125-3.1367-0.035156-0.89062-0.18359-1.6484-0.44531-2.2773-0.24219-0.625-0.63672-1.1328-1.1758-1.5156-0.53906-0.38281-1.3047-0.67969-2.2969-0.88672-0.99219-0.21094-2.2539-0.34766-3.7852-0.41797-1.5156-0.089844-3.3867-0.13281-5.6172-0.13281h-22.535v15.895h-5.0117v-40.156h28.383c3.0664 0 5.6406 0.11328 7.7305 0.33984 2.1055 0.21094 3.8398 0.53125 5.1953 0.96875 1.3789 0.43359 2.4297 0.97656 3.1602 1.6211 0.75 0.64453 1.2891 1.4023 1.6211 2.2734 0.34766 0.87109 0.54688 1.8477 0.59766 2.9297 0.070312 1.0781 0.10547 2.2734 0.10547 3.582 0 1.6719-0.12109 3.1445-0.36328 4.418-0.22656 1.2539-0.62109 2.3242-1.1758 3.2148-0.55859 0.88672-1.2969 1.6016-2.2188 2.1445-0.92578 0.52344-2.082 0.88672-3.4766 1.0977 1.3945 0.20703 2.5078 0.57422 3.3438 1.0977 0.83594 0.52344 1.4805 1.2031 1.9336 2.0391s0.74609 1.8281 0.88672 2.9805c0.15625 1.1484 0.23438 2.457 0.23438 3.9219zm-40.945-20.078h23.371c2.2305 0 4.1016-0.035156 5.6172-0.10156 1.5312-0.089844 2.793-0.23828 3.7852-0.44531 0.99219-0.21094 1.7578-0.50781 2.2969-0.89063 0.53906-0.38281 0.93359-0.88672 1.1758-1.5156 0.26172-0.62891 0.41016-1.375 0.44531-2.25 0.050782-0.88672 0.078126-1.9414 0.078126-3.1602 0-1.1328-0.027344-2.1094-0.078126-2.9297-0.035156-0.82031-0.18359-1.5078-0.44531-2.0664-0.24219-0.55859-0.63672-1-1.1758-1.332-0.53906-0.33203-1.3047-0.58594-2.2969-0.75781-0.99219-0.19141-2.2539-0.3125-3.7852-0.36719-1.5156-0.050781-3.3867-0.078125-5.6172-0.078125h-23.371z" fill="url(#a)"/>
</svg>
