<svg xmlns="http://www.w3.org/2000/svg" width="256" height="256" viewBox="0 0 67.733 67.733"><path d="M33.867 0A33.867 33.867 0 000 33.867a33.867 33.867 0 0033.867 33.866 33.867 33.867 0 0033.866-33.866A33.867 33.867 0 0033.867 0zm.086 6.822c7.166 0 13.526 2.568 18.68 7.54 2.484 2.397 4.149 4.669 5.575 7.608 1.928 3.975 2.71 7.432 2.71 11.995 0 6.006-1.735 11.244-5.337 16.117-1.07 1.448-3.162 3.647-4.55 4.785-3.807 3.12-8.659 5.231-13.473 5.863-1.664.218-5.594.245-7.121.049-4.744-.609-9.282-2.5-13.242-5.519-1.291-.984-3.715-3.423-4.773-4.803C9.46 46.592 7.618 42.206 7.01 37.57c-.26-1.985-.259-5.633.003-7.447 1.308-9.068 7.014-16.845 15.209-20.73 3.811-1.806 7.3-2.57 11.731-2.57zm-.089 4.097c-4.164-.004-7.815.95-11.43 2.987-3.289 1.855-6.69 5.26-8.553 8.563-1.371 2.433-2.375 5.32-2.767 7.96-.257 1.729-.262 5.164-.01 6.82.504 3.315 1.761 6.591 3.584 9.34.995 1.5.964 1.484 1.842.981 1.571-.898 1.981-1.334 2.837-3.01 1-1.96 2.07-3.673 3.037-4.863 1.116-1.374 1.269-1.618 1.829-2.915a17.5 17.5 0 011.123-2.13l.61-.942-.79-.777c-1.05-1.032-1.923-2.202-2.087-2.797-.168-.607.03-.946.82-1.402.796-.46 1.367-.593 3.498-.812 1.037-.106 2.163-.302 2.518-.436.353-.134 1.408-.709 2.344-1.276 2.703-1.639 2.932-1.724 4.553-1.688 1.368.03 1.37.029 2.182-.462 1.701-1.028 4.144-2.883 7.358-5.587.616-.519 1.21-.926 1.319-.905.454.088 1.29 2.136 1.416 3.476.077.812-.08 1.615-.562 2.872-.131.343-.192.67-.134.728.137.137.61-.453.61-.763 0-.394.261-.44.616-.106.259.242.482.311 1 .311.568 0 .708.053.93.348.375.501.463 1.867.176 2.733-.28.842-1.125 1.812-1.892 2.173-.686.322-2.076 1.68-2.726 2.662-.249.376-.716 1.16-1.037 1.742-.322.582-.861 1.461-1.199 1.954-.664.97-1.233 2.322-1.782 4.238-.322 1.125-.35 1.418-.363 3.928-.016 3.032-.173 3.776-.992 4.71-.932 1.06-1.862 3.391-1.94 4.86-.05.928-.193 1.832-.396 2.502-.089.294.078.29 1.073-.023 2.898-.913 5.26-2.14 7.54-3.92 1.213-.945 3.308-3.06 4.187-4.226 2.383-3.162 4.005-7.122 4.482-10.947.23-1.841.097-5.738-.254-7.429-.93-4.48-2.932-8.265-6.087-11.503-1.966-2.02-3.756-3.35-6.06-4.505-3.495-1.752-6.49-2.46-10.423-2.464zm4.279 14.997l-1.966.275-1.222 1.565 1.966-.276 1.222-1.564z" fill="context-fill #00acff"/></svg>
